<svg width="393" height="442" viewBox="0 0 393 442" fill="none" xmlns="http://www.w3.org/2000/svg">
<mask id="mask0_151_250" style="mask-type:alpha" maskUnits="userSpaceOnUse" x="0" y="0" width="393" height="442">
<rect width="393" height="442" fill="#D9D9D9"/>
</mask>
<g mask="url(#mask0_151_250)">
<g clip-path="url(#clip0_151_250)">
<path opacity="0.25" d="M-396.284 -151L-424.334 -83.1774C-393.625 -32.3862 -348.102 3.5474 -295.296 18.2323C-227.023 37.2548 -149.13 21.5306 -81.4711 42.3241C-10.5946 64.1564 44.6399 123.443 98.7983 177.378C151.902 230.225 211.523 266.688 284.376 276.572C321.417 281.597 359.734 277.129 398.676 273.503C502.941 263.796 640.883 253.433 680.824 384.498L712.619 307.62L-396.284 -151Z" fill="#417505"/>
<path opacity="0.5" d="M-396.284 -151L-405.865 -127.836C-406.643 -91.9376 -405.198 -57.127 -395.874 -27.2084C-371.847 50.022 -311.072 74.6938 -244.247 69.0108C-209.311 66.0444 -172.921 53.7793 -137.267 44.9675C-87.9402 32.7683 -31.0949 9.95228 13.7294 22.1938C48.9637 31.876 73.5389 63.0925 85.7201 106.118C99.6929 155.46 105.739 220.776 137.248 252.681C168.079 283.945 216.476 273.969 262.047 262.636C307.618 251.303 355.134 234.219 396.178 244.245C454.918 258.502 486.994 321.062 528.72 365.703C551.38 389.934 579.503 397.292 613.744 387.999C641.07 380.616 674.419 366.887 699.627 339.034L712.619 307.62L-396.284 -151Z" fill="#417505"/>
<path d="M-396.284 -151L-399.696 -142.751C-293.488 -7.25437 -149.255 73.5357 17.6277 93.2266C61.993 98.4666 107.656 95.9388 151.584 103.229C211.335 113.133 248.108 164.15 283.125 218.37C322.002 278.561 364.744 327.157 428.17 344.398C512.373 367.212 615.236 343.337 709.474 315.225L712.619 307.62L-396.284 -151Z" fill="#417505"/>
<g clip-path="url(#clip1_151_250)">
<path opacity="0.25" d="M-319.07 -136.224L-347.12 -68.4009C-316.411 -17.6097 -270.888 18.3239 -218.082 33.0088C-149.809 52.0312 -71.9162 36.3071 -4.25689 57.1006C66.6196 78.9329 121.854 138.22 176.012 192.155C229.117 245.002 288.737 281.464 361.59 291.348C398.632 296.373 436.948 291.905 475.89 288.28C580.155 278.573 718.097 268.21 758.039 399.274L789.833 322.397L-319.07 -136.224Z" fill="#B2C42D"/>
<path opacity="0.5" d="M-319.07 -136.224L-328.65 -113.059C-329.429 -77.1612 -327.984 -42.3506 -318.66 -12.4319C-294.632 64.7985 -233.858 89.4703 -167.033 83.7873C-132.097 80.8209 -95.7072 68.5558 -60.0528 59.744C-10.7259 47.5448 46.1193 24.7288 90.9436 36.9703C126.178 46.6525 150.753 77.869 162.934 120.894C176.907 170.237 182.954 235.552 214.462 267.457C245.294 298.722 293.69 288.746 339.261 277.412C384.832 266.079 432.348 248.996 473.392 259.022C532.133 273.278 564.208 335.839 605.935 380.48C628.594 404.71 656.717 412.069 690.958 402.775C718.284 395.392 751.633 381.663 776.842 353.81L789.833 322.397L-319.07 -136.224Z" fill="#B2C42D"/>
<path d="M-319.07 -136.224L-322.482 -127.975C-216.274 7.52212 -72.0412 88.3122 94.842 108.003C139.207 113.243 184.87 110.715 228.798 118.005C288.549 127.91 325.323 178.927 360.339 233.146C399.216 293.338 441.958 341.934 505.384 359.175C589.587 381.989 692.451 358.113 786.689 330.001L789.833 322.397L-319.07 -136.224Z" fill="#B2C42D"/>
</g>
</g>
<g clip-path="url(#clip2_151_250)">
<path opacity="0.25" d="M924.001 634.463L952.444 565.421C919.283 513.029 870.763 475.647 814.916 459.915C742.711 439.538 660.938 454.595 589.351 432.413C514.359 409.126 455.234 347.713 397.329 291.791C340.551 236.998 277.176 198.886 200.296 187.801C161.207 182.165 120.929 186.229 79.9786 189.422C-29.6642 197.97 -174.762 206.741 -218.942 72.0689L-251.182 150.328L924.001 634.463Z" fill="#417505"/>
<path opacity="0.5" d="M924.001 634.463L933.715 610.882C933.955 574.152 931.87 538.505 921.568 507.76C895.016 428.397 830.617 402.338 760.336 407.265C723.594 409.837 685.471 421.906 648.066 430.45C596.318 442.279 536.824 464.875 489.422 451.75C452.161 441.372 425.777 409.096 412.253 364.899C396.741 314.212 389.318 247.283 355.621 214.21C322.647 181.802 271.843 191.368 224.036 202.361C176.229 213.354 126.467 230.207 83.082 219.399C20.9928 204.027 -13.7968 139.572 -58.4599 93.3276C-82.7143 68.2272 -112.449 60.3218 -148.357 69.3778C-177.015 76.5709 -211.911 90.1784 -238.008 118.35L-251.182 150.328L924.001 634.463Z" fill="#417505"/>
<path d="M924.001 634.463L927.46 626.065C813.424 485.976 660.229 401.371 484.169 378.998C437.363 373.045 389.318 375.025 342.939 366.979C279.857 356.048 240.306 303.344 202.555 247.386C160.641 185.264 114.844 134.96 47.7728 116.47C-41.2688 92.0006 -149.207 115.068 -247.993 142.587L-251.182 150.328L924.001 634.463Z" fill="#417505"/>
<g clip-path="url(#clip3_151_250)">
<path opacity="0.25" d="M771.227 571.525L799.67 502.484C766.509 450.092 717.989 412.709 662.142 396.977C589.937 376.6 508.164 391.657 436.577 369.476C361.585 346.188 302.46 284.775 244.555 228.854C187.778 174.06 124.403 135.949 47.5225 124.864C8.43345 119.228 -31.8446 123.291 -72.7951 126.484C-182.438 135.032 -327.535 143.804 -371.716 9.13142L-403.956 87.3903L771.227 571.525Z" fill="#B2C42D"/>
<path opacity="0.5" d="M771.227 571.525L780.942 547.944C781.181 511.214 779.096 475.567 768.794 444.822C742.242 365.46 677.843 339.4 607.563 344.328C570.82 346.899 532.697 358.968 495.292 367.513C443.544 379.342 384.05 401.937 336.648 388.812C299.387 378.434 273.003 346.158 259.479 301.961C243.967 251.274 236.544 184.345 202.847 151.273C169.873 118.864 119.069 128.43 71.2621 139.424C23.4553 150.417 -26.3069 167.269 -69.6918 156.462C-131.781 141.089 -166.571 76.634 -211.234 30.3901C-235.488 5.28968 -265.222 -2.61572 -301.131 6.44025C-329.788 13.6334 -364.685 27.2409 -390.782 55.4126L-403.956 87.3903L771.227 571.525Z" fill="#B2C42D"/>
<path d="M771.227 571.525L774.687 563.128C660.65 423.038 507.455 338.433 331.395 316.06C284.59 310.107 236.544 312.087 190.166 304.042C127.083 293.11 87.5327 240.406 49.7809 184.448C7.86706 122.327 -37.9297 72.022 -105.001 53.5328C-194.043 29.0631 -301.981 52.1309 -400.767 79.6494L-403.956 87.3903L771.227 571.525Z" fill="#B2C42D"/>
</g>
</g>
</g>
<defs>
<clipPath id="clip0_151_250">
<rect width="1200" height="190.264" fill="white" transform="translate(-396.284 -151) rotate(22.469)"/>
</clipPath>
<clipPath id="clip1_151_250">
<rect width="1200" height="190.264" fill="white" transform="translate(-319.07 -136.224) rotate(22.469)"/>
</clipPath>
<clipPath id="clip2_151_250">
<rect width="1271" height="193.573" fill="white" transform="translate(924.001 634.463) rotate(-157.61)"/>
</clipPath>
<clipPath id="clip3_151_250">
<rect width="1271" height="193.573" fill="white" transform="translate(771.227 571.525) rotate(-157.61)"/>
</clipPath>
</defs>
</svg>
