<svg width="423" height="220" viewBox="0 0 423 220" fill="none" xmlns="http://www.w3.org/2000/svg">
<mask id="mask0_151_252" style="mask-type:alpha" maskUnits="userSpaceOnUse" x="0" y="0" width="423" height="220">
<rect width="423" height="219.503" fill="#D9D9D9"/>
</mask>
<g mask="url(#mask0_151_252)">
<g clip-path="url(#clip0_151_252)">
<path opacity="0.25" d="M-247.157 -164.627L-268.536 -112.935C-245.13 -74.224 -210.435 -46.8368 -170.188 -35.6445C-118.153 -21.1463 -58.7859 -33.1306 -7.21851 -17.2827C46.8009 -0.642906 88.8986 44.5435 130.176 85.6506C170.65 125.928 216.091 153.719 271.616 161.252C299.848 165.082 329.051 161.677 358.731 158.913C438.198 151.515 543.332 143.617 573.774 243.509L598.007 184.916L-247.157 -164.627Z" fill="#417505"/>
<path opacity="0.5" d="M-247.157 -164.627L-254.459 -146.972C-255.053 -119.612 -253.951 -93.0805 -246.845 -70.2777C-228.532 -11.4156 -182.212 7.38834 -131.28 3.05694C-104.654 0.796043 -76.9185 -8.55193 -49.7441 -15.2679C-12.149 -24.5657 31.1763 -41.9552 65.3397 -32.6252C92.194 -25.2458 110.924 -1.45378 120.208 31.3385C130.858 68.9455 135.466 118.726 159.481 143.043C182.98 166.872 219.866 159.269 254.598 150.631C289.33 141.993 325.545 128.973 356.828 136.614C401.597 147.48 426.044 195.161 457.846 229.185C475.117 247.652 496.551 253.261 522.648 246.178C543.475 240.55 568.892 230.087 588.105 208.858L598.007 184.916L-247.157 -164.627Z" fill="#417505"/>
<path d="M-247.157 -164.627L-249.757 -158.34C-168.81 -55.0695 -58.8812 6.50569 68.3109 21.5133C102.124 25.507 136.927 23.5804 170.407 29.1366C215.947 36.6853 243.975 75.5687 270.663 116.893C300.293 162.769 332.87 199.806 381.211 212.947C445.387 230.335 523.786 212.138 595.61 190.712L598.007 184.916L-247.157 -164.627Z" fill="#417505"/>
<g clip-path="url(#clip1_151_252)">
<path opacity="0.25" d="M-188.307 -153.365L-209.686 -101.673C-186.28 -62.9619 -151.585 -35.5747 -111.338 -24.3824C-59.3029 -9.88422 0.0638857 -21.8685 51.6313 -6.02058C105.651 10.6192 147.748 55.8056 189.026 96.9127C229.5 137.191 274.94 164.981 330.466 172.514C358.698 176.344 387.901 172.939 417.581 170.175C497.048 162.777 602.182 154.879 632.624 254.771L656.857 196.178L-188.307 -153.365Z" fill="#B2C42D"/>
<path opacity="0.5" d="M-188.307 -153.365L-195.609 -135.71C-196.203 -108.35 -195.101 -81.8185 -187.995 -59.0156C-169.682 -0.153508 -123.362 18.6504 -72.4305 14.319C-45.8038 12.0581 -18.0687 2.71016 9.10573 -4.00583C46.7008 -13.3036 90.0261 -30.6931 124.189 -21.3631C151.044 -13.9837 169.774 9.80831 179.058 42.6005C189.708 80.2076 194.316 129.989 218.331 154.305C241.829 178.134 278.715 170.531 313.448 161.893C348.18 153.255 384.395 140.235 415.677 147.876C460.447 158.742 484.894 206.423 516.696 240.447C533.967 258.914 555.401 264.523 581.498 257.44C602.325 251.812 627.742 241.349 646.955 220.12L656.857 196.178L-188.307 -153.365Z" fill="#B2C42D"/>
<path d="M-188.307 -153.365L-190.908 -147.078C-109.96 -43.8074 -0.0313807 17.7678 127.161 32.7754C160.974 36.7691 195.776 34.8425 229.257 40.3986C274.797 47.9474 302.824 86.8308 329.513 128.155C359.143 174.031 391.72 211.068 440.06 224.209C504.237 241.597 582.635 223.4 654.46 201.974L656.857 196.178L-188.307 -153.365Z" fill="#B2C42D"/>
</g>
</g>
<g clip-path="url(#clip2_151_252)">
<path opacity="0.25" d="M748.583 429.947L770.261 377.326C744.987 337.395 708.006 308.903 665.442 296.913C610.41 281.382 548.086 292.858 493.525 275.953C436.369 258.204 391.306 211.397 347.173 168.776C303.899 127.014 255.597 97.9671 197.002 89.5183C167.21 85.223 136.512 88.3199 105.301 90.7534C21.7351 97.2684 -88.8526 103.954 -122.525 1.31159L-147.097 60.9575L748.583 429.947Z" fill="#417505"/>
<path opacity="0.5" d="M748.583 429.947L755.987 411.975C756.169 383.98 754.58 356.811 746.728 333.379C726.492 272.891 677.409 253.03 623.844 256.786C595.84 258.745 566.784 267.944 538.275 274.456C498.835 283.472 453.491 300.693 417.363 290.69C388.964 282.78 368.855 258.181 358.548 224.495C346.725 185.864 341.067 134.853 315.385 109.646C290.253 84.9457 251.532 92.2368 215.096 100.615C178.659 108.994 140.732 121.838 107.666 113.601C60.344 101.885 33.8287 52.7595 -0.211892 17.5141C-18.6976 -1.61644 -41.36 -7.64163 -68.7281 -0.739514C-90.5697 4.74281 -117.167 15.1139 -137.057 36.5853L-147.097 60.9575L748.583 429.947Z" fill="#417505"/>
<path d="M748.583 429.947L751.219 423.547C664.305 316.776 547.546 252.293 413.359 235.241C377.686 230.704 341.067 232.213 305.72 226.081C257.64 217.749 227.497 177.581 198.724 134.932C166.778 87.5849 131.874 49.2444 80.7547 35.1526C12.8905 16.5028 -69.3758 34.0842 -144.667 55.0577L-147.097 60.9575L748.583 429.947Z" fill="#417505"/>
<g clip-path="url(#clip3_151_252)">
<path opacity="0.25" d="M628.161 377.358L649.839 324.737C624.565 284.806 587.585 256.314 545.02 244.324C489.989 228.793 427.664 240.269 373.103 223.363C315.947 205.614 270.884 158.808 226.751 116.187C183.478 74.4249 135.176 45.3779 76.5807 36.9291C46.7885 32.6338 16.0901 35.7307 -15.1209 38.1643C-98.6866 44.6792 -209.274 51.3644 -242.947 -51.2776L-267.519 8.36833L628.161 377.358Z" fill="#B2C42D"/>
<path opacity="0.5" d="M628.161 377.358L635.565 359.385C635.748 331.391 634.158 304.222 626.307 280.79C606.07 220.302 556.987 200.441 503.422 204.196C475.418 206.156 446.362 215.355 417.854 221.867C378.413 230.883 333.069 248.104 296.941 238.101C268.542 230.191 248.433 205.591 238.126 171.906C226.303 133.275 220.646 82.2639 194.963 57.0571C169.832 32.3565 131.111 39.6476 94.6741 48.0263C58.2375 56.4049 20.3107 69.249 -12.7556 61.0121C-60.0777 49.2957 -86.593 0.170339 -120.634 -35.075C-139.119 -54.2056 -161.782 -60.2308 -189.15 -53.3287C-210.991 -47.8464 -237.589 -37.4753 -257.478 -16.0039L-267.519 8.36833L628.161 377.358Z" fill="#B2C42D"/>
<path d="M628.161 377.358L630.798 370.958C543.883 264.186 427.124 199.704 292.937 182.652C257.264 178.115 220.646 179.624 185.298 173.492C137.219 165.16 107.075 124.991 78.302 82.3423C46.3568 34.9957 11.4522 -3.34476 -39.667 -17.4365C-107.531 -36.0864 -189.797 -18.505 -265.088 2.46853L-267.519 8.36833L628.161 377.358Z" fill="#B2C42D"/>
</g>
</g>
<path d="M-7.25824e-06 118.516L245.035 219.503L-7.25824e-06 219.503L-7.25824e-06 118.516Z" fill="#B2C42D"/>
<path d="M-7.25824e-06 118.516L245.035 219.503L-7.25824e-06 219.503L-7.25824e-06 118.516Z" fill="#B2C42D"/>
<path d="M423 115.087L147.859 5.76721e-05L423 5.76721e-05L423 115.087Z" fill="#B2C42D"/>
<path d="M423 115.087L147.859 5.76721e-05L423 5.76721e-05L423 115.087Z" fill="#B2C42D"/>
</g>
<mask id="path-16-outside-1_151_252" maskUnits="userSpaceOnUse" x="50" y="64" width="331" height="82" fill="black">
<rect fill="white" x="50" y="64" width="331" height="82"/>
<path d="M99.7564 94.496C105.132 94.56 109.196 94.784 111.948 95.168C114.7 95.552 116.684 96.256 117.9 97.28C119.18 98.24 119.82 99.744 119.82 101.792C119.82 103.776 119.212 105.28 117.996 106.304C116.78 107.264 114.796 107.936 112.044 108.32C109.356 108.704 105.356 108.96 100.044 109.088C100.108 110.24 100.14 111.84 100.14 113.888C104.556 115.616 108.108 117.792 110.796 120.416C113.548 123.04 114.924 125.888 114.924 128.96C114.924 130.944 114.316 132.576 113.1 133.856C111.884 135.136 110.188 135.776 108.012 135.776C106.604 135.776 105.1 135.392 103.5 134.624C101.9 133.792 99.9484 132.576 97.6444 130.976C96.2364 133.92 94.0604 136.16 91.1164 137.696C88.2364 139.232 84.3644 140 79.5004 140C74.2524 140 69.9964 138.784 66.7324 136.352C63.5324 133.92 61.9324 130.56 61.9324 126.272C61.9324 122.752 62.8924 119.84 64.8124 117.536C66.7964 115.168 69.3244 113.44 72.3964 112.352C75.5324 111.2 78.8924 110.624 82.4764 110.624H83.0524L82.8604 109.088C75.5644 109.024 70.2204 108.864 66.8284 108.608C63.5004 108.288 61.0684 107.648 59.5324 106.688C57.9964 105.664 57.2284 104.032 57.2284 101.792C57.2284 99.616 57.9644 98.048 59.4364 97.088C60.9084 96.064 63.2444 95.392 66.4444 95.072C69.7084 94.752 74.7004 94.56 81.4204 94.496L81.1324 91.904C74.5404 91.84 69.5164 91.648 66.0604 91.328C62.6684 90.944 60.1084 90.208 58.3804 89.12C56.7164 87.968 55.8844 86.24 55.8844 83.936C55.8844 81.632 56.7164 79.904 58.3804 78.752C60.0444 77.6 62.5724 76.864 65.9644 76.544C69.3564 76.16 74.2524 75.936 80.6524 75.872C81.2284 73.632 82.2844 72 83.8204 70.976C85.3564 69.952 87.1164 69.44 89.1004 69.44C91.4044 69.44 93.3244 69.92 94.8604 70.88C96.3964 71.84 97.5164 73.504 98.2204 75.872C104.044 75.936 108.524 76.192 111.66 76.64C114.86 77.024 117.228 77.792 118.764 78.944C120.364 80.032 121.164 81.696 121.164 83.936C121.164 86.048 120.428 87.68 118.956 88.832C117.548 89.92 115.34 90.688 112.332 91.136C109.324 91.52 105.1 91.776 99.6604 91.904C99.6604 93.056 99.6924 93.92 99.7564 94.496ZM84.2044 125.6C84.2044 124.768 84.1724 124.032 84.1084 123.392C83.2764 123.2 82.3484 123.104 81.3244 123.104C79.7244 123.104 78.4764 123.424 77.5804 124.064C76.7484 124.64 76.3324 125.408 76.3324 126.368C76.3324 127.328 76.6844 128.128 77.3884 128.768C78.0924 129.408 79.0204 129.728 80.1724 129.728C81.5804 129.728 82.6044 129.344 83.2444 128.576C83.8844 127.808 84.2044 126.816 84.2044 125.6ZM155.961 95.36L154.329 100.736C157.465 100.288 160.601 100.064 163.737 100.064C170.649 100.064 176.057 101.792 179.961 105.248C183.929 108.704 185.913 113.44 185.913 119.456C185.913 123.808 184.601 127.52 181.977 130.592C179.417 133.664 176.121 135.968 172.089 137.504C168.057 139.04 163.929 139.808 159.705 139.808C156.889 139.808 154.681 139.36 153.081 138.464C151.481 137.504 150.681 136.064 150.681 134.144C150.681 132.352 151.225 130.88 152.313 129.728C153.465 128.576 154.905 127.936 156.633 127.808C161.241 127.552 164.601 126.976 166.713 126.08C168.889 125.184 169.977 123.584 169.977 121.28C169.977 119.104 169.113 117.44 167.385 116.288C165.657 115.136 163.545 114.56 161.049 114.56C159.001 114.56 157.305 114.88 155.961 115.52C154.617 116.096 153.081 117.024 151.353 118.304C149.817 119.456 148.441 120.32 147.225 120.896C146.009 121.472 144.505 121.76 142.713 121.76C140.537 121.76 138.713 121.12 137.241 119.84C135.833 118.56 135.129 116.928 135.129 114.944C135.129 111.872 136.281 105.184 138.585 94.88C134.297 94.496 131.129 93.696 129.081 92.48C127.033 91.2 126.009 89.248 126.009 86.624C126.009 83.424 127.321 81.28 129.945 80.192C132.633 79.04 136.953 78.4 142.905 78.272C143.801 76.096 145.049 74.496 146.649 73.472C148.249 72.448 149.945 71.936 151.737 71.936C153.465 71.936 155.065 72.512 156.537 73.664C158.073 74.752 159.001 76.288 159.321 78.272H166.713C171.897 78.272 175.929 78.464 178.809 78.848C181.753 79.232 184.025 80.032 185.625 81.248C187.225 82.464 188.025 84.32 188.025 86.816C188.025 89.312 187.193 91.2 185.529 92.48C183.929 93.696 181.625 94.496 178.617 94.88C175.673 95.2 171.545 95.36 166.233 95.36H157.017H155.961ZM235.669 100.16C238.997 100.992 241.749 102.496 243.925 104.672C246.165 106.848 247.285 109.92 247.285 113.888C247.285 117.088 246.549 119.968 245.077 122.528C243.669 125.024 241.749 127.008 239.317 128.48C236.949 129.888 234.421 130.592 231.733 130.592C230.517 130.592 229.429 130.176 228.469 129.344C227.573 128.512 227.125 127.36 227.125 125.888C227.125 124.736 227.381 123.84 227.893 123.2C228.469 122.496 229.301 121.76 230.389 120.992C231.349 120.224 232.021 119.616 232.405 119.168C232.853 118.656 233.077 118.016 233.077 117.248C233.077 116.032 232.533 115.136 231.445 114.56C230.357 113.92 228.885 113.6 227.029 113.6C224.789 113.6 222.133 114.08 219.061 115.04L221.461 124.544L222.133 127.424C222.965 131.008 223.381 133.536 223.381 135.008C223.381 136.352 222.901 137.472 221.941 138.368C220.981 139.264 219.733 139.712 218.197 139.712C216.917 139.712 215.797 139.2 214.837 138.176C213.877 137.152 212.821 135.424 211.669 132.992C210.005 129.408 208.245 124.832 206.389 119.264C203.381 120.16 200.981 120.608 199.189 120.608C196.693 120.608 194.837 119.872 193.621 118.4C192.469 116.928 191.893 115.296 191.893 113.504C191.893 110.304 194.037 107.648 198.325 105.536C198.709 105.344 199.157 105.12 199.669 104.864C200.245 104.608 200.917 104.32 201.685 104C200.917 100.608 200.533 98.208 200.533 96.8C200.533 94.944 201.109 93.44 202.261 92.288C203.477 91.072 204.981 90.464 206.773 90.464C210.805 90.464 213.301 92.576 214.261 96.8L215.221 100.256C218.421 99.744 220.853 99.424 222.517 99.296C223.029 96.8 223.573 94.784 224.149 93.248C224.789 91.584 225.717 90.304 226.933 89.408C228.149 88.512 229.493 88.064 230.965 88.064C232.501 88.064 233.877 88.608 235.093 89.696C236.309 90.784 236.917 92.192 236.917 93.92C236.917 95.712 236.501 97.792 235.669 100.16ZM282.483 140.576C278.067 140.576 274.547 140.064 271.923 139.04C269.363 137.952 268.083 136.096 268.083 133.472C268.083 131.936 268.691 130.56 269.907 129.344C271.123 128.128 272.883 127.52 275.187 127.52C279.923 127.52 283.955 127.04 287.283 126.08C290.611 125.12 292.307 123.456 292.371 121.088C292.435 118.912 291.507 117.408 289.587 116.576C287.667 115.744 285.555 115.328 283.251 115.328C281.075 115.328 278.963 115.552 276.915 116C274.867 116.384 273.651 116.608 273.267 116.672C269.939 117.44 267.507 117.824 265.971 117.824C264.051 117.824 262.387 117.184 260.979 115.904C259.635 114.624 258.963 113.152 258.963 111.488C258.963 109.824 259.379 108.384 260.211 107.168C261.107 105.952 262.451 104.736 264.243 103.52C266.227 102.112 270.291 99.52 276.435 95.744L281.619 92.48H275.955C271.411 92.48 267.635 92.288 264.627 91.904C261.619 91.52 259.123 90.656 257.139 89.312C255.219 87.968 254.259 85.92 254.259 83.168C254.259 79.904 255.539 77.536 258.099 76.064C260.723 74.592 263.795 73.696 267.315 73.376C270.899 72.992 275.955 72.768 282.483 72.704H285.651C292.819 72.704 298.643 73.536 303.123 75.2C307.667 76.864 309.939 80.192 309.939 85.184C309.939 87.104 309.523 88.736 308.691 90.08C307.923 91.424 306.835 92.608 305.427 93.632C304.083 94.656 302.035 96 299.283 97.664C297.107 98.944 295.251 100.096 293.715 101.12C297.107 101.376 300.083 102.336 302.643 104C305.267 105.6 307.283 107.68 308.691 110.24C310.163 112.8 310.899 115.584 310.899 118.592C310.899 125.44 308.371 130.816 303.315 134.72C298.323 138.624 291.379 140.576 282.483 140.576ZM354.45 140.192C351.698 140.192 348.21 138.976 343.986 136.544C339.826 134.048 333.778 129.888 325.842 124.064C321.81 121.056 319.09 118.528 317.682 116.48C316.338 114.368 315.666 111.936 315.666 109.184C315.666 106.688 316.37 104.352 317.778 102.176C319.25 100 321.938 96.992 325.842 93.152C330.514 88.544 335.282 84.48 340.146 80.96C345.074 77.44 349.138 75.68 352.338 75.68C354.898 75.68 357.074 76.384 358.866 77.792C360.722 79.2 361.65 81.216 361.65 83.84C361.65 85.696 361.17 87.36 360.21 88.832C359.314 90.24 357.97 91.68 356.178 93.152C354.45 94.624 351.538 96.864 347.442 99.872C344.114 102.24 340.946 104.576 337.938 106.88C336.914 107.648 336.402 108.32 336.402 108.896C336.402 109.472 336.914 110.08 337.938 110.72C344.594 114.816 349.522 118.016 352.722 120.32C355.986 122.56 358.386 124.672 359.922 126.656C361.458 128.64 362.226 130.72 362.226 132.896C362.226 135.072 361.458 136.832 359.922 138.176C358.45 139.52 356.626 140.192 354.45 140.192ZM358.482 113.12C356.69 113.12 355.41 112.416 354.642 111.008C353.938 109.536 353.586 107.36 353.586 104.48C353.586 101.984 353.938 100.096 354.642 98.816C355.41 97.472 356.69 96.8 358.482 96.8C361.874 96.8 363.57 99.392 363.57 104.576C363.57 107.392 363.154 109.536 362.322 111.008C361.554 112.416 360.274 113.12 358.482 113.12ZM370.386 113.12C368.594 113.12 367.346 112.416 366.642 111.008C366.002 109.536 365.682 107.456 365.682 104.768C365.682 99.456 367.314 96.8 370.578 96.8C374.034 96.8 375.762 99.264 375.762 104.192C375.762 110.144 373.97 113.12 370.386 113.12Z"/>
</mask>
<path d="M99.7564 94.496C105.132 94.56 109.196 94.784 111.948 95.168C114.7 95.552 116.684 96.256 117.9 97.28C119.18 98.24 119.82 99.744 119.82 101.792C119.82 103.776 119.212 105.28 117.996 106.304C116.78 107.264 114.796 107.936 112.044 108.32C109.356 108.704 105.356 108.96 100.044 109.088C100.108 110.24 100.14 111.84 100.14 113.888C104.556 115.616 108.108 117.792 110.796 120.416C113.548 123.04 114.924 125.888 114.924 128.96C114.924 130.944 114.316 132.576 113.1 133.856C111.884 135.136 110.188 135.776 108.012 135.776C106.604 135.776 105.1 135.392 103.5 134.624C101.9 133.792 99.9484 132.576 97.6444 130.976C96.2364 133.92 94.0604 136.16 91.1164 137.696C88.2364 139.232 84.3644 140 79.5004 140C74.2524 140 69.9964 138.784 66.7324 136.352C63.5324 133.92 61.9324 130.56 61.9324 126.272C61.9324 122.752 62.8924 119.84 64.8124 117.536C66.7964 115.168 69.3244 113.44 72.3964 112.352C75.5324 111.2 78.8924 110.624 82.4764 110.624H83.0524L82.8604 109.088C75.5644 109.024 70.2204 108.864 66.8284 108.608C63.5004 108.288 61.0684 107.648 59.5324 106.688C57.9964 105.664 57.2284 104.032 57.2284 101.792C57.2284 99.616 57.9644 98.048 59.4364 97.088C60.9084 96.064 63.2444 95.392 66.4444 95.072C69.7084 94.752 74.7004 94.56 81.4204 94.496L81.1324 91.904C74.5404 91.84 69.5164 91.648 66.0604 91.328C62.6684 90.944 60.1084 90.208 58.3804 89.12C56.7164 87.968 55.8844 86.24 55.8844 83.936C55.8844 81.632 56.7164 79.904 58.3804 78.752C60.0444 77.6 62.5724 76.864 65.9644 76.544C69.3564 76.16 74.2524 75.936 80.6524 75.872C81.2284 73.632 82.2844 72 83.8204 70.976C85.3564 69.952 87.1164 69.44 89.1004 69.44C91.4044 69.44 93.3244 69.92 94.8604 70.88C96.3964 71.84 97.5164 73.504 98.2204 75.872C104.044 75.936 108.524 76.192 111.66 76.64C114.86 77.024 117.228 77.792 118.764 78.944C120.364 80.032 121.164 81.696 121.164 83.936C121.164 86.048 120.428 87.68 118.956 88.832C117.548 89.92 115.34 90.688 112.332 91.136C109.324 91.52 105.1 91.776 99.6604 91.904C99.6604 93.056 99.6924 93.92 99.7564 94.496ZM84.2044 125.6C84.2044 124.768 84.1724 124.032 84.1084 123.392C83.2764 123.2 82.3484 123.104 81.3244 123.104C79.7244 123.104 78.4764 123.424 77.5804 124.064C76.7484 124.64 76.3324 125.408 76.3324 126.368C76.3324 127.328 76.6844 128.128 77.3884 128.768C78.0924 129.408 79.0204 129.728 80.1724 129.728C81.5804 129.728 82.6044 129.344 83.2444 128.576C83.8844 127.808 84.2044 126.816 84.2044 125.6ZM155.961 95.36L154.329 100.736C157.465 100.288 160.601 100.064 163.737 100.064C170.649 100.064 176.057 101.792 179.961 105.248C183.929 108.704 185.913 113.44 185.913 119.456C185.913 123.808 184.601 127.52 181.977 130.592C179.417 133.664 176.121 135.968 172.089 137.504C168.057 139.04 163.929 139.808 159.705 139.808C156.889 139.808 154.681 139.36 153.081 138.464C151.481 137.504 150.681 136.064 150.681 134.144C150.681 132.352 151.225 130.88 152.313 129.728C153.465 128.576 154.905 127.936 156.633 127.808C161.241 127.552 164.601 126.976 166.713 126.08C168.889 125.184 169.977 123.584 169.977 121.28C169.977 119.104 169.113 117.44 167.385 116.288C165.657 115.136 163.545 114.56 161.049 114.56C159.001 114.56 157.305 114.88 155.961 115.52C154.617 116.096 153.081 117.024 151.353 118.304C149.817 119.456 148.441 120.32 147.225 120.896C146.009 121.472 144.505 121.76 142.713 121.76C140.537 121.76 138.713 121.12 137.241 119.84C135.833 118.56 135.129 116.928 135.129 114.944C135.129 111.872 136.281 105.184 138.585 94.88C134.297 94.496 131.129 93.696 129.081 92.48C127.033 91.2 126.009 89.248 126.009 86.624C126.009 83.424 127.321 81.28 129.945 80.192C132.633 79.04 136.953 78.4 142.905 78.272C143.801 76.096 145.049 74.496 146.649 73.472C148.249 72.448 149.945 71.936 151.737 71.936C153.465 71.936 155.065 72.512 156.537 73.664C158.073 74.752 159.001 76.288 159.321 78.272H166.713C171.897 78.272 175.929 78.464 178.809 78.848C181.753 79.232 184.025 80.032 185.625 81.248C187.225 82.464 188.025 84.32 188.025 86.816C188.025 89.312 187.193 91.2 185.529 92.48C183.929 93.696 181.625 94.496 178.617 94.88C175.673 95.2 171.545 95.36 166.233 95.36H157.017H155.961ZM235.669 100.16C238.997 100.992 241.749 102.496 243.925 104.672C246.165 106.848 247.285 109.92 247.285 113.888C247.285 117.088 246.549 119.968 245.077 122.528C243.669 125.024 241.749 127.008 239.317 128.48C236.949 129.888 234.421 130.592 231.733 130.592C230.517 130.592 229.429 130.176 228.469 129.344C227.573 128.512 227.125 127.36 227.125 125.888C227.125 124.736 227.381 123.84 227.893 123.2C228.469 122.496 229.301 121.76 230.389 120.992C231.349 120.224 232.021 119.616 232.405 119.168C232.853 118.656 233.077 118.016 233.077 117.248C233.077 116.032 232.533 115.136 231.445 114.56C230.357 113.92 228.885 113.6 227.029 113.6C224.789 113.6 222.133 114.08 219.061 115.04L221.461 124.544L222.133 127.424C222.965 131.008 223.381 133.536 223.381 135.008C223.381 136.352 222.901 137.472 221.941 138.368C220.981 139.264 219.733 139.712 218.197 139.712C216.917 139.712 215.797 139.2 214.837 138.176C213.877 137.152 212.821 135.424 211.669 132.992C210.005 129.408 208.245 124.832 206.389 119.264C203.381 120.16 200.981 120.608 199.189 120.608C196.693 120.608 194.837 119.872 193.621 118.4C192.469 116.928 191.893 115.296 191.893 113.504C191.893 110.304 194.037 107.648 198.325 105.536C198.709 105.344 199.157 105.12 199.669 104.864C200.245 104.608 200.917 104.32 201.685 104C200.917 100.608 200.533 98.208 200.533 96.8C200.533 94.944 201.109 93.44 202.261 92.288C203.477 91.072 204.981 90.464 206.773 90.464C210.805 90.464 213.301 92.576 214.261 96.8L215.221 100.256C218.421 99.744 220.853 99.424 222.517 99.296C223.029 96.8 223.573 94.784 224.149 93.248C224.789 91.584 225.717 90.304 226.933 89.408C228.149 88.512 229.493 88.064 230.965 88.064C232.501 88.064 233.877 88.608 235.093 89.696C236.309 90.784 236.917 92.192 236.917 93.92C236.917 95.712 236.501 97.792 235.669 100.16ZM282.483 140.576C278.067 140.576 274.547 140.064 271.923 139.04C269.363 137.952 268.083 136.096 268.083 133.472C268.083 131.936 268.691 130.56 269.907 129.344C271.123 128.128 272.883 127.52 275.187 127.52C279.923 127.52 283.955 127.04 287.283 126.08C290.611 125.12 292.307 123.456 292.371 121.088C292.435 118.912 291.507 117.408 289.587 116.576C287.667 115.744 285.555 115.328 283.251 115.328C281.075 115.328 278.963 115.552 276.915 116C274.867 116.384 273.651 116.608 273.267 116.672C269.939 117.44 267.507 117.824 265.971 117.824C264.051 117.824 262.387 117.184 260.979 115.904C259.635 114.624 258.963 113.152 258.963 111.488C258.963 109.824 259.379 108.384 260.211 107.168C261.107 105.952 262.451 104.736 264.243 103.52C266.227 102.112 270.291 99.52 276.435 95.744L281.619 92.48H275.955C271.411 92.48 267.635 92.288 264.627 91.904C261.619 91.52 259.123 90.656 257.139 89.312C255.219 87.968 254.259 85.92 254.259 83.168C254.259 79.904 255.539 77.536 258.099 76.064C260.723 74.592 263.795 73.696 267.315 73.376C270.899 72.992 275.955 72.768 282.483 72.704H285.651C292.819 72.704 298.643 73.536 303.123 75.2C307.667 76.864 309.939 80.192 309.939 85.184C309.939 87.104 309.523 88.736 308.691 90.08C307.923 91.424 306.835 92.608 305.427 93.632C304.083 94.656 302.035 96 299.283 97.664C297.107 98.944 295.251 100.096 293.715 101.12C297.107 101.376 300.083 102.336 302.643 104C305.267 105.6 307.283 107.68 308.691 110.24C310.163 112.8 310.899 115.584 310.899 118.592C310.899 125.44 308.371 130.816 303.315 134.72C298.323 138.624 291.379 140.576 282.483 140.576ZM354.45 140.192C351.698 140.192 348.21 138.976 343.986 136.544C339.826 134.048 333.778 129.888 325.842 124.064C321.81 121.056 319.09 118.528 317.682 116.48C316.338 114.368 315.666 111.936 315.666 109.184C315.666 106.688 316.37 104.352 317.778 102.176C319.25 100 321.938 96.992 325.842 93.152C330.514 88.544 335.282 84.48 340.146 80.96C345.074 77.44 349.138 75.68 352.338 75.68C354.898 75.68 357.074 76.384 358.866 77.792C360.722 79.2 361.65 81.216 361.65 83.84C361.65 85.696 361.17 87.36 360.21 88.832C359.314 90.24 357.97 91.68 356.178 93.152C354.45 94.624 351.538 96.864 347.442 99.872C344.114 102.24 340.946 104.576 337.938 106.88C336.914 107.648 336.402 108.32 336.402 108.896C336.402 109.472 336.914 110.08 337.938 110.72C344.594 114.816 349.522 118.016 352.722 120.32C355.986 122.56 358.386 124.672 359.922 126.656C361.458 128.64 362.226 130.72 362.226 132.896C362.226 135.072 361.458 136.832 359.922 138.176C358.45 139.52 356.626 140.192 354.45 140.192ZM358.482 113.12C356.69 113.12 355.41 112.416 354.642 111.008C353.938 109.536 353.586 107.36 353.586 104.48C353.586 101.984 353.938 100.096 354.642 98.816C355.41 97.472 356.69 96.8 358.482 96.8C361.874 96.8 363.57 99.392 363.57 104.576C363.57 107.392 363.154 109.536 362.322 111.008C361.554 112.416 360.274 113.12 358.482 113.12ZM370.386 113.12C368.594 113.12 367.346 112.416 366.642 111.008C366.002 109.536 365.682 107.456 365.682 104.768C365.682 99.456 367.314 96.8 370.578 96.8C374.034 96.8 375.762 99.264 375.762 104.192C375.762 110.144 373.97 113.12 370.386 113.12Z" fill="#DCC482"/>
<path d="M99.7564 94.496L94.787 95.0481L95.2753 99.443L99.6969 99.4956L99.7564 94.496ZM111.948 95.168L111.257 100.12L111.257 100.12L111.948 95.168ZM117.9 97.28L114.68 101.105L114.788 101.195L114.9 101.28L117.9 97.28ZM117.996 106.304L121.095 110.228L121.157 110.179L121.217 110.129L117.996 106.304ZM112.044 108.32L111.353 103.368L111.345 103.369L111.337 103.37L112.044 108.32ZM100.044 109.088L99.9239 104.089L94.7659 104.214L95.0521 109.365L100.044 109.088ZM100.14 113.888H95.1404V117.301L98.3184 118.544L100.14 113.888ZM110.796 120.416L107.304 123.994L107.325 124.014L107.346 124.035L110.796 120.416ZM113.1 133.856L116.725 137.3L113.1 133.856ZM103.5 134.624L101.194 139.06L101.265 139.097L101.337 139.132L103.5 134.624ZM97.6444 130.976L100.496 126.869L95.6693 123.517L93.1337 128.819L97.6444 130.976ZM91.1164 137.696L88.8035 133.263L88.7834 133.274L88.7634 133.284L91.1164 137.696ZM66.7324 136.352L63.707 140.333L63.7259 140.347L63.745 140.361L66.7324 136.352ZM64.8124 117.536L60.9798 114.325L60.9713 114.335L64.8124 117.536ZM72.3964 112.352L74.0656 117.065L74.0931 117.055L74.1205 117.045L72.3964 112.352ZM83.0524 110.624V115.624H88.7163L88.0138 110.004L83.0524 110.624ZM82.8604 109.088L87.8218 108.468L87.2791 104.127L82.9042 104.088L82.8604 109.088ZM66.8284 108.608L66.3498 113.585L66.4009 113.59L66.4521 113.594L66.8284 108.608ZM59.5324 106.688L56.7589 110.848L56.82 110.889L56.8824 110.928L59.5324 106.688ZM59.4364 97.088L62.1677 101.276L62.2303 101.235L62.2917 101.193L59.4364 97.088ZM66.4444 95.072L65.9565 90.0958L65.9469 90.0968L66.4444 95.072ZM81.4204 94.496L81.468 99.4958L87.0008 99.4431L86.3898 93.9438L81.4204 94.496ZM81.1324 91.904L86.1018 91.3518L85.6124 86.9473L81.1809 86.9042L81.1324 91.904ZM66.0604 91.328L65.4979 96.2963L65.5486 96.302L65.5994 96.3067L66.0604 91.328ZM58.3804 89.12L55.5343 93.231L55.624 93.293L55.7163 93.3512L58.3804 89.12ZM58.3804 78.752L55.5343 74.641L58.3804 78.752ZM65.9644 76.544L66.434 81.5219L66.4805 81.5175L66.5268 81.5123L65.9644 76.544ZM80.6524 75.872L80.7024 80.8717L84.5393 80.8334L85.4948 77.1172L80.6524 75.872ZM83.8204 70.976L81.0469 66.8157L81.0469 66.8157L83.8204 70.976ZM94.8604 70.88L97.5104 66.64L97.5104 66.64L94.8604 70.88ZM98.2204 75.872L93.4277 77.2968L94.4784 80.8312L98.1654 80.8717L98.2204 75.872ZM111.66 76.64L110.953 81.5897L111.009 81.5977L111.065 81.6044L111.66 76.64ZM118.764 78.944L115.764 82.944L115.857 83.0135L115.953 83.0786L118.764 78.944ZM118.956 88.832L122.014 92.7884L122.026 92.779L122.038 92.7695L118.956 88.832ZM112.332 91.136L112.966 96.0957L113.017 96.0891L113.069 96.0815L112.332 91.136ZM99.6604 91.904L99.5428 86.9054L94.6604 87.0203V91.904H99.6604ZM84.1084 123.392L89.0836 122.894L88.7267 119.326L85.2327 118.52L84.1084 123.392ZM77.5804 124.064L80.4264 128.175L80.4567 128.154L80.4866 128.133L77.5804 124.064ZM83.2444 128.576L79.4033 125.375H79.4033L83.2444 128.576ZM99.7564 94.496L99.6969 99.4956C105.018 99.559 108.827 99.7809 111.257 100.12L111.948 95.168L112.639 90.216C109.566 89.7871 105.247 89.561 99.8159 89.4963L99.7564 94.496ZM111.948 95.168L111.257 100.12C113.687 100.459 114.543 100.989 114.68 101.105L117.9 97.28L121.121 93.4554C118.826 91.5229 115.714 90.6449 112.639 90.216L111.948 95.168ZM117.9 97.28L114.9 101.28C114.875 101.261 114.835 101.225 114.796 101.175C114.758 101.126 114.741 101.09 114.74 101.086C114.739 101.083 114.82 101.276 114.82 101.792H119.82H124.82C124.82 98.655 123.782 95.4415 120.9 93.28L117.9 97.28ZM119.82 101.792H114.82C114.82 102.281 114.745 102.494 114.729 102.534C114.721 102.553 114.723 102.543 114.74 102.52C114.756 102.497 114.772 102.482 114.776 102.479L117.996 106.304L121.217 110.129C123.834 107.925 124.82 104.853 124.82 101.792H119.82ZM117.996 106.304L114.898 102.38C114.736 102.507 113.826 103.023 111.353 103.368L112.044 108.32L112.735 113.272C115.767 112.849 118.824 112.021 121.095 110.228L117.996 106.304ZM112.044 108.32L111.337 103.37C108.949 103.711 105.188 103.963 99.9239 104.089L100.044 109.088L100.165 114.087C105.525 113.957 109.763 113.697 112.751 113.27L112.044 108.32ZM100.044 109.088L95.0521 109.365C95.1085 110.381 95.1404 111.874 95.1404 113.888H100.14H105.14C105.14 111.806 105.108 110.099 105.037 108.811L100.044 109.088ZM100.14 113.888L98.3184 118.544C102.269 120.09 105.203 121.943 107.304 123.994L110.796 120.416L114.289 116.838C111.014 113.641 106.844 111.142 101.962 109.232L100.14 113.888ZM110.796 120.416L107.346 124.035C109.36 125.955 109.924 127.568 109.924 128.96H114.924H119.924C119.924 124.208 117.737 120.125 114.247 116.797L110.796 120.416ZM114.924 128.96H109.924C109.924 129.834 109.697 130.179 109.475 130.412L113.1 133.856L116.725 137.3C118.936 134.973 119.924 132.054 119.924 128.96H114.924ZM113.1 133.856L109.475 130.412C109.415 130.476 109.159 130.776 108.012 130.776V135.776V140.776C111.218 140.776 114.354 139.796 116.725 137.3L113.1 133.856ZM108.012 135.776V130.776C107.522 130.776 106.76 130.642 105.664 130.116L103.5 134.624L101.337 139.132C103.441 140.142 105.686 140.776 108.012 140.776V135.776ZM103.5 134.624L105.807 130.188C104.469 129.492 102.71 128.407 100.496 126.869L97.6444 130.976L94.7924 135.083C97.1866 136.745 99.3318 138.092 101.194 139.06L103.5 134.624ZM97.6444 130.976L93.1337 128.819C92.2015 130.768 90.8061 132.218 88.8035 133.263L91.1164 137.696L93.4292 142.129C97.3147 140.102 100.271 137.072 102.155 133.133L97.6444 130.976ZM91.1164 137.696L88.7634 133.284C86.8763 134.291 83.9147 135 79.5004 135V140V145C84.8141 145 89.5964 144.173 93.4693 142.108L91.1164 137.696ZM79.5004 140V135C75.0162 135 71.8997 133.967 69.7198 132.343L66.7324 136.352L63.745 140.361C68.0931 143.601 73.4885 145 79.5004 145V140ZM66.7324 136.352L69.7578 132.371C67.8954 130.956 66.9324 129.119 66.9324 126.272H61.9324H56.9324C56.9324 132.001 59.1694 136.884 63.707 140.333L66.7324 136.352ZM61.9324 126.272H66.9324C66.9324 123.708 67.6083 121.991 68.6535 120.737L64.8124 117.536L60.9713 114.335C58.1765 117.689 56.9324 121.796 56.9324 126.272H61.9324ZM64.8124 117.536L68.645 120.747C70.0231 119.102 71.7878 117.872 74.0656 117.065L72.3964 112.352L70.7271 107.639C66.8609 109.008 63.5697 111.234 60.9798 114.325L64.8124 117.536ZM72.3964 112.352L74.1205 117.045C76.6653 116.111 79.4376 115.624 82.4764 115.624V110.624V105.624C78.3471 105.624 74.3995 106.289 70.6723 107.659L72.3964 112.352ZM82.4764 110.624V115.624H83.0524V110.624V105.624H82.4764V110.624ZM83.0524 110.624L88.0138 110.004L87.8218 108.468L82.8604 109.088L77.899 109.708L78.091 111.244L83.0524 110.624ZM82.8604 109.088L82.9042 104.088C75.6236 104.024 70.4201 103.865 67.2047 103.622L66.8284 108.608L66.4521 113.594C70.0206 113.863 75.5051 114.024 82.8165 114.088L82.8604 109.088ZM66.8284 108.608L67.3069 103.631C64.2032 103.333 62.716 102.781 62.1824 102.448L59.5324 106.688L56.8824 110.928C59.4208 112.514 62.7976 113.243 66.3498 113.585L66.8284 108.608ZM59.5324 106.688L62.3059 102.528C62.2758 102.508 62.2816 102.507 62.3013 102.53C62.3216 102.553 62.3303 102.571 62.3285 102.567C62.3242 102.558 62.2284 102.35 62.2284 101.792H57.2284H52.2284C52.2284 105.295 53.5233 108.691 56.7589 110.848L59.5324 106.688ZM57.2284 101.792H62.2284C62.2284 101.256 62.3199 101.08 62.3066 101.109C62.299 101.125 62.2764 101.165 62.2362 101.211C62.1963 101.257 62.166 101.277 62.1677 101.276L59.4364 97.088L56.705 92.8999C53.4717 95.0087 52.2284 98.3859 52.2284 101.792H57.2284ZM59.4364 97.088L62.2917 101.193C62.7078 100.903 64.0135 100.34 66.9419 100.047L66.4444 95.072L65.9469 90.0968C62.4753 90.444 59.109 91.2249 56.5811 92.9835L59.4364 97.088ZM66.4444 95.072L66.9322 100.048C69.9664 99.7507 74.7763 99.5595 81.468 99.4958L81.4204 94.496L81.3728 89.4962C74.6245 89.5605 69.4503 89.7533 65.9565 90.0959L66.4444 95.072ZM81.4204 94.496L86.3898 93.9438L86.1018 91.3518L81.1324 91.904L76.163 92.4562L76.451 95.0482L81.4204 94.496ZM81.1324 91.904L81.1809 86.9042C74.6278 86.8406 69.7683 86.6499 66.5214 86.3493L66.0604 91.328L65.5994 96.3067C69.2645 96.6461 74.4529 96.8394 81.0838 96.9038L81.1324 91.904ZM66.0604 91.328L66.6228 86.3597C63.5393 86.0107 61.8461 85.3936 61.0444 84.8888L58.3804 89.12L55.7163 93.3512C58.3707 95.0224 61.7975 95.8773 65.4979 96.2963L66.0604 91.328ZM58.3804 89.12L61.2264 85.009C61.0654 84.8975 61.0329 84.8314 61.0134 84.7909C60.9823 84.7263 60.8844 84.4862 60.8844 83.936H55.8844H50.8844C50.8844 87.6174 52.3184 91.0045 55.5343 93.231L58.3804 89.12ZM55.8844 83.936H60.8844C60.8844 83.3858 60.9823 83.1457 61.0134 83.0811C61.0329 83.0406 61.0654 82.9745 61.2264 82.863L58.3804 78.752L55.5343 74.641C52.3184 76.8675 50.8844 80.2546 50.8844 83.936H55.8844ZM58.3804 78.752L61.2264 82.863C61.8571 82.4263 63.3815 81.8099 66.434 81.5219L65.9644 76.544L65.4948 71.5661C61.7632 71.9181 58.2316 72.7737 55.5343 74.641L58.3804 78.752ZM65.9644 76.544L66.5268 81.5123C69.6607 81.1575 74.3533 80.9352 80.7024 80.8717L80.6524 75.872L80.6024 70.8722C74.1514 70.9368 69.0521 71.1625 65.4019 71.5757L65.9644 76.544ZM80.6524 75.872L85.4948 77.1172C85.8445 75.7572 86.3238 75.3163 86.5939 75.1362L83.8204 70.976L81.0469 66.8157C78.2449 68.6837 76.6122 71.5068 75.8099 74.6268L80.6524 75.872ZM83.8204 70.976L86.5939 75.1362C87.2465 74.7012 88.0262 74.44 89.1004 74.44V69.44V64.44C86.2066 64.44 83.4663 65.2028 81.0469 66.8157L83.8204 70.976ZM89.1004 69.44V74.44C90.7195 74.44 91.6588 74.7752 92.2104 75.12L94.8604 70.88L97.5104 66.64C94.99 65.0648 92.0892 64.44 89.1004 64.44V69.44ZM94.8604 70.88L92.2104 75.12C92.3886 75.2314 92.9438 75.6693 93.4277 77.2968L98.2204 75.872L103.013 74.4471C102.089 71.3387 100.404 68.4486 97.5104 66.64L94.8604 70.88ZM98.2204 75.872L98.1654 80.8717C103.92 80.9349 108.142 81.1882 110.953 81.5897L111.66 76.64L112.367 71.6903C108.906 71.1958 104.169 70.9371 98.2753 70.8723L98.2204 75.872ZM111.66 76.64L111.065 81.6044C113.916 81.9465 115.258 82.5643 115.764 82.944L118.764 78.944L121.764 74.944C119.199 73.0197 115.805 72.1015 112.256 71.6756L111.66 76.64ZM118.764 78.944L115.953 83.0786C116.02 83.1243 116.044 83.1515 116.046 83.1543C116.048 83.156 116.05 83.1586 116.058 83.1745C116.071 83.2017 116.164 83.4087 116.164 83.936H121.164H126.164C126.164 80.3427 124.777 76.9862 121.576 74.8094L118.764 78.944ZM121.164 83.936H116.164C116.164 84.4091 116.083 84.6242 116.054 84.6885C116.034 84.734 116.003 84.7944 115.875 84.8945L118.956 88.832L122.038 92.7695C124.889 90.5382 126.164 87.3587 126.164 83.936H121.164ZM118.956 88.832L115.899 84.8756C115.49 85.1917 114.283 85.7903 111.596 86.1905L112.332 91.136L113.069 96.0815C116.398 95.5857 119.607 94.6483 122.014 92.7884L118.956 88.832ZM112.332 91.136L111.699 86.1763C108.946 86.5277 104.923 86.7788 99.5428 86.9054L99.6604 91.904L99.778 96.9026C105.278 96.7732 109.703 96.5123 112.966 96.0957L112.332 91.136ZM99.6604 91.904H94.6604C94.6604 93.098 94.6913 94.1874 94.787 95.0481L99.7564 94.496L104.726 93.9438C104.693 93.6526 104.66 93.014 104.66 91.904H99.6604ZM84.2044 125.6H89.2044C89.2044 124.647 89.1681 123.739 89.0836 122.894L84.1084 123.392L79.1332 123.89C79.1767 124.325 79.2044 124.889 79.2044 125.6H84.2044ZM84.1084 123.392L85.2327 118.52C83.9676 118.228 82.6544 118.104 81.3244 118.104V123.104V128.104C82.0423 128.104 82.5852 128.172 82.9841 128.264L84.1084 123.392ZM81.3244 123.104V118.104C79.1341 118.104 76.7237 118.531 74.6742 119.995L77.5804 124.064L80.4866 128.133C80.3548 128.227 80.3042 128.22 80.4303 128.187C80.5647 128.153 80.8469 128.104 81.3244 128.104V123.104ZM77.5804 124.064L74.7343 119.953C72.6398 121.403 71.3324 123.665 71.3324 126.368H76.3324H81.3324C81.3324 126.635 81.2672 127.036 81.0408 127.453C80.8198 127.861 80.5534 128.087 80.4264 128.175L77.5804 124.064ZM76.3324 126.368H71.3324C71.3324 128.722 72.268 130.87 74.025 132.468L77.3884 128.768L80.7517 125.068C80.8713 125.177 81.0428 125.379 81.173 125.674C81.3026 125.969 81.3324 126.223 81.3324 126.368H76.3324ZM77.3884 128.768L74.025 132.468C75.8349 134.113 78.0524 134.728 80.1724 134.728V129.728V124.728C80.057 124.728 80.0998 124.712 80.2423 124.761C80.399 124.815 80.5856 124.917 80.7517 125.068L77.3884 128.768ZM80.1724 129.728V134.728C82.4321 134.728 85.154 134.095 87.0855 131.777L83.2444 128.576L79.4033 125.375C79.6895 125.032 80.0193 124.841 80.2408 124.758C80.4256 124.689 80.4409 124.728 80.1724 124.728V129.728ZM83.2444 128.576L87.0855 131.777C88.6268 129.927 89.2044 127.723 89.2044 125.6H84.2044H79.2044C79.2044 125.772 79.1818 125.796 79.2058 125.721C79.2179 125.683 79.2395 125.629 79.2749 125.564C79.3105 125.498 79.3541 125.434 79.4033 125.375L83.2444 128.576ZM155.961 95.36V90.36H152.254L151.177 93.9076L155.961 95.36ZM154.329 100.736L149.545 99.2836L147.264 106.796L155.036 105.686L154.329 100.736ZM179.961 105.248L176.647 108.992L176.662 109.005L176.677 109.018L179.961 105.248ZM181.977 130.592L178.176 127.345L178.156 127.368L178.136 127.391L181.977 130.592ZM172.089 137.504L170.309 132.832L172.089 137.504ZM153.081 138.464L150.509 142.751L150.573 142.79L150.638 142.827L153.081 138.464ZM152.313 129.728L148.778 126.192L148.727 126.243L148.678 126.295L152.313 129.728ZM156.633 127.808L156.356 122.816L156.31 122.818L156.264 122.822L156.633 127.808ZM166.713 126.08L164.81 121.457L164.785 121.467L164.761 121.477L166.713 126.08ZM167.385 116.288L170.159 112.128L167.385 116.288ZM155.961 115.52L157.931 120.116L158.022 120.077L158.111 120.034L155.961 115.52ZM151.353 118.304L148.377 114.286L148.365 114.295L148.353 114.304L151.353 118.304ZM147.225 120.896L145.085 116.377V116.377L147.225 120.896ZM137.241 119.84L133.878 123.54L133.919 123.577L133.96 123.613L137.241 119.84ZM138.585 94.88L143.465 95.9711L144.709 90.4083L139.031 89.8999L138.585 94.88ZM129.081 92.48L126.431 96.72L126.48 96.7502L126.529 96.7793L129.081 92.48ZM129.945 80.192L131.86 84.8107L131.888 84.7994L131.915 84.7877L129.945 80.192ZM142.905 78.272L143.013 83.2708L146.283 83.2005L147.529 80.1757L142.905 78.272ZM146.649 73.472L149.345 77.6834L149.345 77.6834L146.649 73.472ZM156.537 73.664L153.456 77.6015L153.55 77.6751L153.647 77.7441L156.537 73.664ZM159.321 78.272L154.385 79.0682L155.063 83.272H159.321V78.272ZM178.809 78.848L178.149 83.8041L178.156 83.8051L178.163 83.806L178.809 78.848ZM185.529 92.48L188.555 96.4608L188.566 96.452L188.578 96.4431L185.529 92.48ZM178.617 94.88L179.158 99.8507L179.204 99.8457L179.251 99.8397L178.617 94.88ZM155.961 95.36L151.177 93.9076L149.545 99.2836L154.329 100.736L159.114 102.188L160.746 96.8124L155.961 95.36ZM154.329 100.736L155.036 105.686C157.941 105.271 160.84 105.064 163.737 105.064V100.064V95.064C160.362 95.064 156.99 95.3051 153.622 95.7863L154.329 100.736ZM163.737 100.064V105.064C169.833 105.064 173.921 106.578 176.647 108.992L179.961 105.248L183.276 101.504C178.194 97.0059 171.466 95.064 163.737 95.064V100.064ZM179.961 105.248L176.677 109.018C179.393 111.383 180.913 114.656 180.913 119.456H185.913H190.913C190.913 112.224 188.466 106.025 183.245 101.478L179.961 105.248ZM185.913 119.456H180.913C180.913 122.717 179.964 125.251 178.176 127.345L181.977 130.592L185.779 133.839C189.239 129.789 190.913 124.899 190.913 119.456H185.913ZM181.977 130.592L178.136 127.391C176.169 129.752 173.605 131.576 170.309 132.832L172.089 137.504L173.869 142.176C178.638 140.36 182.666 137.576 185.818 133.793L181.977 130.592ZM172.089 137.504L170.309 132.832C166.833 134.156 163.308 134.808 159.705 134.808V139.808V144.808C164.551 144.808 169.281 143.924 173.869 142.176L172.089 137.504ZM159.705 139.808V134.808C157.326 134.808 156.082 134.414 155.524 134.101L153.081 138.464L150.638 142.827C153.281 144.306 156.453 144.808 159.705 144.808V139.808ZM153.081 138.464L155.654 134.177C155.612 134.151 155.586 134.132 155.573 134.123C155.56 134.113 155.559 134.111 155.567 134.118C155.575 134.126 155.588 134.141 155.604 134.162C155.621 134.184 155.637 134.209 155.652 134.236C155.667 134.263 155.678 134.287 155.686 134.307C155.693 134.326 155.696 134.337 155.695 134.336C155.695 134.335 155.681 134.277 155.681 134.144H150.681H145.681C145.681 137.758 147.35 140.856 150.509 142.751L153.081 138.464ZM150.681 134.144H155.681C155.681 133.448 155.854 133.262 155.948 133.161L152.313 129.728L148.678 126.295C146.597 128.498 145.681 131.256 145.681 134.144H150.681ZM152.313 129.728L155.849 133.264C156.097 133.016 156.387 132.84 157.003 132.794L156.633 127.808L156.264 122.822C153.423 123.032 150.834 124.136 148.778 126.192L152.313 129.728ZM156.633 127.808L156.911 132.8C161.633 132.538 165.719 131.933 168.666 130.683L166.713 126.08L164.761 121.477C163.484 122.019 160.849 122.566 156.356 122.816L156.633 127.808ZM166.713 126.08L168.617 130.703C170.413 129.964 172.093 128.789 173.296 127.02C174.504 125.243 174.977 123.24 174.977 121.28H169.977H164.977C164.977 121.463 164.956 121.538 164.957 121.534C164.957 121.532 164.962 121.515 164.975 121.487C164.988 121.46 165.005 121.428 165.027 121.396C165.074 121.327 165.113 121.297 165.104 121.304C165.09 121.315 165.006 121.376 164.81 121.457L166.713 126.08ZM169.977 121.28H174.977C174.977 117.528 173.355 114.259 170.159 112.128L167.385 116.288L164.612 120.448C164.851 120.607 164.89 120.7 164.892 120.704C164.899 120.718 164.977 120.865 164.977 121.28H169.977ZM167.385 116.288L170.159 112.128C167.456 110.326 164.33 109.56 161.049 109.56V114.56V119.56C162.76 119.56 163.859 119.946 164.612 120.448L167.385 116.288ZM161.049 114.56V109.56C158.521 109.56 156.03 109.949 153.812 111.006L155.961 115.52L158.111 120.034C158.581 119.811 159.482 119.56 161.049 119.56V114.56ZM155.961 115.52L153.992 110.924C152.167 111.706 150.286 112.873 148.377 114.286L151.353 118.304L154.33 122.322C155.877 121.175 157.068 120.486 157.931 120.116L155.961 115.52ZM151.353 118.304L148.353 114.304C146.982 115.332 145.9 115.991 145.085 116.377L147.225 120.896L149.366 125.415C150.983 124.649 152.652 123.58 154.353 122.304L151.353 118.304ZM147.225 120.896L145.085 116.377C144.721 116.549 143.999 116.76 142.713 116.76V121.76V126.76C145.012 126.76 147.297 126.395 149.366 125.415L147.225 120.896ZM142.713 121.76V116.76C141.594 116.76 140.978 116.463 140.522 116.067L137.241 119.84L133.96 123.613C136.449 125.777 139.481 126.76 142.713 126.76V121.76ZM137.241 119.84L140.605 116.14C140.288 115.853 140.129 115.587 140.129 114.944H135.129H130.129C130.129 118.269 131.378 121.267 133.878 123.54L137.241 119.84ZM135.129 114.944H140.129C140.129 112.534 141.128 106.422 143.465 95.9711L138.585 94.88L133.706 93.7889C131.435 103.946 130.129 111.21 130.129 114.944H135.129ZM138.585 94.88L139.031 89.8999C134.98 89.5371 132.712 88.8205 131.634 88.1807L129.081 92.48L126.529 96.7793C129.547 98.5715 133.615 99.4549 138.139 99.8601L138.585 94.88ZM129.081 92.48L131.731 88.24C131.291 87.9646 131.009 87.7028 131.009 86.624H126.009H121.009C121.009 90.7932 122.776 94.4354 126.431 96.72L129.081 92.48ZM126.009 86.624H131.009C131.009 85.6967 131.198 85.3244 131.258 85.2258C131.292 85.1699 131.392 85.005 131.86 84.8107L129.945 80.192L128.03 75.5733C125.875 76.467 124.006 77.9181 122.729 80.0062C121.477 82.0516 121.009 84.3513 121.009 86.624H126.009ZM129.945 80.192L131.915 84.7877C133.672 84.0348 137.177 83.3964 143.013 83.2708L142.905 78.272L142.798 73.2732C136.73 73.4036 131.595 74.0452 127.976 75.5963L129.945 80.192ZM142.905 78.272L147.529 80.1757C148.128 78.7197 148.796 78.0343 149.345 77.6834L146.649 73.472L143.954 69.2606C141.302 70.9577 139.474 73.4723 138.282 76.3683L142.905 78.272ZM146.649 73.472L149.345 77.6834C150.191 77.1419 150.959 76.936 151.737 76.936V71.936V66.936C148.932 66.936 146.308 67.7541 143.954 69.2606L146.649 73.472ZM151.737 71.936V76.936C152.255 76.936 152.787 77.078 153.456 77.6015L156.537 73.664L159.619 69.7265C157.344 67.946 154.676 66.936 151.737 66.936V71.936ZM156.537 73.664L153.647 77.7441C154.009 78 154.263 78.3095 154.385 79.0682L159.321 78.272L164.258 77.4758C163.74 74.2665 162.138 71.504 159.427 69.5839L156.537 73.664ZM159.321 78.272V83.272H166.713V78.272V73.272H159.321V78.272ZM166.713 78.272V83.272C171.819 83.272 175.594 83.4635 178.149 83.8041L178.809 78.848L179.47 73.8919C176.265 73.4645 171.976 73.272 166.713 73.272V78.272ZM178.809 78.848L178.163 83.806C180.626 84.1273 181.948 84.7335 182.6 85.2288L185.625 81.248L188.651 77.2672C186.102 75.3305 182.881 74.3367 179.456 73.89L178.809 78.848ZM185.625 81.248L182.6 85.2288C182.71 85.3125 182.773 85.3894 182.834 85.5311C182.909 85.7056 183.025 86.0932 183.025 86.816H188.025H193.025C193.025 83.1768 191.795 79.6564 188.651 77.2672L185.625 81.248ZM188.025 86.816H183.025C183.025 88.0888 182.675 88.3675 182.481 88.5169L185.529 92.48L188.578 96.4431C191.712 94.0325 193.025 90.5352 193.025 86.816H188.025ZM185.529 92.48L182.504 88.4992C181.869 88.9815 180.531 89.5951 177.984 89.9202L178.617 94.88L179.251 99.8397C182.719 99.3969 185.989 98.4105 188.555 96.4608L185.529 92.48ZM178.617 94.88L178.077 89.9093C175.4 90.2002 171.482 90.36 166.233 90.36V95.36V100.36C171.608 100.36 175.947 100.2 179.158 99.8507L178.617 94.88ZM166.233 95.36V90.36H157.017V95.36V100.36H166.233V95.36ZM157.017 95.36V90.36H155.961V95.36V100.36H157.017V95.36ZM235.669 100.16L230.952 98.5026L229.133 103.68L234.456 105.011L235.669 100.16ZM243.925 104.672L240.39 108.208L240.415 108.233L240.441 108.258L243.925 104.672ZM245.077 122.528L240.743 120.036L240.732 120.053L240.722 120.071L245.077 122.528ZM239.317 128.48L241.872 132.778L241.889 132.768L241.906 132.757L239.317 128.48ZM228.469 129.344L225.067 133.008L225.13 133.066L225.194 133.122L228.469 129.344ZM227.893 123.2L224.023 120.034L224.006 120.055L223.989 120.077L227.893 123.2ZM230.389 120.992L233.273 125.077L233.395 124.99L233.513 124.896L230.389 120.992ZM232.405 119.168L228.642 115.875L228.625 115.895L228.609 115.914L232.405 119.168ZM231.445 114.56L228.91 118.87L229.007 118.926L229.106 118.979L231.445 114.56ZM219.061 115.04L217.57 110.268L213.055 111.678L214.213 116.264L219.061 115.04ZM221.461 124.544L226.33 123.408L226.32 123.364L226.309 123.32L221.461 124.544ZM222.133 127.424L227.004 126.293L227.002 126.288L222.133 127.424ZM221.941 138.368L218.53 134.713H218.53L221.941 138.368ZM214.837 138.176L211.189 141.596V141.596L214.837 138.176ZM211.669 132.992L207.134 135.098L207.142 135.115L207.15 135.132L211.669 132.992ZM206.389 119.264L211.133 117.683L209.602 113.09L204.962 114.472L206.389 119.264ZM193.621 118.4L189.684 121.482L189.724 121.534L189.766 121.584L193.621 118.4ZM198.325 105.536L200.534 110.021L200.548 110.015L200.561 110.008L198.325 105.536ZM199.669 104.864L197.638 100.295L197.535 100.341L197.433 100.392L199.669 104.864ZM201.685 104L203.608 108.615L207.49 106.998L206.562 102.896L201.685 104ZM202.261 92.288L205.797 95.8235V95.8235L202.261 92.288ZM214.261 96.8L209.385 97.9081L209.412 98.0238L209.444 98.1382L214.261 96.8ZM215.221 100.256L210.404 101.594L211.599 105.899L216.011 105.193L215.221 100.256ZM222.517 99.296L222.901 104.281L226.658 103.992L227.415 100.301L222.517 99.296ZM224.149 93.248L219.482 91.4531L219.475 91.4727L219.467 91.4924L224.149 93.248ZM235.093 89.696L238.427 85.9698L238.427 85.9698L235.093 89.696ZM235.669 100.16L234.456 105.011C237.009 105.649 238.926 106.744 240.39 108.208L243.925 104.672L247.461 101.136C244.572 98.2482 240.985 96.3352 236.882 95.3093L235.669 100.16ZM243.925 104.672L240.441 108.258C241.466 109.254 242.285 110.885 242.285 113.888H247.285H252.285C252.285 108.955 250.864 104.442 247.409 101.086L243.925 104.672ZM247.285 113.888H242.285C242.285 116.289 241.742 118.297 240.743 120.036L245.077 122.528L249.412 125.02C251.356 121.639 252.285 117.887 252.285 113.888H247.285ZM245.077 122.528L240.722 120.071C239.733 121.825 238.419 123.179 236.728 124.202L239.317 128.48L241.906 132.757C245.08 130.837 247.605 128.223 249.432 124.985L245.077 122.528ZM239.317 128.48L236.762 124.182C235.147 125.143 233.498 125.592 231.733 125.592V130.592V135.592C235.344 135.592 238.752 134.633 241.872 132.778L239.317 128.48ZM231.733 130.592V125.592C231.724 125.592 231.72 125.592 231.721 125.592C231.721 125.592 231.726 125.592 231.734 125.594C231.741 125.595 231.75 125.597 231.761 125.6C231.771 125.603 231.781 125.606 231.791 125.61C231.8 125.613 231.807 125.617 231.812 125.619C231.817 125.621 231.818 125.622 231.815 125.62C231.81 125.617 231.786 125.602 231.744 125.566L228.469 129.344L225.194 133.122C227.019 134.704 229.257 135.592 231.733 135.592V130.592ZM228.469 129.344L231.871 125.68C231.919 125.724 231.972 125.784 232.021 125.856C232.069 125.928 232.102 125.994 232.121 126.044C232.16 126.144 232.125 126.12 232.125 125.888H227.125H222.125C222.125 128.444 222.947 131.04 225.067 133.008L228.469 129.344ZM227.125 125.888H232.125C232.125 125.672 232.15 125.636 232.125 125.726C232.095 125.828 232.009 126.06 231.797 126.323L227.893 123.2L223.989 120.077C222.529 121.901 222.125 124.053 222.125 125.888H227.125ZM227.893 123.2L231.763 126.366C231.954 126.132 232.399 125.693 233.273 125.077L230.389 120.992L227.506 116.907C226.203 117.827 224.984 118.86 224.023 120.034L227.893 123.2ZM230.389 120.992L233.513 124.896C234.514 124.095 235.495 123.246 236.201 122.422L232.405 119.168L228.609 115.914C228.615 115.907 228.592 115.934 228.528 115.998C228.465 116.061 228.377 116.145 228.259 116.252C228.019 116.469 227.692 116.746 227.266 117.088L230.389 120.992ZM232.405 119.168L236.168 122.461C237.517 120.919 238.077 119.06 238.077 117.248H233.077H228.077C228.077 117.143 228.093 116.928 228.19 116.652C228.29 116.367 228.447 116.099 228.642 115.875L232.405 119.168ZM233.077 117.248H238.077C238.077 115.874 237.762 114.417 236.943 113.069C236.126 111.724 234.986 110.777 233.785 110.141L231.445 114.56L229.106 118.979C228.993 118.919 228.668 118.708 228.395 118.259C228.121 117.807 228.077 117.406 228.077 117.248H233.077ZM231.445 114.56L233.98 110.25C231.845 108.994 229.385 108.6 227.029 108.6V113.6V118.6C228.385 118.6 228.869 118.846 228.91 118.87L231.445 114.56ZM227.029 113.6V108.6C224.115 108.6 220.933 109.217 217.57 110.268L219.061 115.04L220.553 119.812C223.334 118.943 225.463 118.6 227.029 118.6V113.6ZM219.061 115.04L214.213 116.264L216.613 125.768L221.461 124.544L226.309 123.32L223.909 113.816L219.061 115.04ZM221.461 124.544L216.592 125.68L217.264 128.56L222.133 127.424L227.002 126.288L226.33 123.408L221.461 124.544ZM222.133 127.424L217.263 128.555C218.099 132.157 218.381 134.175 218.381 135.008H223.381H228.381C228.381 132.897 227.831 129.859 227.004 126.293L222.133 127.424ZM223.381 135.008H218.381C218.381 135.046 218.378 135.046 218.383 135.018C218.389 134.988 218.402 134.942 218.425 134.886C218.449 134.831 218.477 134.783 218.502 134.748C218.527 134.713 218.541 134.702 218.53 134.713L221.941 138.368L225.353 142.023C227.353 140.157 228.381 137.701 228.381 135.008H223.381ZM221.941 138.368L218.53 134.713C218.534 134.708 218.548 134.697 218.567 134.685C218.587 134.673 218.599 134.669 218.596 134.67C218.592 134.671 218.479 134.712 218.197 134.712V139.712V144.712C220.77 144.712 223.312 143.928 225.353 142.023L221.941 138.368ZM218.197 139.712V134.712C218.213 134.712 218.253 134.714 218.31 134.726C218.368 134.738 218.425 134.758 218.476 134.781C218.584 134.83 218.582 134.86 218.485 134.756L214.837 138.176L211.189 141.596C212.993 143.52 215.393 144.712 218.197 144.712V139.712ZM214.837 138.176L218.485 134.756C218.071 134.315 217.282 133.162 216.188 130.852L211.669 132.992L207.15 135.132C208.36 137.686 209.683 139.989 211.189 141.596L214.837 138.176ZM211.669 132.992L216.204 130.886C214.647 127.534 212.955 123.149 211.133 117.683L206.389 119.264L201.646 120.845C203.536 126.515 205.363 131.283 207.134 135.098L211.669 132.992ZM206.389 119.264L204.962 114.472C202.125 115.317 200.266 115.608 199.189 115.608V120.608V125.608C201.696 125.608 204.637 125.003 207.817 124.056L206.389 119.264ZM199.189 120.608V115.608C198.42 115.608 197.983 115.493 197.768 115.408C197.586 115.336 197.522 115.272 197.476 115.216L193.621 118.4L189.766 121.584C192.206 124.538 195.694 125.608 199.189 125.608V120.608ZM193.621 118.4L197.559 115.318C197.063 114.685 196.893 114.128 196.893 113.504H191.893H186.893C186.893 116.464 187.875 119.171 189.684 121.482L193.621 118.4ZM191.893 113.504H196.893C196.893 113.074 197.009 111.758 200.534 110.021L198.325 105.536L196.116 101.051C191.065 103.538 186.893 107.534 186.893 113.504H191.893ZM198.325 105.536L200.561 110.008C200.945 109.816 201.393 109.592 201.905 109.336L199.669 104.864L197.433 100.392C196.921 100.648 196.473 100.872 196.089 101.064L198.325 105.536ZM199.669 104.864L201.7 109.433C202.231 109.197 202.866 108.925 203.608 108.615L201.685 104L199.762 99.3846C198.969 99.7152 198.259 100.019 197.638 100.295L199.669 104.864ZM201.685 104L206.562 102.896C205.791 99.4911 205.533 97.5863 205.533 96.8H200.533H195.533C195.533 98.8296 196.043 101.725 196.809 105.104L201.685 104ZM200.533 96.8H205.533C205.533 96.0693 205.715 95.9048 205.797 95.8235L202.261 92.288L198.726 88.7525C196.503 90.9752 195.533 93.8187 195.533 96.8H200.533ZM202.261 92.288L205.797 95.8235C206.032 95.5883 206.245 95.464 206.773 95.464V90.464V85.464C203.717 85.464 200.922 86.5557 198.726 88.7525L202.261 92.288ZM206.773 90.464V95.464C207.892 95.464 208.291 95.7389 208.439 95.8649C208.627 96.0234 209.068 96.5116 209.385 97.9081L214.261 96.8L219.137 95.6919C218.494 92.8644 217.208 90.1846 214.899 88.2311C212.552 86.245 209.686 85.464 206.773 85.464V90.464ZM214.261 96.8L209.444 98.1382L210.404 101.594L215.221 100.256L220.039 98.9178L219.079 95.4618L214.261 96.8ZM215.221 100.256L216.011 105.193C219.177 104.687 221.446 104.393 222.901 104.281L222.517 99.296L222.134 94.3107C220.26 94.4548 217.666 94.8013 214.431 95.3188L215.221 100.256ZM222.517 99.296L227.415 100.301C227.9 97.937 228.382 96.2005 228.831 95.0036L224.149 93.248L219.467 91.4924C218.764 93.3675 218.158 95.663 217.619 98.2913L222.517 99.296ZM224.149 93.248L228.816 95.0429C229.176 94.1063 229.581 93.6679 229.899 93.4333L226.933 89.408L223.967 85.3827C221.854 86.9401 220.402 89.0617 219.482 91.4531L224.149 93.248ZM226.933 89.408L229.899 93.4333C230.28 93.1527 230.59 93.064 230.965 93.064V88.064V83.064C228.396 83.064 226.018 83.8713 223.967 85.3827L226.933 89.408ZM230.965 88.064V93.064C231.19 93.064 231.398 93.0987 231.759 93.4222L235.093 89.696L238.427 85.9698C236.357 84.1173 233.812 83.064 230.965 83.064V88.064ZM235.093 89.696L231.759 93.4222C231.817 93.4737 231.844 93.5079 231.854 93.5221C231.864 93.5355 231.868 93.5431 231.871 93.5502C231.872 93.5536 231.917 93.6514 231.917 93.92H236.917H241.917C241.917 90.8644 240.772 88.0678 238.427 85.9698L235.093 89.696ZM236.917 93.92H231.917C231.917 94.9712 231.666 96.4704 230.952 98.5026L235.669 100.16L240.386 101.817C241.336 99.1136 241.917 96.4528 241.917 93.92H236.917ZM271.923 139.04L269.968 143.642L270.036 143.671L270.106 143.698L271.923 139.04ZM269.907 129.344L266.372 125.808L269.907 129.344ZM292.371 121.088L287.374 120.941L287.373 120.953L292.371 121.088ZM289.587 116.576L291.575 111.988L289.587 116.576ZM276.915 116L277.837 120.914L277.911 120.901L277.984 120.884L276.915 116ZM273.267 116.672L272.445 111.74L272.293 111.765L272.143 111.8L273.267 116.672ZM260.979 115.904L257.531 119.525L257.573 119.565L257.616 119.604L260.979 115.904ZM260.211 107.168L256.186 104.202L256.134 104.272L256.085 104.345L260.211 107.168ZM264.243 103.52L267.051 107.657L267.094 107.628L267.137 107.598L264.243 103.52ZM276.435 95.744L279.053 100.004L279.076 99.9896L279.099 99.9752L276.435 95.744ZM281.619 92.48L284.283 96.7112L298.945 87.48H281.619V92.48ZM264.627 91.904L265.261 86.9442L264.627 91.904ZM257.139 89.312L254.272 93.4082L254.303 93.4301L254.335 93.4516L257.139 89.312ZM258.099 76.064L255.653 71.7033L255.63 71.7163L255.607 71.7295L258.099 76.064ZM267.315 73.376L267.768 78.3555L267.808 78.3518L267.848 78.3475L267.315 73.376ZM282.483 72.704V67.704H282.459L282.434 67.7042L282.483 72.704ZM303.123 75.2L301.382 79.8871L301.393 79.8911L301.404 79.8951L303.123 75.2ZM308.691 90.08L304.44 87.4482L304.394 87.523L304.35 87.5993L308.691 90.08ZM305.427 93.632L302.487 89.5883L302.441 89.6211L302.397 89.6548L305.427 93.632ZM299.283 97.664L301.818 101.974L301.845 101.958L301.87 101.943L299.283 97.664ZM293.715 101.12L290.942 96.9597L278.862 105.013L293.339 106.106L293.715 101.12ZM302.643 104L299.918 108.192L299.979 108.231L300.04 108.269L302.643 104ZM308.691 110.24L304.31 112.65L304.333 112.691L304.357 112.732L308.691 110.24ZM303.315 134.72L300.26 130.762L300.247 130.772L300.235 130.781L303.315 134.72ZM282.483 140.576V135.576C278.376 135.576 275.552 135.089 273.741 134.382L271.923 139.04L270.106 143.698C273.543 145.039 277.759 145.576 282.483 145.576V140.576ZM271.923 139.04L273.879 134.438C273.57 134.307 273.386 134.189 273.286 134.112C273.19 134.039 273.162 133.997 273.159 133.993C273.158 133.992 273.147 133.977 273.131 133.922C273.114 133.861 273.083 133.721 273.083 133.472H268.083H263.083C263.083 135.627 263.622 137.778 264.927 139.671C266.219 141.544 268.019 142.814 269.968 143.642L271.923 139.04ZM268.083 133.472H273.083C273.083 133.385 273.096 133.347 273.113 133.309C273.134 133.26 273.21 133.113 273.443 132.88L269.907 129.344L266.372 125.808C264.341 127.84 263.083 130.446 263.083 133.472H268.083ZM269.907 129.344L273.443 132.88C273.472 132.851 273.548 132.779 273.772 132.702C274.019 132.617 274.464 132.52 275.187 132.52V127.52V122.52C272.022 122.52 268.81 123.371 266.372 125.808L269.907 129.344ZM275.187 127.52V132.52C280.233 132.52 284.76 132.012 288.669 130.884L287.283 126.08L285.898 121.276C283.151 122.068 279.614 122.52 275.187 122.52V127.52ZM287.283 126.08L288.669 130.884C290.79 130.272 292.904 129.299 294.553 127.681C296.323 125.945 297.302 123.707 297.37 121.223L292.371 121.088L287.373 120.953C287.373 120.958 287.373 120.935 287.383 120.89C287.393 120.845 287.409 120.791 287.435 120.732C287.491 120.603 287.553 120.54 287.55 120.543C287.503 120.589 287.104 120.928 285.898 121.276L287.283 126.08ZM292.371 121.088L297.369 121.235C297.423 119.398 297.064 117.461 295.979 115.702C294.884 113.929 293.297 112.734 291.575 111.988L289.587 116.576L287.599 121.164C287.71 121.212 287.718 121.231 287.67 121.192C287.617 121.148 287.539 121.068 287.468 120.954C287.399 120.841 287.372 120.752 287.366 120.725C287.361 120.704 287.379 120.767 287.374 120.941L292.371 121.088ZM289.587 116.576L291.575 111.988C288.967 110.858 286.17 110.328 283.251 110.328V115.328V120.328C284.941 120.328 286.368 120.63 287.599 121.164L289.587 116.576ZM283.251 115.328V110.328C280.73 110.328 278.259 110.588 275.847 111.116L276.915 116L277.984 120.884C279.668 120.516 281.421 120.328 283.251 120.328V115.328ZM276.915 116L275.994 111.086C273.918 111.475 272.766 111.687 272.445 111.74L273.267 116.672L274.089 121.604C274.536 121.529 275.817 121.293 277.837 120.914L276.915 116ZM273.267 116.672L272.143 111.8C268.848 112.56 266.894 112.824 265.971 112.824V117.824V122.824C268.121 122.824 271.031 122.32 274.392 121.544L273.267 116.672ZM265.971 117.824V112.824C265.283 112.824 264.821 112.639 264.343 112.204L260.979 115.904L257.616 119.604C259.954 121.729 262.82 122.824 265.971 122.824V117.824ZM260.979 115.904L264.428 112.283C263.948 111.827 263.963 111.619 263.963 111.488H258.963H253.963C253.963 114.685 255.322 117.421 257.531 119.525L260.979 115.904ZM258.963 111.488H263.963C263.963 110.697 264.147 110.271 264.338 109.991L260.211 107.168L256.085 104.345C254.612 106.497 253.963 108.951 253.963 111.488H258.963ZM260.211 107.168L264.237 110.134C264.685 109.526 265.542 108.681 267.051 107.657L264.243 103.52L261.436 99.3826C259.361 100.791 257.53 102.378 256.186 104.202L260.211 107.168ZM264.243 103.52L267.137 107.598C268.964 106.301 272.887 103.794 279.053 100.004L276.435 95.744L273.817 91.4842C267.696 95.2465 263.491 97.9231 261.35 99.4425L264.243 103.52ZM276.435 95.744L279.099 99.9752L284.283 96.7112L281.619 92.48L278.955 88.2488L273.771 91.5128L276.435 95.744ZM281.619 92.48V87.48H275.955V92.48V97.48H281.619V92.48ZM275.955 92.48V87.48C271.53 87.48 267.983 87.2918 265.261 86.9442L264.627 91.904L263.994 96.8637C267.288 97.2842 271.293 97.48 275.955 97.48V92.48ZM264.627 91.904L265.261 86.9442C262.829 86.6339 261.129 85.9754 259.944 85.1724L257.139 89.312L254.335 93.4516C257.118 95.3366 260.409 96.4061 263.994 96.8637L264.627 91.904ZM257.139 89.312L260.007 85.2158C259.67 84.98 259.259 84.6143 259.259 83.168H254.259H249.259C249.259 87.2257 250.769 90.956 254.272 93.4082L257.139 89.312ZM254.259 83.168H259.259C259.259 81.4651 259.771 80.8703 260.592 80.3985L258.099 76.064L255.607 71.7295C251.307 74.2017 249.259 78.3429 249.259 83.168H254.259ZM258.099 76.064L260.546 80.4247C262.458 79.3518 264.828 78.6228 267.768 78.3555L267.315 73.376L266.863 68.3965C262.763 68.7692 258.989 69.8322 255.653 71.7033L258.099 76.064ZM267.315 73.376L267.848 78.3475C271.192 77.9893 276.059 77.7672 282.532 77.7038L282.483 72.704L282.434 67.7042C275.852 67.7688 270.607 67.9947 266.783 68.4045L267.315 73.376ZM282.483 72.704V77.704H285.651V72.704V67.704H282.483V72.704ZM285.651 72.704V77.704C292.493 77.704 297.665 78.5063 301.382 79.8871L303.123 75.2L304.864 70.5129C299.622 68.5657 293.146 67.704 285.651 67.704V72.704ZM303.123 75.2L301.404 79.8951C302.898 80.4421 303.668 81.122 304.106 81.7631C304.552 82.4168 304.939 83.4519 304.939 85.184H309.939H314.939C314.939 81.9241 314.191 78.7992 312.365 76.1248C310.531 73.438 307.893 71.6219 304.843 70.5049L303.123 75.2ZM309.939 85.184H304.939C304.939 86.3745 304.687 87.0494 304.44 87.4482L308.691 90.08L312.943 92.7118C314.36 90.4226 314.939 87.8335 314.939 85.184H309.939ZM308.691 90.08L304.35 87.5993C303.974 88.2567 303.394 88.9284 302.487 89.5883L305.427 93.632L308.368 97.6757C310.277 96.2876 311.872 94.5913 313.033 92.5607L308.691 90.08ZM305.427 93.632L302.397 89.6548C301.27 90.5134 299.406 91.7472 296.696 93.3853L299.283 97.664L301.87 101.943C304.665 100.253 306.896 98.7986 308.458 97.6092L305.427 93.632ZM299.283 97.664L296.748 93.3543C294.518 94.666 292.578 95.8688 290.942 96.9597L293.715 101.12L296.489 105.28C297.924 104.323 299.696 103.222 301.818 101.974L299.283 97.664ZM293.715 101.12L293.339 106.106C295.991 106.306 298.14 107.036 299.918 108.192L302.643 104L305.368 99.8078C302.027 97.6359 298.223 96.446 294.092 96.1342L293.715 101.12ZM302.643 104L300.04 108.269C301.96 109.439 303.345 110.894 304.31 112.65L308.691 110.24L313.072 107.83C311.222 104.466 308.575 101.761 305.246 99.731L302.643 104ZM308.691 110.24L304.357 112.732C305.384 114.519 305.899 116.442 305.899 118.592H310.899H315.899C315.899 114.726 314.942 111.081 313.026 107.748L308.691 110.24ZM310.899 118.592H305.899C305.899 124.02 303.991 127.881 300.26 130.762L303.315 134.72L306.371 138.678C312.752 133.751 315.899 126.86 315.899 118.592H310.899ZM303.315 134.72L300.235 130.781C296.417 133.768 290.705 135.576 282.483 135.576V140.576V145.576C292.054 145.576 300.23 143.48 306.396 138.659L303.315 134.72ZM343.986 136.544L341.413 140.831L341.452 140.855L341.491 140.877L343.986 136.544ZM325.842 124.064L322.852 128.072L322.868 128.083L322.883 128.095L325.842 124.064ZM317.682 116.48L313.463 119.164L313.511 119.239L313.561 119.313L317.682 116.48ZM317.778 102.176L313.636 99.3745L313.608 99.4168L313.58 99.4597L317.778 102.176ZM325.842 93.152L329.348 96.7166L329.353 96.7118L325.842 93.152ZM340.146 80.96L337.239 76.8913L337.227 76.9003L337.214 76.9094L340.146 80.96ZM358.866 77.792L355.777 81.7236L355.81 81.7498L355.844 81.7755L358.866 77.792ZM360.21 88.832L356.022 86.1007L356.006 86.1241L355.991 86.1476L360.21 88.832ZM356.178 93.152L353.004 89.2884L352.969 89.3168L352.935 89.3458L356.178 93.152ZM347.442 99.872L350.34 103.946L350.371 103.924L350.401 103.902L347.442 99.872ZM337.938 106.88L340.938 110.88L340.958 110.865L340.978 110.849L337.938 106.88ZM337.938 110.72L335.288 114.96L335.302 114.969L335.317 114.978L337.938 110.72ZM352.722 120.32L349.8 124.378L349.846 124.411L349.892 124.443L352.722 120.32ZM359.922 126.656L363.875 123.595L359.922 126.656ZM359.922 138.176L356.629 134.413L356.589 134.448L356.55 134.484L359.922 138.176ZM354.642 111.008L350.131 113.165L350.188 113.285L350.252 113.402L354.642 111.008ZM354.642 98.816L350.3 96.3353L350.28 96.3707L350.261 96.4064L354.642 98.816ZM362.322 111.008L357.969 108.548L357.95 108.581L357.932 108.614L362.322 111.008ZM366.642 111.008L362.056 113.002L362.11 113.124L362.169 113.244L366.642 111.008ZM354.45 140.192V135.192C353.014 135.192 350.451 134.497 346.48 132.211L343.986 136.544L341.491 140.877C345.968 143.455 350.381 145.192 354.45 145.192V140.192ZM343.986 136.544L346.558 132.257C342.605 129.885 336.71 125.838 328.8 120.033L325.842 124.064L322.883 128.095C330.845 133.938 337.046 138.211 341.413 140.831L343.986 136.544ZM325.842 124.064L328.831 120.056C324.884 117.112 322.722 114.986 321.802 113.647L317.682 116.48L313.561 119.313C315.457 122.07 318.735 125 322.852 128.072L325.842 124.064ZM317.682 116.48L321.9 113.796C321.117 112.565 320.666 111.083 320.666 109.184H315.666H310.666C310.666 112.789 311.559 116.171 313.463 119.164L317.682 116.48ZM315.666 109.184H320.666C320.666 107.69 321.07 106.292 321.975 104.892L317.778 102.176L313.58 99.4597C311.669 102.412 310.666 105.686 310.666 109.184H315.666ZM317.778 102.176L321.919 104.978C323.097 103.237 325.483 100.518 329.348 96.7166L325.842 93.152L322.335 89.5874C318.392 93.4664 315.403 96.7633 313.636 99.3745L317.778 102.176ZM325.842 93.152L329.353 96.7118C333.861 92.2656 338.436 88.369 343.077 85.0106L340.146 80.96L337.214 76.9094C332.127 80.591 327.167 84.8224 322.331 89.5922L325.842 93.152ZM340.146 80.96L343.052 85.0287C347.779 81.6524 350.763 80.68 352.338 80.68V75.68V70.68C347.513 70.68 342.369 73.2276 337.239 76.8913L340.146 80.96ZM352.338 75.68V80.68C353.923 80.68 354.974 81.0927 355.777 81.7236L358.866 77.792L361.955 73.8604C359.174 71.6753 355.872 70.68 352.338 70.68V75.68ZM358.866 77.792L355.844 81.7755C356.284 82.1094 356.65 82.5541 356.65 83.84H361.65H366.65C366.65 79.8779 365.159 76.2906 361.888 73.8085L358.866 77.792ZM361.65 83.84H356.65C356.65 84.7833 356.421 85.4877 356.022 86.1007L360.21 88.832L364.398 91.5633C365.918 89.2323 366.65 86.6087 366.65 83.84H361.65ZM360.21 88.832L355.991 86.1476C355.466 86.9738 354.534 88.0313 353.004 89.2884L356.178 93.152L359.351 97.0156C361.405 95.3287 363.162 93.5062 364.428 91.5164L360.21 88.832ZM356.178 93.152L352.935 89.3458C351.356 90.6915 348.57 92.8402 344.482 95.842L347.442 99.872L350.401 103.902C354.506 100.888 357.544 98.5565 359.42 96.9582L356.178 93.152ZM347.442 99.872L344.543 95.798C341.171 98.1975 337.955 100.568 334.897 102.911L337.938 106.88L340.978 110.849C343.936 108.584 347.057 106.283 350.34 103.946L347.442 99.872ZM337.938 106.88L334.938 102.88C334.226 103.414 333.448 104.09 332.808 104.93C332.186 105.746 331.402 107.107 331.402 108.896H336.402H341.402C341.402 110.109 340.873 110.846 340.763 110.99C340.635 111.158 340.626 111.114 340.938 110.88L337.938 106.88ZM336.402 108.896H331.402C331.402 110.742 332.233 112.14 332.961 113.005C333.679 113.858 334.538 114.492 335.288 114.96L337.938 110.72L340.588 106.48C340.313 106.308 340.404 106.318 340.61 106.563C340.826 106.82 341.402 107.626 341.402 108.896H336.402ZM337.938 110.72L335.317 114.978C341.949 119.06 346.752 122.183 349.8 124.378L352.722 120.32L355.643 116.262C352.291 113.849 347.238 110.572 340.558 106.462L337.938 110.72ZM352.722 120.32L349.892 124.443C352.946 126.538 354.878 128.309 355.968 129.717L359.922 126.656L363.875 123.595C361.893 121.035 359.026 118.582 355.551 116.197L352.722 120.32ZM359.922 126.656L355.968 129.717C356.934 130.965 357.226 131.993 357.226 132.896H362.226H367.226C367.226 129.447 365.981 126.315 363.875 123.595L359.922 126.656ZM362.226 132.896H357.226C357.226 133.738 357.001 134.087 356.629 134.413L359.922 138.176L363.214 141.939C365.914 139.577 367.226 136.406 367.226 132.896H362.226ZM359.922 138.176L356.55 134.484C356.087 134.906 355.502 135.192 354.45 135.192V140.192V145.192C357.749 145.192 360.812 144.134 363.293 141.868L359.922 138.176ZM358.482 113.12V108.12C358.239 108.12 358.339 108.075 358.587 108.211C358.706 108.276 358.815 108.361 358.903 108.451C358.989 108.539 359.026 108.605 359.031 108.614L354.642 111.008L350.252 113.402C352.015 116.634 355.122 118.12 358.482 118.12V113.12ZM354.642 111.008L359.152 108.851C358.93 108.385 358.586 107.101 358.586 104.48H353.586H348.586C348.586 107.619 348.946 110.687 350.131 113.165L354.642 111.008ZM353.586 104.48H358.586C358.586 102.305 358.918 101.416 359.023 101.226L354.642 98.816L350.261 96.4064C348.957 98.7762 348.586 101.663 348.586 104.48H353.586ZM354.642 98.816L358.983 101.297C358.965 101.327 358.915 101.404 358.821 101.497C358.725 101.592 358.614 101.672 358.502 101.731C358.273 101.851 358.205 101.8 358.482 101.8V96.8V91.8C355.234 91.8 352.115 93.1603 350.3 96.3353L354.642 98.816ZM358.482 96.8V101.8C358.688 101.8 358.626 101.837 358.438 101.741C358.35 101.696 358.269 101.639 358.203 101.579C358.139 101.52 358.112 101.479 358.114 101.482C358.124 101.497 358.249 101.701 358.366 102.239C358.483 102.775 358.57 103.537 358.57 104.576H363.57H368.57C368.57 101.598 368.111 98.4972 366.482 96.0064C364.61 93.1467 361.675 91.8 358.482 91.8V96.8ZM363.57 104.576H358.57C358.57 107.038 358.182 108.171 357.969 108.548L362.322 111.008L366.674 113.468C368.125 110.901 368.57 107.746 368.57 104.576H363.57ZM362.322 111.008L357.932 108.614C357.937 108.605 357.975 108.539 358.06 108.451C358.148 108.361 358.257 108.276 358.376 108.211C358.624 108.075 358.724 108.12 358.482 108.12V113.12V118.12C361.841 118.12 364.948 116.634 366.711 113.402L362.322 111.008ZM370.386 113.12V108.12C370.138 108.12 370.271 108.073 370.562 108.237C370.704 108.317 370.836 108.422 370.944 108.538C371.048 108.652 371.099 108.742 371.114 108.772L366.642 111.008L362.169 113.244C362.921 114.748 364.072 116.057 365.649 116.947C367.188 117.815 368.842 118.12 370.386 118.12V113.12ZM366.642 111.008L371.227 109.014C370.985 108.457 370.682 107.172 370.682 104.768H365.682H360.682C360.682 107.74 361.018 110.615 362.056 113.002L366.642 111.008ZM365.682 104.768H370.682C370.682 103.681 370.766 102.869 370.886 102.285C371.007 101.696 371.14 101.451 371.166 101.41C371.171 101.401 371.067 101.559 370.82 101.693C370.583 101.821 370.451 101.8 370.578 101.8V96.8V91.8C367.307 91.8 364.422 93.2833 362.646 96.1744C361.114 98.6667 360.682 101.762 360.682 104.768H365.682ZM370.578 96.8V101.8C370.848 101.8 370.845 101.847 370.699 101.778C370.528 101.697 370.411 101.574 370.372 101.519C370.355 101.495 370.462 101.638 370.569 102.096C370.676 102.556 370.762 103.236 370.762 104.192H375.762H380.762C380.762 101.297 380.282 98.2332 378.559 95.7771C376.61 92.9974 373.657 91.8 370.578 91.8V96.8ZM375.762 104.192H370.762C370.762 106.829 370.335 107.975 370.134 108.309C370.078 108.401 370.125 108.293 370.316 108.188C370.5 108.086 370.576 108.12 370.386 108.12V113.12V118.12C373.863 118.12 376.866 116.515 378.701 113.467C380.292 110.825 380.762 107.507 380.762 104.192H375.762Z" fill="#727B6B" mask="url(#path-16-outside-1_151_252)"/>
<defs>
<clipPath id="clip0_151_252">
<rect width="914.595" height="145.012" fill="white" transform="translate(-247.157 -164.627) rotate(22.469)"/>
</clipPath>
<clipPath id="clip1_151_252">
<rect width="914.595" height="145.012" fill="white" transform="translate(-188.307 -153.365) rotate(22.469)"/>
</clipPath>
<clipPath id="clip2_151_252">
<rect width="968.708" height="147.534" fill="white" transform="translate(748.583 429.947) rotate(-157.61)"/>
</clipPath>
<clipPath id="clip3_151_252">
<rect width="968.708" height="147.534" fill="white" transform="translate(628.161 377.358) rotate(-157.61)"/>
</clipPath>
</defs>
</svg>
