<svg width="393" height="288" viewBox="0 0 393 288" fill="none" xmlns="http://www.w3.org/2000/svg">
<mask id="mask0_151_252" style="mask-type:alpha" maskUnits="userSpaceOnUse" x="-88" y="0" width="555" height="288">
<rect x="-88" width="555" height="288" fill="#D9D9D9"/>
</mask>
<g mask="url(#mask0_151_252)">
<g clip-path="url(#clip0_151_252)">
<path opacity="0.25" d="M-412.284 -216L-440.334 -148.177C-409.625 -97.3862 -364.102 -61.4526 -311.296 -46.7677C-243.023 -27.7452 -165.13 -43.4694 -97.4711 -22.6759C-26.5945 -0.843621 28.64 58.4435 82.7983 112.378C135.902 165.225 195.523 201.688 268.376 211.572C305.418 216.597 343.734 212.129 382.676 208.503C486.941 198.796 624.883 188.433 664.824 319.498L696.619 242.62L-412.284 -216Z" fill="#417505"/>
<path opacity="0.5" d="M-412.284 -216L-421.865 -192.836C-422.643 -156.938 -421.198 -122.127 -411.874 -92.2084C-387.847 -14.978 -327.072 9.69383 -260.247 4.01079C-225.311 1.04436 -188.921 -11.2207 -153.267 -20.0325C-103.94 -32.2317 -47.0949 -55.0477 -2.27059 -42.8062C32.9638 -33.124 57.539 -1.90753 69.7201 41.1178C83.6929 90.4603 89.7394 155.776 121.248 187.681C152.08 218.945 200.476 208.969 246.047 197.636C291.618 186.303 339.134 169.219 380.178 179.245C438.919 193.502 470.994 256.062 512.721 300.703C535.38 324.934 563.503 332.292 597.744 322.999C625.07 315.616 658.419 301.887 683.627 274.034L696.619 242.62L-412.284 -216Z" fill="#417505"/>
<path d="M-412.284 -216L-415.696 -207.751C-309.488 -72.2544 -165.255 8.53574 1.62778 28.2266C45.9931 33.4666 91.6556 30.9388 135.584 38.2287C195.335 48.1332 232.108 99.1504 267.125 153.37C306.002 213.561 348.744 262.157 412.17 279.398C496.373 302.212 599.236 278.337 693.474 250.225L696.619 242.62L-412.284 -216Z" fill="#417505"/>
<g clip-path="url(#clip1_151_252)">
<path opacity="0.25" d="M-335.07 -201.224L-363.12 -133.401C-332.41 -82.6097 -286.888 -46.6761 -234.081 -31.9912C-165.809 -12.9688 -87.9161 -28.6929 -20.2568 -7.89944C50.6198 13.9329 105.854 73.22 160.013 127.155C213.117 180.002 272.737 216.464 345.59 226.348C382.632 231.373 420.948 226.905 459.89 223.28C564.155 213.573 702.097 203.21 742.039 334.274L773.834 257.397L-335.07 -201.224Z" fill="#B2C42D"/>
<path opacity="0.5" d="M-335.07 -201.224L-344.65 -178.059C-345.429 -142.161 -343.983 -107.351 -334.66 -77.4319C-310.632 -0.201504 -249.858 24.4703 -183.033 18.7873C-148.097 15.8209 -111.707 3.55578 -76.0527 -5.25597C-26.7258 -17.4552 30.1194 -40.2712 74.9437 -28.0297C110.178 -18.3475 134.753 12.869 146.934 55.8942C160.907 105.237 166.954 170.552 198.462 202.457C229.294 233.722 277.69 223.746 323.261 212.412C368.832 201.079 416.348 183.996 457.392 194.022C516.133 208.278 548.208 270.839 589.935 315.48C612.595 339.71 640.717 347.069 674.958 337.775C702.284 330.392 735.633 316.663 760.842 288.81L773.834 257.397L-335.07 -201.224Z" fill="#B2C42D"/>
<path d="M-335.07 -201.224L-338.482 -192.975C-232.274 -57.4779 -88.0411 23.3122 78.8421 43.0031C123.207 48.2431 168.87 45.7152 212.799 53.0052C272.549 62.9097 309.323 113.927 344.339 168.146C383.216 228.338 425.959 276.934 489.384 294.175C573.587 316.989 676.451 293.113 770.689 265.001L773.834 257.397L-335.07 -201.224Z" fill="#B2C42D"/>
</g>
</g>
<g clip-path="url(#clip2_151_252)">
<path opacity="0.25" d="M908.001 569.463L936.444 500.421C903.283 448.029 854.763 410.647 798.916 394.915C726.711 374.538 644.938 389.595 573.351 367.413C498.359 344.126 439.234 282.713 381.329 226.791C324.551 171.998 261.176 133.886 184.296 122.801C145.207 117.165 104.929 121.229 63.9786 124.422C-45.6642 132.97 -190.762 141.741 -234.942 7.06892L-267.182 85.3278L908.001 569.463Z" fill="#417505"/>
<path opacity="0.5" d="M908.001 569.463L917.715 545.882C917.955 509.152 915.87 473.505 905.568 442.76C879.016 363.397 814.617 337.338 744.336 342.265C707.594 344.837 669.471 356.906 632.066 365.45C580.318 377.279 520.824 399.875 473.422 386.75C436.161 376.372 409.777 344.096 396.253 299.899C380.741 249.212 373.318 182.283 339.621 149.21C306.647 116.802 255.843 126.368 208.036 137.361C160.229 148.354 110.467 165.207 67.082 154.399C4.99279 139.027 -29.7968 74.5715 -74.4599 28.3276C-98.7143 3.22718 -128.449 -4.67822 -164.357 4.37775C-193.015 11.5709 -227.911 25.1784 -254.008 53.3501L-267.182 85.3278L908.001 569.463Z" fill="#417505"/>
<path d="M908.001 569.463L911.46 561.065C797.424 420.976 644.229 336.371 468.169 313.998C421.363 308.045 373.318 310.025 326.939 301.979C263.857 291.048 224.306 238.344 186.555 182.386C144.641 120.264 98.8441 69.9595 31.7728 51.4703C-57.2688 27.0006 -165.207 50.0684 -263.993 77.5869L-267.182 85.3278L908.001 569.463Z" fill="#417505"/>
<g clip-path="url(#clip3_151_252)">
<path opacity="0.25" d="M755.227 506.525L783.67 437.484C750.509 385.092 701.989 347.709 646.142 331.977C573.938 311.6 492.164 326.657 420.577 304.476C345.585 281.188 286.46 219.775 228.555 163.854C171.778 109.06 108.403 70.9489 31.5225 59.8636C-7.56652 54.228 -47.8446 58.2912 -88.7951 61.4842C-198.438 70.0322 -343.535 78.8035 -387.716 -55.8686L-419.956 22.3903L755.227 506.525Z" fill="#B2C42D"/>
<path opacity="0.5" d="M755.227 506.525L764.942 482.944C765.181 446.214 763.096 410.567 752.794 379.822C726.242 300.46 661.843 274.4 591.563 279.328C554.82 281.899 516.697 293.968 479.292 302.513C427.544 314.342 368.05 336.937 320.648 323.812C283.387 313.434 257.003 281.158 243.479 236.961C227.967 186.274 220.544 119.345 186.847 86.2727C153.873 53.8641 103.069 63.4305 55.2621 74.4237C7.45534 85.417 -42.3069 102.269 -85.6917 91.4618C-147.781 76.0893 -182.571 11.634 -227.234 -34.6099C-251.488 -59.7103 -281.222 -67.6157 -317.131 -58.5597C-345.788 -51.3666 -380.685 -37.7591 -406.782 -9.58743L-419.956 22.3903L755.227 506.525Z" fill="#B2C42D"/>
<path d="M755.227 506.525L758.687 498.128C644.65 358.038 491.455 273.433 315.395 251.06C268.59 245.107 220.544 247.087 174.166 239.042C111.083 228.11 71.5327 175.406 33.781 119.448C-8.13291 57.3269 -53.9297 7.02203 -121.001 -11.4672C-210.043 -35.9369 -317.981 -12.8691 -416.767 14.6494L-419.956 22.3903L755.227 506.525Z" fill="#B2C42D"/>
</g>
</g>
</g>
<mask id="path-14-outside-1_151_252" maskUnits="userSpaceOnUse" x="22" y="104" width="331" height="82" fill="black">
<rect fill="white" x="22" y="104" width="331" height="82"/>
<path d="M71.7564 134.496C77.1324 134.56 81.1964 134.784 83.9484 135.168C86.7004 135.552 88.6844 136.256 89.9004 137.28C91.1804 138.24 91.8204 139.744 91.8204 141.792C91.8204 143.776 91.2124 145.28 89.9964 146.304C88.7804 147.264 86.7964 147.936 84.0444 148.32C81.3564 148.704 77.3564 148.96 72.0444 149.088C72.1084 150.24 72.1404 151.84 72.1404 153.888C76.5564 155.616 80.1084 157.792 82.7964 160.416C85.5484 163.04 86.9244 165.888 86.9244 168.96C86.9244 170.944 86.3164 172.576 85.1004 173.856C83.8844 175.136 82.1884 175.776 80.0124 175.776C78.6044 175.776 77.1004 175.392 75.5004 174.624C73.9004 173.792 71.9484 172.576 69.6444 170.976C68.2364 173.92 66.0604 176.16 63.1164 177.696C60.2364 179.232 56.3644 180 51.5004 180C46.2524 180 41.9964 178.784 38.7324 176.352C35.5324 173.92 33.9324 170.56 33.9324 166.272C33.9324 162.752 34.8924 159.84 36.8124 157.536C38.7964 155.168 41.3244 153.44 44.3964 152.352C47.5324 151.2 50.8924 150.624 54.4764 150.624H55.0524L54.8604 149.088C47.5644 149.024 42.2204 148.864 38.8284 148.608C35.5004 148.288 33.0684 147.648 31.5324 146.688C29.9964 145.664 29.2284 144.032 29.2284 141.792C29.2284 139.616 29.9644 138.048 31.4364 137.088C32.9084 136.064 35.2444 135.392 38.4444 135.072C41.7084 134.752 46.7004 134.56 53.4204 134.496L53.1324 131.904C46.5404 131.84 41.5164 131.648 38.0604 131.328C34.6684 130.944 32.1084 130.208 30.3804 129.12C28.7164 127.968 27.8844 126.24 27.8844 123.936C27.8844 121.632 28.7164 119.904 30.3804 118.752C32.0444 117.6 34.5724 116.864 37.9644 116.544C41.3564 116.16 46.2524 115.936 52.6524 115.872C53.2284 113.632 54.2844 112 55.8204 110.976C57.3564 109.952 59.1164 109.44 61.1004 109.44C63.4044 109.44 65.3244 109.92 66.8604 110.88C68.3964 111.84 69.5164 113.504 70.2204 115.872C76.0444 115.936 80.5244 116.192 83.6604 116.64C86.8604 117.024 89.2284 117.792 90.7644 118.944C92.3644 120.032 93.1644 121.696 93.1644 123.936C93.1644 126.048 92.4284 127.68 90.9564 128.832C89.5484 129.92 87.3404 130.688 84.3324 131.136C81.3244 131.52 77.1004 131.776 71.6604 131.904C71.6604 133.056 71.6924 133.92 71.7564 134.496ZM56.2044 165.6C56.2044 164.768 56.1724 164.032 56.1084 163.392C55.2764 163.2 54.3484 163.104 53.3244 163.104C51.7244 163.104 50.4764 163.424 49.5804 164.064C48.7484 164.64 48.3324 165.408 48.3324 166.368C48.3324 167.328 48.6844 168.128 49.3884 168.768C50.0924 169.408 51.0204 169.728 52.1724 169.728C53.5804 169.728 54.6044 169.344 55.2444 168.576C55.8844 167.808 56.2044 166.816 56.2044 165.6ZM127.961 135.36L126.329 140.736C129.465 140.288 132.601 140.064 135.737 140.064C142.649 140.064 148.057 141.792 151.961 145.248C155.929 148.704 157.913 153.44 157.913 159.456C157.913 163.808 156.601 167.52 153.977 170.592C151.417 173.664 148.121 175.968 144.089 177.504C140.057 179.04 135.929 179.808 131.705 179.808C128.889 179.808 126.681 179.36 125.081 178.464C123.481 177.504 122.681 176.064 122.681 174.144C122.681 172.352 123.225 170.88 124.313 169.728C125.465 168.576 126.905 167.936 128.633 167.808C133.241 167.552 136.601 166.976 138.713 166.08C140.889 165.184 141.977 163.584 141.977 161.28C141.977 159.104 141.113 157.44 139.385 156.288C137.657 155.136 135.545 154.56 133.049 154.56C131.001 154.56 129.305 154.88 127.961 155.52C126.617 156.096 125.081 157.024 123.353 158.304C121.817 159.456 120.441 160.32 119.225 160.896C118.009 161.472 116.505 161.76 114.713 161.76C112.537 161.76 110.713 161.12 109.241 159.84C107.833 158.56 107.129 156.928 107.129 154.944C107.129 151.872 108.281 145.184 110.585 134.88C106.297 134.496 103.129 133.696 101.081 132.48C99.0334 131.2 98.0094 129.248 98.0094 126.624C98.0094 123.424 99.3214 121.28 101.945 120.192C104.633 119.04 108.953 118.4 114.905 118.272C115.801 116.096 117.049 114.496 118.649 113.472C120.249 112.448 121.945 111.936 123.737 111.936C125.465 111.936 127.065 112.512 128.537 113.664C130.073 114.752 131.001 116.288 131.321 118.272H138.713C143.897 118.272 147.929 118.464 150.809 118.848C153.753 119.232 156.025 120.032 157.625 121.248C159.225 122.464 160.025 124.32 160.025 126.816C160.025 129.312 159.193 131.2 157.529 132.48C155.929 133.696 153.625 134.496 150.617 134.88C147.673 135.2 143.545 135.36 138.233 135.36H129.017H127.961ZM207.669 140.16C210.997 140.992 213.749 142.496 215.925 144.672C218.165 146.848 219.285 149.92 219.285 153.888C219.285 157.088 218.549 159.968 217.077 162.528C215.669 165.024 213.749 167.008 211.317 168.48C208.949 169.888 206.421 170.592 203.733 170.592C202.517 170.592 201.429 170.176 200.469 169.344C199.573 168.512 199.125 167.36 199.125 165.888C199.125 164.736 199.381 163.84 199.893 163.2C200.469 162.496 201.301 161.76 202.389 160.992C203.349 160.224 204.021 159.616 204.405 159.168C204.853 158.656 205.077 158.016 205.077 157.248C205.077 156.032 204.533 155.136 203.445 154.56C202.357 153.92 200.885 153.6 199.029 153.6C196.789 153.6 194.133 154.08 191.061 155.04L193.461 164.544L194.133 167.424C194.965 171.008 195.381 173.536 195.381 175.008C195.381 176.352 194.901 177.472 193.941 178.368C192.981 179.264 191.733 179.712 190.197 179.712C188.917 179.712 187.797 179.2 186.837 178.176C185.877 177.152 184.821 175.424 183.669 172.992C182.005 169.408 180.245 164.832 178.389 159.264C175.381 160.16 172.981 160.608 171.189 160.608C168.693 160.608 166.837 159.872 165.621 158.4C164.469 156.928 163.893 155.296 163.893 153.504C163.893 150.304 166.037 147.648 170.325 145.536C170.709 145.344 171.157 145.12 171.669 144.864C172.245 144.608 172.917 144.32 173.685 144C172.917 140.608 172.533 138.208 172.533 136.8C172.533 134.944 173.109 133.44 174.261 132.288C175.477 131.072 176.981 130.464 178.773 130.464C182.805 130.464 185.301 132.576 186.261 136.8L187.221 140.256C190.421 139.744 192.853 139.424 194.517 139.296C195.029 136.8 195.573 134.784 196.149 133.248C196.789 131.584 197.717 130.304 198.933 129.408C200.149 128.512 201.493 128.064 202.965 128.064C204.501 128.064 205.877 128.608 207.093 129.696C208.309 130.784 208.917 132.192 208.917 133.92C208.917 135.712 208.501 137.792 207.669 140.16ZM254.483 180.576C250.067 180.576 246.547 180.064 243.923 179.04C241.363 177.952 240.083 176.096 240.083 173.472C240.083 171.936 240.691 170.56 241.907 169.344C243.123 168.128 244.883 167.52 247.187 167.52C251.923 167.52 255.955 167.04 259.283 166.08C262.611 165.12 264.307 163.456 264.371 161.088C264.435 158.912 263.507 157.408 261.587 156.576C259.667 155.744 257.555 155.328 255.251 155.328C253.075 155.328 250.963 155.552 248.915 156C246.867 156.384 245.651 156.608 245.267 156.672C241.939 157.44 239.507 157.824 237.971 157.824C236.051 157.824 234.387 157.184 232.979 155.904C231.635 154.624 230.963 153.152 230.963 151.488C230.963 149.824 231.379 148.384 232.211 147.168C233.107 145.952 234.451 144.736 236.243 143.52C238.227 142.112 242.291 139.52 248.435 135.744L253.619 132.48H247.955C243.411 132.48 239.635 132.288 236.627 131.904C233.619 131.52 231.123 130.656 229.139 129.312C227.219 127.968 226.259 125.92 226.259 123.168C226.259 119.904 227.539 117.536 230.099 116.064C232.723 114.592 235.795 113.696 239.315 113.376C242.899 112.992 247.955 112.768 254.483 112.704H257.651C264.819 112.704 270.643 113.536 275.123 115.2C279.667 116.864 281.939 120.192 281.939 125.184C281.939 127.104 281.523 128.736 280.691 130.08C279.923 131.424 278.835 132.608 277.427 133.632C276.083 134.656 274.035 136 271.283 137.664C269.107 138.944 267.251 140.096 265.715 141.12C269.107 141.376 272.083 142.336 274.643 144C277.267 145.6 279.283 147.68 280.691 150.24C282.163 152.8 282.899 155.584 282.899 158.592C282.899 165.44 280.371 170.816 275.315 174.72C270.323 178.624 263.379 180.576 254.483 180.576ZM326.45 180.192C323.698 180.192 320.21 178.976 315.986 176.544C311.826 174.048 305.778 169.888 297.842 164.064C293.81 161.056 291.09 158.528 289.682 156.48C288.338 154.368 287.666 151.936 287.666 149.184C287.666 146.688 288.37 144.352 289.778 142.176C291.25 140 293.938 136.992 297.842 133.152C302.514 128.544 307.282 124.48 312.146 120.96C317.074 117.44 321.138 115.68 324.338 115.68C326.898 115.68 329.074 116.384 330.866 117.792C332.722 119.2 333.65 121.216 333.65 123.84C333.65 125.696 333.17 127.36 332.21 128.832C331.314 130.24 329.97 131.68 328.178 133.152C326.45 134.624 323.538 136.864 319.442 139.872C316.114 142.24 312.946 144.576 309.938 146.88C308.914 147.648 308.402 148.32 308.402 148.896C308.402 149.472 308.914 150.08 309.938 150.72C316.594 154.816 321.522 158.016 324.722 160.32C327.986 162.56 330.386 164.672 331.922 166.656C333.458 168.64 334.226 170.72 334.226 172.896C334.226 175.072 333.458 176.832 331.922 178.176C330.45 179.52 328.626 180.192 326.45 180.192ZM330.482 153.12C328.69 153.12 327.41 152.416 326.642 151.008C325.938 149.536 325.586 147.36 325.586 144.48C325.586 141.984 325.938 140.096 326.642 138.816C327.41 137.472 328.69 136.8 330.482 136.8C333.874 136.8 335.57 139.392 335.57 144.576C335.57 147.392 335.154 149.536 334.322 151.008C333.554 152.416 332.274 153.12 330.482 153.12ZM342.386 153.12C340.594 153.12 339.346 152.416 338.642 151.008C338.002 149.536 337.682 147.456 337.682 144.768C337.682 139.456 339.314 136.8 342.578 136.8C346.034 136.8 347.762 139.264 347.762 144.192C347.762 150.144 345.97 153.12 342.386 153.12Z"/>
</mask>
<path d="M71.7564 134.496C77.1324 134.56 81.1964 134.784 83.9484 135.168C86.7004 135.552 88.6844 136.256 89.9004 137.28C91.1804 138.24 91.8204 139.744 91.8204 141.792C91.8204 143.776 91.2124 145.28 89.9964 146.304C88.7804 147.264 86.7964 147.936 84.0444 148.32C81.3564 148.704 77.3564 148.96 72.0444 149.088C72.1084 150.24 72.1404 151.84 72.1404 153.888C76.5564 155.616 80.1084 157.792 82.7964 160.416C85.5484 163.04 86.9244 165.888 86.9244 168.96C86.9244 170.944 86.3164 172.576 85.1004 173.856C83.8844 175.136 82.1884 175.776 80.0124 175.776C78.6044 175.776 77.1004 175.392 75.5004 174.624C73.9004 173.792 71.9484 172.576 69.6444 170.976C68.2364 173.92 66.0604 176.16 63.1164 177.696C60.2364 179.232 56.3644 180 51.5004 180C46.2524 180 41.9964 178.784 38.7324 176.352C35.5324 173.92 33.9324 170.56 33.9324 166.272C33.9324 162.752 34.8924 159.84 36.8124 157.536C38.7964 155.168 41.3244 153.44 44.3964 152.352C47.5324 151.2 50.8924 150.624 54.4764 150.624H55.0524L54.8604 149.088C47.5644 149.024 42.2204 148.864 38.8284 148.608C35.5004 148.288 33.0684 147.648 31.5324 146.688C29.9964 145.664 29.2284 144.032 29.2284 141.792C29.2284 139.616 29.9644 138.048 31.4364 137.088C32.9084 136.064 35.2444 135.392 38.4444 135.072C41.7084 134.752 46.7004 134.56 53.4204 134.496L53.1324 131.904C46.5404 131.84 41.5164 131.648 38.0604 131.328C34.6684 130.944 32.1084 130.208 30.3804 129.12C28.7164 127.968 27.8844 126.24 27.8844 123.936C27.8844 121.632 28.7164 119.904 30.3804 118.752C32.0444 117.6 34.5724 116.864 37.9644 116.544C41.3564 116.16 46.2524 115.936 52.6524 115.872C53.2284 113.632 54.2844 112 55.8204 110.976C57.3564 109.952 59.1164 109.44 61.1004 109.44C63.4044 109.44 65.3244 109.92 66.8604 110.88C68.3964 111.84 69.5164 113.504 70.2204 115.872C76.0444 115.936 80.5244 116.192 83.6604 116.64C86.8604 117.024 89.2284 117.792 90.7644 118.944C92.3644 120.032 93.1644 121.696 93.1644 123.936C93.1644 126.048 92.4284 127.68 90.9564 128.832C89.5484 129.92 87.3404 130.688 84.3324 131.136C81.3244 131.52 77.1004 131.776 71.6604 131.904C71.6604 133.056 71.6924 133.92 71.7564 134.496ZM56.2044 165.6C56.2044 164.768 56.1724 164.032 56.1084 163.392C55.2764 163.2 54.3484 163.104 53.3244 163.104C51.7244 163.104 50.4764 163.424 49.5804 164.064C48.7484 164.64 48.3324 165.408 48.3324 166.368C48.3324 167.328 48.6844 168.128 49.3884 168.768C50.0924 169.408 51.0204 169.728 52.1724 169.728C53.5804 169.728 54.6044 169.344 55.2444 168.576C55.8844 167.808 56.2044 166.816 56.2044 165.6ZM127.961 135.36L126.329 140.736C129.465 140.288 132.601 140.064 135.737 140.064C142.649 140.064 148.057 141.792 151.961 145.248C155.929 148.704 157.913 153.44 157.913 159.456C157.913 163.808 156.601 167.52 153.977 170.592C151.417 173.664 148.121 175.968 144.089 177.504C140.057 179.04 135.929 179.808 131.705 179.808C128.889 179.808 126.681 179.36 125.081 178.464C123.481 177.504 122.681 176.064 122.681 174.144C122.681 172.352 123.225 170.88 124.313 169.728C125.465 168.576 126.905 167.936 128.633 167.808C133.241 167.552 136.601 166.976 138.713 166.08C140.889 165.184 141.977 163.584 141.977 161.28C141.977 159.104 141.113 157.44 139.385 156.288C137.657 155.136 135.545 154.56 133.049 154.56C131.001 154.56 129.305 154.88 127.961 155.52C126.617 156.096 125.081 157.024 123.353 158.304C121.817 159.456 120.441 160.32 119.225 160.896C118.009 161.472 116.505 161.76 114.713 161.76C112.537 161.76 110.713 161.12 109.241 159.84C107.833 158.56 107.129 156.928 107.129 154.944C107.129 151.872 108.281 145.184 110.585 134.88C106.297 134.496 103.129 133.696 101.081 132.48C99.0334 131.2 98.0094 129.248 98.0094 126.624C98.0094 123.424 99.3214 121.28 101.945 120.192C104.633 119.04 108.953 118.4 114.905 118.272C115.801 116.096 117.049 114.496 118.649 113.472C120.249 112.448 121.945 111.936 123.737 111.936C125.465 111.936 127.065 112.512 128.537 113.664C130.073 114.752 131.001 116.288 131.321 118.272H138.713C143.897 118.272 147.929 118.464 150.809 118.848C153.753 119.232 156.025 120.032 157.625 121.248C159.225 122.464 160.025 124.32 160.025 126.816C160.025 129.312 159.193 131.2 157.529 132.48C155.929 133.696 153.625 134.496 150.617 134.88C147.673 135.2 143.545 135.36 138.233 135.36H129.017H127.961ZM207.669 140.16C210.997 140.992 213.749 142.496 215.925 144.672C218.165 146.848 219.285 149.92 219.285 153.888C219.285 157.088 218.549 159.968 217.077 162.528C215.669 165.024 213.749 167.008 211.317 168.48C208.949 169.888 206.421 170.592 203.733 170.592C202.517 170.592 201.429 170.176 200.469 169.344C199.573 168.512 199.125 167.36 199.125 165.888C199.125 164.736 199.381 163.84 199.893 163.2C200.469 162.496 201.301 161.76 202.389 160.992C203.349 160.224 204.021 159.616 204.405 159.168C204.853 158.656 205.077 158.016 205.077 157.248C205.077 156.032 204.533 155.136 203.445 154.56C202.357 153.92 200.885 153.6 199.029 153.6C196.789 153.6 194.133 154.08 191.061 155.04L193.461 164.544L194.133 167.424C194.965 171.008 195.381 173.536 195.381 175.008C195.381 176.352 194.901 177.472 193.941 178.368C192.981 179.264 191.733 179.712 190.197 179.712C188.917 179.712 187.797 179.2 186.837 178.176C185.877 177.152 184.821 175.424 183.669 172.992C182.005 169.408 180.245 164.832 178.389 159.264C175.381 160.16 172.981 160.608 171.189 160.608C168.693 160.608 166.837 159.872 165.621 158.4C164.469 156.928 163.893 155.296 163.893 153.504C163.893 150.304 166.037 147.648 170.325 145.536C170.709 145.344 171.157 145.12 171.669 144.864C172.245 144.608 172.917 144.32 173.685 144C172.917 140.608 172.533 138.208 172.533 136.8C172.533 134.944 173.109 133.44 174.261 132.288C175.477 131.072 176.981 130.464 178.773 130.464C182.805 130.464 185.301 132.576 186.261 136.8L187.221 140.256C190.421 139.744 192.853 139.424 194.517 139.296C195.029 136.8 195.573 134.784 196.149 133.248C196.789 131.584 197.717 130.304 198.933 129.408C200.149 128.512 201.493 128.064 202.965 128.064C204.501 128.064 205.877 128.608 207.093 129.696C208.309 130.784 208.917 132.192 208.917 133.92C208.917 135.712 208.501 137.792 207.669 140.16ZM254.483 180.576C250.067 180.576 246.547 180.064 243.923 179.04C241.363 177.952 240.083 176.096 240.083 173.472C240.083 171.936 240.691 170.56 241.907 169.344C243.123 168.128 244.883 167.52 247.187 167.52C251.923 167.52 255.955 167.04 259.283 166.08C262.611 165.12 264.307 163.456 264.371 161.088C264.435 158.912 263.507 157.408 261.587 156.576C259.667 155.744 257.555 155.328 255.251 155.328C253.075 155.328 250.963 155.552 248.915 156C246.867 156.384 245.651 156.608 245.267 156.672C241.939 157.44 239.507 157.824 237.971 157.824C236.051 157.824 234.387 157.184 232.979 155.904C231.635 154.624 230.963 153.152 230.963 151.488C230.963 149.824 231.379 148.384 232.211 147.168C233.107 145.952 234.451 144.736 236.243 143.52C238.227 142.112 242.291 139.52 248.435 135.744L253.619 132.48H247.955C243.411 132.48 239.635 132.288 236.627 131.904C233.619 131.52 231.123 130.656 229.139 129.312C227.219 127.968 226.259 125.92 226.259 123.168C226.259 119.904 227.539 117.536 230.099 116.064C232.723 114.592 235.795 113.696 239.315 113.376C242.899 112.992 247.955 112.768 254.483 112.704H257.651C264.819 112.704 270.643 113.536 275.123 115.2C279.667 116.864 281.939 120.192 281.939 125.184C281.939 127.104 281.523 128.736 280.691 130.08C279.923 131.424 278.835 132.608 277.427 133.632C276.083 134.656 274.035 136 271.283 137.664C269.107 138.944 267.251 140.096 265.715 141.12C269.107 141.376 272.083 142.336 274.643 144C277.267 145.6 279.283 147.68 280.691 150.24C282.163 152.8 282.899 155.584 282.899 158.592C282.899 165.44 280.371 170.816 275.315 174.72C270.323 178.624 263.379 180.576 254.483 180.576ZM326.45 180.192C323.698 180.192 320.21 178.976 315.986 176.544C311.826 174.048 305.778 169.888 297.842 164.064C293.81 161.056 291.09 158.528 289.682 156.48C288.338 154.368 287.666 151.936 287.666 149.184C287.666 146.688 288.37 144.352 289.778 142.176C291.25 140 293.938 136.992 297.842 133.152C302.514 128.544 307.282 124.48 312.146 120.96C317.074 117.44 321.138 115.68 324.338 115.68C326.898 115.68 329.074 116.384 330.866 117.792C332.722 119.2 333.65 121.216 333.65 123.84C333.65 125.696 333.17 127.36 332.21 128.832C331.314 130.24 329.97 131.68 328.178 133.152C326.45 134.624 323.538 136.864 319.442 139.872C316.114 142.24 312.946 144.576 309.938 146.88C308.914 147.648 308.402 148.32 308.402 148.896C308.402 149.472 308.914 150.08 309.938 150.72C316.594 154.816 321.522 158.016 324.722 160.32C327.986 162.56 330.386 164.672 331.922 166.656C333.458 168.64 334.226 170.72 334.226 172.896C334.226 175.072 333.458 176.832 331.922 178.176C330.45 179.52 328.626 180.192 326.45 180.192ZM330.482 153.12C328.69 153.12 327.41 152.416 326.642 151.008C325.938 149.536 325.586 147.36 325.586 144.48C325.586 141.984 325.938 140.096 326.642 138.816C327.41 137.472 328.69 136.8 330.482 136.8C333.874 136.8 335.57 139.392 335.57 144.576C335.57 147.392 335.154 149.536 334.322 151.008C333.554 152.416 332.274 153.12 330.482 153.12ZM342.386 153.12C340.594 153.12 339.346 152.416 338.642 151.008C338.002 149.536 337.682 147.456 337.682 144.768C337.682 139.456 339.314 136.8 342.578 136.8C346.034 136.8 347.762 139.264 347.762 144.192C347.762 150.144 345.97 153.12 342.386 153.12Z" fill="#DCC482"/>
<path d="M71.7564 134.496L66.787 135.048L67.2753 139.443L71.6969 139.496L71.7564 134.496ZM83.9484 135.168L83.2574 140.12L83.2574 140.12L83.9484 135.168ZM89.9004 137.28L86.6797 141.105L86.7876 141.195L86.9004 141.28L89.9004 137.28ZM89.9964 146.304L93.0946 150.228L93.1566 150.179L93.2171 150.129L89.9964 146.304ZM84.0444 148.32L83.3534 143.368L83.3453 143.369L83.3373 143.37L84.0444 148.32ZM72.0444 149.088L71.9239 144.089L66.7659 144.214L67.0521 149.365L72.0444 149.088ZM72.1404 153.888H67.1404V157.301L70.3184 158.544L72.1404 153.888ZM82.7964 160.416L79.3037 163.994L79.3247 164.014L79.346 164.035L82.7964 160.416ZM85.1004 173.856L88.7254 177.3L85.1004 173.856ZM75.5004 174.624L73.1936 179.06L73.2646 179.097L73.3367 179.132L75.5004 174.624ZM69.6444 170.976L72.4964 166.869L67.6693 163.517L65.1337 168.819L69.6444 170.976ZM63.1164 177.696L60.8035 173.263L60.7834 173.274L60.7634 173.284L63.1164 177.696ZM38.7324 176.352L35.707 180.333L35.7259 180.347L35.745 180.361L38.7324 176.352ZM36.8124 157.536L32.9798 154.325L32.9713 154.335L36.8124 157.536ZM44.3964 152.352L46.0656 157.065L46.0931 157.055L46.1205 157.045L44.3964 152.352ZM55.0524 150.624V155.624H60.7163L60.0138 150.004L55.0524 150.624ZM54.8604 149.088L59.8218 148.468L59.2791 144.127L54.9042 144.088L54.8604 149.088ZM38.8284 148.608L38.3498 153.585L38.4009 153.59L38.4521 153.594L38.8284 148.608ZM31.5324 146.688L28.7589 150.848L28.82 150.889L28.8824 150.928L31.5324 146.688ZM31.4364 137.088L34.1677 141.276L34.2303 141.235L34.2917 141.193L31.4364 137.088ZM38.4444 135.072L37.9565 130.096L37.9469 130.097L38.4444 135.072ZM53.4204 134.496L53.468 139.496L59.0008 139.443L58.3898 133.944L53.4204 134.496ZM53.1324 131.904L58.1018 131.352L57.6124 126.947L53.1809 126.904L53.1324 131.904ZM38.0604 131.328L37.4979 136.296L37.5486 136.302L37.5994 136.307L38.0604 131.328ZM30.3804 129.12L27.5343 133.231L27.624 133.293L27.7163 133.351L30.3804 129.12ZM30.3804 118.752L27.5343 114.641L30.3804 118.752ZM37.9644 116.544L38.434 121.522L38.4805 121.518L38.5268 121.512L37.9644 116.544ZM52.6524 115.872L52.7024 120.872L56.5393 120.833L57.4948 117.117L52.6524 115.872ZM55.8204 110.976L53.0469 106.816L53.0469 106.816L55.8204 110.976ZM66.8604 110.88L69.5104 106.64L69.5104 106.64L66.8604 110.88ZM70.2204 115.872L65.4277 117.297L66.4784 120.831L70.1654 120.872L70.2204 115.872ZM83.6604 116.64L82.9533 121.59L83.0089 121.598L83.0647 121.604L83.6604 116.64ZM90.7644 118.944L87.7644 122.944L87.857 123.013L87.9528 123.079L90.7644 118.944ZM90.9564 128.832L94.0136 132.788L94.0258 132.779L94.0379 132.77L90.9564 128.832ZM84.3324 131.136L84.9655 136.096L85.0173 136.089L85.0689 136.081L84.3324 131.136ZM71.6604 131.904L71.5428 126.905L66.6604 127.02V131.904H71.6604ZM56.1084 163.392L61.0836 162.894L60.7267 159.326L57.2327 158.52L56.1084 163.392ZM49.5804 164.064L52.4264 168.175L52.4567 168.154L52.4866 168.133L49.5804 164.064ZM55.2444 168.576L51.4033 165.375H51.4033L55.2444 168.576ZM71.7564 134.496L71.6969 139.496C77.0181 139.559 80.8271 139.781 83.2574 140.12L83.9484 135.168L84.6394 130.216C81.5657 129.787 77.2467 129.561 71.8159 129.496L71.7564 134.496ZM83.9484 135.168L83.2574 140.12C85.6872 140.459 86.5426 140.989 86.6797 141.105L89.9004 137.28L93.1211 133.455C90.8262 131.523 87.7135 130.645 84.6394 130.216L83.9484 135.168ZM89.9004 137.28L86.9004 141.28C86.8748 141.261 86.8352 141.225 86.7964 141.175C86.7579 141.126 86.7414 141.09 86.7396 141.086C86.7386 141.083 86.8204 141.276 86.8204 141.792H91.8204H96.8204C96.8204 138.655 95.7824 135.442 92.9004 133.28L89.9004 137.28ZM91.8204 141.792H86.8204C86.8204 142.281 86.745 142.494 86.7288 142.534C86.7213 142.553 86.7231 142.543 86.7396 142.52C86.7565 142.497 86.7721 142.482 86.7757 142.479L89.9964 146.304L93.2171 150.129C95.8336 147.925 96.8204 144.853 96.8204 141.792H91.8204ZM89.9964 146.304L86.8982 142.38C86.7365 142.507 85.826 143.023 83.3534 143.368L84.0444 148.32L84.7354 153.272C87.7668 152.849 90.8243 152.021 93.0946 150.228L89.9964 146.304ZM84.0444 148.32L83.3373 143.37C80.9494 143.711 77.1876 143.963 71.9239 144.089L72.0444 149.088L72.1648 154.087C77.5252 153.957 81.7633 153.697 84.7515 153.27L84.0444 148.32ZM72.0444 149.088L67.0521 149.365C67.1085 150.381 67.1404 151.874 67.1404 153.888H72.1404H77.1404C77.1404 151.806 77.1083 150.099 77.0367 148.811L72.0444 149.088ZM72.1404 153.888L70.3184 158.544C74.2686 160.09 77.2026 161.943 79.3037 163.994L82.7964 160.416L86.2891 156.838C83.0141 153.641 78.8442 151.142 73.9624 149.232L72.1404 153.888ZM82.7964 160.416L79.346 164.035C81.3596 165.955 81.9244 167.568 81.9244 168.96H86.9244H91.9244C91.9244 164.208 89.7371 160.125 86.2467 156.797L82.7964 160.416ZM86.9244 168.96H81.9244C81.9244 169.834 81.6969 170.179 81.4754 170.412L85.1004 173.856L88.7254 177.3C90.9358 174.973 91.9244 172.054 91.9244 168.96H86.9244ZM85.1004 173.856L81.4754 170.412C81.4149 170.476 81.1587 170.776 80.0124 170.776V175.776V180.776C83.218 180.776 86.3538 179.796 88.7254 177.3L85.1004 173.856ZM80.0124 175.776V170.776C79.5223 170.776 78.7597 170.642 77.664 170.116L75.5004 174.624L73.3367 179.132C75.4411 180.142 77.6865 180.776 80.0124 180.776V175.776ZM75.5004 174.624L77.8071 170.188C76.469 169.492 74.7102 168.407 72.4964 166.869L69.6444 170.976L66.7924 175.083C69.1866 176.745 71.3318 178.092 73.1936 179.06L75.5004 174.624ZM69.6444 170.976L65.1337 168.819C64.2015 170.768 62.8061 172.218 60.8035 173.263L63.1164 177.696L65.4292 182.129C69.3147 180.102 72.2713 177.072 74.155 173.133L69.6444 170.976ZM63.1164 177.696L60.7634 173.284C58.8763 174.291 55.9147 175 51.5004 175V180V185C56.8141 185 61.5964 184.173 65.4693 182.108L63.1164 177.696ZM51.5004 180V175C47.0162 175 43.8997 173.967 41.7198 172.343L38.7324 176.352L35.745 180.361C40.0931 183.601 45.4885 185 51.5004 185V180ZM38.7324 176.352L41.7578 172.371C39.8954 170.956 38.9324 169.119 38.9324 166.272H33.9324H28.9324C28.9324 172.001 31.1694 176.884 35.707 180.333L38.7324 176.352ZM33.9324 166.272H38.9324C38.9324 163.708 39.6083 161.991 40.6535 160.737L36.8124 157.536L32.9713 154.335C30.1765 157.689 28.9324 161.796 28.9324 166.272H33.9324ZM36.8124 157.536L40.645 160.747C42.0231 159.102 43.7878 157.872 46.0656 157.065L44.3964 152.352L42.7271 147.639C38.8609 149.008 35.5697 151.234 32.9798 154.325L36.8124 157.536ZM44.3964 152.352L46.1205 157.045C48.6653 156.111 51.4376 155.624 54.4764 155.624V150.624V145.624C50.3471 145.624 46.3995 146.289 42.6723 147.659L44.3964 152.352ZM54.4764 150.624V155.624H55.0524V150.624V145.624H54.4764V150.624ZM55.0524 150.624L60.0138 150.004L59.8218 148.468L54.8604 149.088L49.899 149.708L50.091 151.244L55.0524 150.624ZM54.8604 149.088L54.9042 144.088C47.6236 144.024 42.4201 143.865 39.2047 143.622L38.8284 148.608L38.4521 153.594C42.0206 153.863 47.5051 154.024 54.8165 154.088L54.8604 149.088ZM38.8284 148.608L39.3069 143.631C36.2032 143.333 34.716 142.781 34.1824 142.448L31.5324 146.688L28.8824 150.928C31.4208 152.514 34.7976 153.243 38.3498 153.585L38.8284 148.608ZM31.5324 146.688L34.3059 142.528C34.2758 142.508 34.2816 142.507 34.3013 142.53C34.3216 142.553 34.3303 142.571 34.3285 142.567C34.3242 142.558 34.2284 142.35 34.2284 141.792H29.2284H24.2284C24.2284 145.295 25.5233 148.691 28.7589 150.848L31.5324 146.688ZM29.2284 141.792H34.2284C34.2284 141.256 34.3199 141.08 34.3066 141.109C34.299 141.125 34.2764 141.165 34.2362 141.211C34.1963 141.257 34.166 141.277 34.1677 141.276L31.4364 137.088L28.705 132.9C25.4717 135.009 24.2284 138.386 24.2284 141.792H29.2284ZM31.4364 137.088L34.2917 141.193C34.7078 140.903 36.0135 140.34 38.9419 140.047L38.4444 135.072L37.9469 130.097C34.4753 130.444 31.109 131.225 28.5811 132.983L31.4364 137.088ZM38.4444 135.072L38.9322 140.048C41.9664 139.751 46.7763 139.56 53.468 139.496L53.4204 134.496L53.3728 129.496C46.6245 129.56 41.4503 129.753 37.9565 130.096L38.4444 135.072ZM53.4204 134.496L58.3898 133.944L58.1018 131.352L53.1324 131.904L48.163 132.456L48.451 135.048L53.4204 134.496ZM53.1324 131.904L53.1809 126.904C46.6278 126.841 41.7683 126.65 38.5214 126.349L38.0604 131.328L37.5994 136.307C41.2645 136.646 46.4529 136.839 53.0838 136.904L53.1324 131.904ZM38.0604 131.328L38.6228 126.36C35.5393 126.011 33.8461 125.394 33.0444 124.889L30.3804 129.12L27.7163 133.351C30.3707 135.022 33.7975 135.877 37.4979 136.296L38.0604 131.328ZM30.3804 129.12L33.2264 125.009C33.0654 124.898 33.0329 124.831 33.0134 124.791C32.9823 124.726 32.8844 124.486 32.8844 123.936H27.8844H22.8844C22.8844 127.617 24.3184 131.005 27.5343 133.231L30.3804 129.12ZM27.8844 123.936H32.8844C32.8844 123.386 32.9823 123.146 33.0134 123.081C33.0329 123.041 33.0654 122.974 33.2264 122.863L30.3804 118.752L27.5343 114.641C24.3184 116.867 22.8844 120.255 22.8844 123.936H27.8844ZM30.3804 118.752L33.2264 122.863C33.8571 122.426 35.3815 121.81 38.434 121.522L37.9644 116.544L37.4948 111.566C33.7632 111.918 30.2316 112.774 27.5343 114.641L30.3804 118.752ZM37.9644 116.544L38.5268 121.512C41.6607 121.157 46.3533 120.935 52.7024 120.872L52.6524 115.872L52.6024 110.872C46.1514 110.937 41.0521 111.163 37.4019 111.576L37.9644 116.544ZM52.6524 115.872L57.4948 117.117C57.8445 115.757 58.3238 115.316 58.5939 115.136L55.8204 110.976L53.0469 106.816C50.2449 108.684 48.6122 111.507 47.8099 114.627L52.6524 115.872ZM55.8204 110.976L58.5939 115.136C59.2465 114.701 60.0262 114.44 61.1004 114.44V109.44V104.44C58.2066 104.44 55.4663 105.203 53.0469 106.816L55.8204 110.976ZM61.1004 109.44V114.44C62.7195 114.44 63.6588 114.775 64.2104 115.12L66.8604 110.88L69.5104 106.64C66.99 105.065 64.0892 104.44 61.1004 104.44V109.44ZM66.8604 110.88L64.2104 115.12C64.3886 115.231 64.9438 115.669 65.4277 117.297L70.2204 115.872L75.0131 114.447C74.0889 111.339 72.4041 108.449 69.5104 106.64L66.8604 110.88ZM70.2204 115.872L70.1654 120.872C75.9196 120.935 80.1425 121.188 82.9533 121.59L83.6604 116.64L84.3675 111.69C80.9063 111.196 76.1691 110.937 70.2753 110.872L70.2204 115.872ZM83.6604 116.64L83.0647 121.604C85.9158 121.947 87.2581 122.564 87.7644 122.944L90.7644 118.944L93.7644 114.944C91.1986 113.02 87.805 112.101 84.2561 111.676L83.6604 116.64ZM90.7644 118.944L87.9528 123.079C88.02 123.124 88.0437 123.152 88.0461 123.154C88.0476 123.156 88.0505 123.159 88.0581 123.174C88.0712 123.202 88.1644 123.409 88.1644 123.936H93.1644H98.1644C98.1644 120.343 96.7772 116.986 93.5759 114.809L90.7644 118.944ZM93.1644 123.936H88.1644C88.1644 124.409 88.0834 124.624 88.0544 124.688C88.0339 124.734 88.0027 124.794 87.8748 124.894L90.9564 128.832L94.0379 132.77C96.889 130.538 98.1644 127.359 98.1644 123.936H93.1644ZM90.9564 128.832L87.8991 124.876C87.4901 125.192 86.283 125.79 83.5958 126.191L84.3324 131.136L85.0689 136.081C88.3978 135.586 91.6067 134.648 94.0136 132.788L90.9564 128.832ZM84.3324 131.136L83.6992 126.176C80.9459 126.528 76.9225 126.779 71.5428 126.905L71.6604 131.904L71.778 136.903C77.2782 136.773 81.7029 136.512 84.9655 136.096L84.3324 131.136ZM71.6604 131.904H66.6604C66.6604 133.098 66.6913 134.187 66.787 135.048L71.7564 134.496L76.7258 133.944C76.6934 133.653 76.6604 133.014 76.6604 131.904H71.6604ZM56.2044 165.6H61.2044C61.2044 164.647 61.1681 163.739 61.0836 162.894L56.1084 163.392L51.1332 163.89C51.1767 164.325 51.2044 164.889 51.2044 165.6H56.2044ZM56.1084 163.392L57.2327 158.52C55.9676 158.228 54.6544 158.104 53.3244 158.104V163.104V168.104C54.0423 168.104 54.5852 168.172 54.9841 168.264L56.1084 163.392ZM53.3244 163.104V158.104C51.1341 158.104 48.7237 158.531 46.6742 159.995L49.5804 164.064L52.4866 168.133C52.3548 168.227 52.3042 168.22 52.4303 168.187C52.5647 168.153 52.8469 168.104 53.3244 168.104V163.104ZM49.5804 164.064L46.7343 159.953C44.6398 161.403 43.3324 163.665 43.3324 166.368H48.3324H53.3324C53.3324 166.635 53.2672 167.036 53.0408 167.453C52.8198 167.861 52.5534 168.087 52.4264 168.175L49.5804 164.064ZM48.3324 166.368H43.3324C43.3324 168.722 44.268 170.87 46.025 172.468L49.3884 168.768L52.7517 165.068C52.8713 165.177 53.0428 165.379 53.173 165.674C53.3026 165.969 53.3324 166.223 53.3324 166.368H48.3324ZM49.3884 168.768L46.025 172.468C47.8349 174.113 50.0524 174.728 52.1724 174.728V169.728V164.728C52.057 164.728 52.0998 164.712 52.2423 164.761C52.399 164.815 52.5856 164.917 52.7517 165.068L49.3884 168.768ZM52.1724 169.728V174.728C54.4321 174.728 57.154 174.095 59.0855 171.777L55.2444 168.576L51.4033 165.375C51.6895 165.032 52.0193 164.841 52.2408 164.758C52.4256 164.689 52.4409 164.728 52.1724 164.728V169.728ZM55.2444 168.576L59.0855 171.777C60.6268 169.927 61.2044 167.723 61.2044 165.6H56.2044H51.2044C51.2044 165.772 51.1818 165.796 51.2058 165.721C51.2179 165.683 51.2395 165.629 51.2749 165.564C51.3105 165.498 51.3541 165.434 51.4033 165.375L55.2444 168.576ZM127.961 135.36V130.36H124.254L123.177 133.908L127.961 135.36ZM126.329 140.736L121.545 139.284L119.264 146.796L127.036 145.686L126.329 140.736ZM151.961 145.248L148.647 148.992L148.662 149.005L148.677 149.018L151.961 145.248ZM153.977 170.592L150.176 167.345L150.156 167.368L150.136 167.391L153.977 170.592ZM144.089 177.504L142.309 172.832L144.089 177.504ZM125.081 178.464L122.509 182.751L122.573 182.79L122.638 182.827L125.081 178.464ZM124.313 169.728L120.778 166.192L120.727 166.243L120.678 166.295L124.313 169.728ZM128.633 167.808L128.356 162.816L128.31 162.818L128.264 162.822L128.633 167.808ZM138.713 166.08L136.81 161.457L136.785 161.467L136.761 161.477L138.713 166.08ZM139.385 156.288L142.159 152.128L139.385 156.288ZM127.961 155.52L129.931 160.116L130.022 160.077L130.111 160.034L127.961 155.52ZM123.353 158.304L120.377 154.286L120.365 154.295L120.353 154.304L123.353 158.304ZM119.225 160.896L117.085 156.377V156.377L119.225 160.896ZM109.241 159.84L105.878 163.54L105.919 163.577L105.96 163.613L109.241 159.84ZM110.585 134.88L115.465 135.971L116.709 130.408L111.031 129.9L110.585 134.88ZM101.081 132.48L98.4314 136.72L98.4797 136.75L98.5287 136.779L101.081 132.48ZM101.945 120.192L103.86 124.811L103.888 124.799L103.915 124.788L101.945 120.192ZM114.905 118.272L115.013 123.271L118.283 123.201L119.529 120.176L114.905 118.272ZM118.649 113.472L121.345 117.683L121.345 117.683L118.649 113.472ZM128.537 113.664L125.456 117.602L125.55 117.675L125.647 117.744L128.537 113.664ZM131.321 118.272L126.385 119.068L127.063 123.272H131.321V118.272ZM150.809 118.848L150.149 123.804L150.156 123.805L150.163 123.806L150.809 118.848ZM157.529 132.48L160.555 136.461L160.566 136.452L160.578 136.443L157.529 132.48ZM150.617 134.88L151.158 139.851L151.204 139.846L151.251 139.84L150.617 134.88ZM127.961 135.36L123.177 133.908L121.545 139.284L126.329 140.736L131.114 142.188L132.746 136.812L127.961 135.36ZM126.329 140.736L127.036 145.686C129.941 145.271 132.84 145.064 135.737 145.064V140.064V135.064C132.362 135.064 128.99 135.305 125.622 135.786L126.329 140.736ZM135.737 140.064V145.064C141.833 145.064 145.921 146.578 148.647 148.992L151.961 145.248L155.276 141.504C150.194 137.006 143.466 135.064 135.737 135.064V140.064ZM151.961 145.248L148.677 149.018C151.393 151.383 152.913 154.656 152.913 159.456H157.913H162.913C162.913 152.224 160.466 146.025 155.245 141.478L151.961 145.248ZM157.913 159.456H152.913C152.913 162.717 151.964 165.251 150.176 167.345L153.977 170.592L157.779 173.839C161.239 169.789 162.913 164.899 162.913 159.456H157.913ZM153.977 170.592L150.136 167.391C148.169 169.752 145.605 171.576 142.309 172.832L144.089 177.504L145.869 182.176C150.638 180.36 154.666 177.576 157.818 173.793L153.977 170.592ZM144.089 177.504L142.309 172.832C138.833 174.156 135.308 174.808 131.705 174.808V179.808V184.808C136.551 184.808 141.281 183.924 145.869 182.176L144.089 177.504ZM131.705 179.808V174.808C129.326 174.808 128.082 174.414 127.524 174.101L125.081 178.464L122.638 182.827C125.281 184.306 128.453 184.808 131.705 184.808V179.808ZM125.081 178.464L127.654 174.177C127.612 174.151 127.586 174.132 127.573 174.123C127.56 174.113 127.559 174.111 127.567 174.118C127.575 174.126 127.588 174.141 127.604 174.162C127.621 174.184 127.637 174.209 127.652 174.236C127.667 174.263 127.678 174.287 127.686 174.307C127.693 174.326 127.696 174.337 127.695 174.336C127.695 174.335 127.681 174.277 127.681 174.144H122.681H117.681C117.681 177.758 119.35 180.856 122.509 182.751L125.081 178.464ZM122.681 174.144H127.681C127.681 173.448 127.854 173.262 127.948 173.161L124.313 169.728L120.678 166.295C118.597 168.498 117.681 171.256 117.681 174.144H122.681ZM124.313 169.728L127.849 173.264C128.097 173.016 128.387 172.84 129.003 172.794L128.633 167.808L128.264 162.822C125.423 163.032 122.834 164.136 120.778 166.192L124.313 169.728ZM128.633 167.808L128.911 172.8C133.633 172.538 137.719 171.933 140.666 170.683L138.713 166.08L136.761 161.477C135.484 162.019 132.849 162.566 128.356 162.816L128.633 167.808ZM138.713 166.08L140.617 170.703C142.413 169.964 144.093 168.789 145.296 167.02C146.504 165.243 146.977 163.24 146.977 161.28H141.977H136.977C136.977 161.463 136.956 161.538 136.957 161.534C136.957 161.532 136.962 161.515 136.975 161.487C136.988 161.46 137.005 161.428 137.027 161.396C137.074 161.327 137.113 161.297 137.104 161.304C137.09 161.315 137.006 161.376 136.81 161.457L138.713 166.08ZM141.977 161.28H146.977C146.977 157.528 145.355 154.259 142.159 152.128L139.385 156.288L136.612 160.448C136.851 160.607 136.89 160.7 136.892 160.704C136.899 160.718 136.977 160.865 136.977 161.28H141.977ZM139.385 156.288L142.159 152.128C139.456 150.326 136.33 149.56 133.049 149.56V154.56V159.56C134.76 159.56 135.859 159.946 136.612 160.448L139.385 156.288ZM133.049 154.56V149.56C130.521 149.56 128.03 149.949 125.812 151.006L127.961 155.52L130.111 160.034C130.581 159.811 131.482 159.56 133.049 159.56V154.56ZM127.961 155.52L125.992 150.924C124.167 151.706 122.286 152.873 120.377 154.286L123.353 158.304L126.33 162.322C127.877 161.175 129.068 160.486 129.931 160.116L127.961 155.52ZM123.353 158.304L120.353 154.304C118.982 155.332 117.9 155.991 117.085 156.377L119.225 160.896L121.366 165.415C122.983 164.649 124.652 163.58 126.353 162.304L123.353 158.304ZM119.225 160.896L117.085 156.377C116.721 156.549 115.999 156.76 114.713 156.76V161.76V166.76C117.012 166.76 119.297 166.395 121.366 165.415L119.225 160.896ZM114.713 161.76V156.76C113.594 156.76 112.978 156.463 112.522 156.067L109.241 159.84L105.96 163.613C108.449 165.777 111.481 166.76 114.713 166.76V161.76ZM109.241 159.84L112.605 156.14C112.288 155.853 112.129 155.587 112.129 154.944H107.129H102.129C102.129 158.269 103.378 161.267 105.878 163.54L109.241 159.84ZM107.129 154.944H112.129C112.129 152.534 113.128 146.422 115.465 135.971L110.585 134.88L105.706 133.789C103.435 143.946 102.129 151.21 102.129 154.944H107.129ZM110.585 134.88L111.031 129.9C106.98 129.537 104.712 128.82 103.634 128.181L101.081 132.48L98.5287 136.779C101.547 138.572 105.615 139.455 110.139 139.86L110.585 134.88ZM101.081 132.48L103.731 128.24C103.291 127.965 103.009 127.703 103.009 126.624H98.0094H93.0094C93.0094 130.793 94.7761 134.435 98.4314 136.72L101.081 132.48ZM98.0094 126.624H103.009C103.009 125.697 103.198 125.324 103.258 125.226C103.292 125.17 103.392 125.005 103.86 124.811L101.945 120.192L100.03 115.573C97.875 116.467 96.0063 117.918 94.7285 120.006C93.4769 122.052 93.0094 124.351 93.0094 126.624H98.0094ZM101.945 120.192L103.915 124.788C105.672 124.035 109.177 123.396 115.013 123.271L114.905 118.272L114.798 113.273C108.73 113.404 103.595 114.045 99.9758 115.596L101.945 120.192ZM114.905 118.272L119.529 120.176C120.128 118.72 120.796 118.034 121.345 117.683L118.649 113.472L115.954 109.261C113.302 110.958 111.474 113.472 110.282 116.368L114.905 118.272ZM118.649 113.472L121.345 117.683C122.191 117.142 122.959 116.936 123.737 116.936V111.936V106.936C120.932 106.936 118.308 107.754 115.954 109.261L118.649 113.472ZM123.737 111.936V116.936C124.255 116.936 124.787 117.078 125.456 117.602L128.537 113.664L131.619 109.726C129.344 107.946 126.676 106.936 123.737 106.936V111.936ZM128.537 113.664L125.647 117.744C126.009 118 126.263 118.309 126.385 119.068L131.321 118.272L136.258 117.476C135.74 114.267 134.138 111.504 131.427 109.584L128.537 113.664ZM131.321 118.272V123.272H138.713V118.272V113.272H131.321V118.272ZM138.713 118.272V123.272C143.819 123.272 147.594 123.464 150.149 123.804L150.809 118.848L151.47 113.892C148.265 113.464 143.976 113.272 138.713 113.272V118.272ZM150.809 118.848L150.163 123.806C152.626 124.127 153.948 124.734 154.6 125.229L157.625 121.248L160.651 117.267C158.102 115.33 154.881 114.337 151.456 113.89L150.809 118.848ZM157.625 121.248L154.6 125.229C154.71 125.313 154.773 125.389 154.834 125.531C154.909 125.706 155.025 126.093 155.025 126.816H160.025H165.025C165.025 123.177 163.795 119.656 160.651 117.267L157.625 121.248ZM160.025 126.816H155.025C155.025 128.089 154.675 128.367 154.481 128.517L157.529 132.48L160.578 136.443C163.712 134.033 165.025 130.535 165.025 126.816H160.025ZM157.529 132.48L154.504 128.499C153.869 128.981 152.531 129.595 149.984 129.92L150.617 134.88L151.251 139.84C154.719 139.397 157.989 138.411 160.555 136.461L157.529 132.48ZM150.617 134.88L150.077 129.909C147.4 130.2 143.482 130.36 138.233 130.36V135.36V140.36C143.608 140.36 147.947 140.2 151.158 139.851L150.617 134.88ZM138.233 135.36V130.36H129.017V135.36V140.36H138.233V135.36ZM129.017 135.36V130.36H127.961V135.36V140.36H129.017V135.36ZM207.669 140.16L202.952 138.503L201.133 143.68L206.456 145.011L207.669 140.16ZM215.925 144.672L212.39 148.208L212.415 148.233L212.441 148.258L215.925 144.672ZM217.077 162.528L212.743 160.036L212.732 160.053L212.722 160.071L217.077 162.528ZM211.317 168.48L213.872 172.778L213.889 172.768L213.906 172.757L211.317 168.48ZM200.469 169.344L197.067 173.008L197.13 173.066L197.194 173.122L200.469 169.344ZM199.893 163.2L196.023 160.034L196.006 160.055L195.989 160.077L199.893 163.2ZM202.389 160.992L205.273 165.077L205.395 164.99L205.513 164.896L202.389 160.992ZM204.405 159.168L200.642 155.875L200.625 155.895L200.609 155.914L204.405 159.168ZM203.445 154.56L200.91 158.87L201.007 158.926L201.106 158.979L203.445 154.56ZM191.061 155.04L189.57 150.268L185.055 151.678L186.213 156.264L191.061 155.04ZM193.461 164.544L198.33 163.408L198.32 163.364L198.309 163.32L193.461 164.544ZM194.133 167.424L199.004 166.293L199.002 166.288L194.133 167.424ZM193.941 178.368L190.53 174.713H190.53L193.941 178.368ZM186.837 178.176L183.189 181.596V181.596L186.837 178.176ZM183.669 172.992L179.134 175.098L179.142 175.115L179.15 175.132L183.669 172.992ZM178.389 159.264L183.133 157.683L181.602 153.09L176.962 154.472L178.389 159.264ZM165.621 158.4L161.684 161.482L161.724 161.534L161.766 161.584L165.621 158.4ZM170.325 145.536L172.534 150.021L172.548 150.015L172.561 150.008L170.325 145.536ZM171.669 144.864L169.638 140.295L169.535 140.341L169.433 140.392L171.669 144.864ZM173.685 144L175.608 148.615L179.49 146.998L178.562 142.896L173.685 144ZM174.261 132.288L177.797 135.824V135.824L174.261 132.288ZM186.261 136.8L181.385 137.908L181.412 138.024L181.444 138.138L186.261 136.8ZM187.221 140.256L182.404 141.594L183.599 145.899L188.011 145.193L187.221 140.256ZM194.517 139.296L194.901 144.281L198.658 143.992L199.415 140.301L194.517 139.296ZM196.149 133.248L191.482 131.453L191.475 131.473L191.467 131.492L196.149 133.248ZM207.093 129.696L210.427 125.97L210.427 125.97L207.093 129.696ZM207.669 140.16L206.456 145.011C209.009 145.649 210.926 146.744 212.39 148.208L215.925 144.672L219.461 141.136C216.572 138.248 212.985 136.335 208.882 135.309L207.669 140.16ZM215.925 144.672L212.441 148.258C213.466 149.254 214.285 150.885 214.285 153.888H219.285H224.285C224.285 148.955 222.864 144.442 219.409 141.086L215.925 144.672ZM219.285 153.888H214.285C214.285 156.289 213.742 158.297 212.743 160.036L217.077 162.528L221.412 165.02C223.356 161.639 224.285 157.887 224.285 153.888H219.285ZM217.077 162.528L212.722 160.071C211.733 161.825 210.419 163.179 208.728 164.202L211.317 168.48L213.906 172.757C217.08 170.837 219.605 168.223 221.432 164.985L217.077 162.528ZM211.317 168.48L208.762 164.182C207.147 165.143 205.498 165.592 203.733 165.592V170.592V175.592C207.344 175.592 210.752 174.633 213.872 172.778L211.317 168.48ZM203.733 170.592V165.592C203.724 165.592 203.72 165.592 203.721 165.592C203.721 165.592 203.726 165.592 203.734 165.594C203.741 165.595 203.75 165.597 203.761 165.6C203.771 165.603 203.781 165.606 203.791 165.61C203.8 165.613 203.807 165.617 203.812 165.619C203.817 165.621 203.818 165.622 203.815 165.62C203.81 165.617 203.786 165.602 203.744 165.566L200.469 169.344L197.194 173.122C199.019 174.704 201.257 175.592 203.733 175.592V170.592ZM200.469 169.344L203.871 165.68C203.919 165.724 203.972 165.784 204.021 165.856C204.069 165.928 204.102 165.994 204.121 166.044C204.16 166.144 204.125 166.12 204.125 165.888H199.125H194.125C194.125 168.444 194.947 171.04 197.067 173.008L200.469 169.344ZM199.125 165.888H204.125C204.125 165.672 204.15 165.636 204.125 165.726C204.095 165.828 204.009 166.06 203.797 166.323L199.893 163.2L195.989 160.077C194.529 161.901 194.125 164.053 194.125 165.888H199.125ZM199.893 163.2L203.763 166.366C203.954 166.132 204.399 165.693 205.273 165.077L202.389 160.992L199.506 156.907C198.203 157.827 196.984 158.86 196.023 160.034L199.893 163.2ZM202.389 160.992L205.513 164.896C206.514 164.095 207.495 163.246 208.201 162.422L204.405 159.168L200.609 155.914C200.615 155.907 200.592 155.934 200.528 155.998C200.465 156.061 200.377 156.145 200.259 156.252C200.019 156.469 199.692 156.746 199.266 157.088L202.389 160.992ZM204.405 159.168L208.168 162.461C209.517 160.919 210.077 159.06 210.077 157.248H205.077H200.077C200.077 157.143 200.093 156.928 200.19 156.652C200.29 156.367 200.447 156.099 200.642 155.875L204.405 159.168ZM205.077 157.248H210.077C210.077 155.874 209.762 154.417 208.943 153.069C208.126 151.724 206.986 150.777 205.785 150.141L203.445 154.56L201.106 158.979C200.993 158.919 200.668 158.708 200.395 158.259C200.121 157.807 200.077 157.406 200.077 157.248H205.077ZM203.445 154.56L205.98 150.25C203.845 148.994 201.385 148.6 199.029 148.6V153.6V158.6C200.385 158.6 200.869 158.846 200.91 158.87L203.445 154.56ZM199.029 153.6V148.6C196.115 148.6 192.933 149.217 189.57 150.268L191.061 155.04L192.553 159.812C195.334 158.943 197.463 158.6 199.029 158.6V153.6ZM191.061 155.04L186.213 156.264L188.613 165.768L193.461 164.544L198.309 163.32L195.909 153.816L191.061 155.04ZM193.461 164.544L188.592 165.68L189.264 168.56L194.133 167.424L199.002 166.288L198.33 163.408L193.461 164.544ZM194.133 167.424L189.263 168.555C190.099 172.157 190.381 174.175 190.381 175.008H195.381H200.381C200.381 172.897 199.831 169.859 199.004 166.293L194.133 167.424ZM195.381 175.008H190.381C190.381 175.046 190.378 175.046 190.383 175.018C190.389 174.988 190.402 174.942 190.425 174.886C190.449 174.831 190.477 174.783 190.502 174.748C190.527 174.713 190.541 174.702 190.53 174.713L193.941 178.368L197.353 182.023C199.353 180.157 200.381 177.701 200.381 175.008H195.381ZM193.941 178.368L190.53 174.713C190.534 174.708 190.548 174.697 190.567 174.685C190.587 174.673 190.599 174.669 190.596 174.67C190.592 174.671 190.479 174.712 190.197 174.712V179.712V184.712C192.77 184.712 195.312 183.928 197.353 182.023L193.941 178.368ZM190.197 179.712V174.712C190.213 174.712 190.253 174.714 190.31 174.726C190.368 174.738 190.425 174.758 190.476 174.781C190.584 174.83 190.582 174.86 190.485 174.756L186.837 178.176L183.189 181.596C184.993 183.52 187.393 184.712 190.197 184.712V179.712ZM186.837 178.176L190.485 174.756C190.071 174.315 189.282 173.162 188.188 170.852L183.669 172.992L179.15 175.132C180.36 177.686 181.683 179.989 183.189 181.596L186.837 178.176ZM183.669 172.992L188.204 170.886C186.647 167.534 184.955 163.149 183.133 157.683L178.389 159.264L173.646 160.845C175.536 166.515 177.363 171.283 179.134 175.098L183.669 172.992ZM178.389 159.264L176.962 154.472C174.125 155.317 172.266 155.608 171.189 155.608V160.608V165.608C173.696 165.608 176.637 165.003 179.817 164.056L178.389 159.264ZM171.189 160.608V155.608C170.42 155.608 169.983 155.493 169.768 155.408C169.586 155.336 169.522 155.272 169.476 155.216L165.621 158.4L161.766 161.584C164.206 164.538 167.694 165.608 171.189 165.608V160.608ZM165.621 158.4L169.559 155.318C169.063 154.685 168.893 154.128 168.893 153.504H163.893H158.893C158.893 156.464 159.875 159.171 161.684 161.482L165.621 158.4ZM163.893 153.504H168.893C168.893 153.074 169.009 151.758 172.534 150.021L170.325 145.536L168.116 141.051C163.065 143.538 158.893 147.534 158.893 153.504H163.893ZM170.325 145.536L172.561 150.008C172.945 149.816 173.393 149.592 173.905 149.336L171.669 144.864L169.433 140.392C168.921 140.648 168.473 140.872 168.089 141.064L170.325 145.536ZM171.669 144.864L173.7 149.433C174.231 149.197 174.866 148.925 175.608 148.615L173.685 144L171.762 139.385C170.969 139.715 170.259 140.019 169.638 140.295L171.669 144.864ZM173.685 144L178.562 142.896C177.791 139.491 177.533 137.586 177.533 136.8H172.533H167.533C167.533 138.83 168.043 141.725 168.809 145.104L173.685 144ZM172.533 136.8H177.533C177.533 136.069 177.715 135.905 177.797 135.824L174.261 132.288L170.726 128.752C168.503 130.975 167.533 133.819 167.533 136.8H172.533ZM174.261 132.288L177.797 135.824C178.032 135.588 178.245 135.464 178.773 135.464V130.464V125.464C175.717 125.464 172.922 126.556 170.726 128.752L174.261 132.288ZM178.773 130.464V135.464C179.892 135.464 180.291 135.739 180.439 135.865C180.627 136.023 181.068 136.512 181.385 137.908L186.261 136.8L191.137 135.692C190.494 132.864 189.208 130.185 186.899 128.231C184.552 126.245 181.686 125.464 178.773 125.464V130.464ZM186.261 136.8L181.444 138.138L182.404 141.594L187.221 140.256L192.039 138.918L191.079 135.462L186.261 136.8ZM187.221 140.256L188.011 145.193C191.177 144.687 193.446 144.393 194.901 144.281L194.517 139.296L194.134 134.311C192.26 134.455 189.666 134.801 186.431 135.319L187.221 140.256ZM194.517 139.296L199.415 140.301C199.9 137.937 200.382 136.201 200.831 135.004L196.149 133.248L191.467 131.492C190.764 133.367 190.158 135.663 189.619 138.291L194.517 139.296ZM196.149 133.248L200.816 135.043C201.176 134.106 201.581 133.668 201.899 133.433L198.933 129.408L195.967 125.383C193.854 126.94 192.402 129.062 191.482 131.453L196.149 133.248ZM198.933 129.408L201.899 133.433C202.28 133.153 202.59 133.064 202.965 133.064V128.064V123.064C200.396 123.064 198.018 123.871 195.967 125.383L198.933 129.408ZM202.965 128.064V133.064C203.19 133.064 203.398 133.099 203.759 133.422L207.093 129.696L210.427 125.97C208.357 124.117 205.812 123.064 202.965 123.064V128.064ZM207.093 129.696L203.759 133.422C203.817 133.474 203.844 133.508 203.854 133.522C203.864 133.535 203.868 133.543 203.871 133.55C203.872 133.554 203.917 133.651 203.917 133.92H208.917H213.917C213.917 130.864 212.772 128.068 210.427 125.97L207.093 129.696ZM208.917 133.92H203.917C203.917 134.971 203.666 136.47 202.952 138.503L207.669 140.16L212.386 141.817C213.336 139.114 213.917 136.453 213.917 133.92H208.917ZM243.923 179.04L241.968 183.642L242.036 183.671L242.106 183.698L243.923 179.04ZM241.907 169.344L238.372 165.808L241.907 169.344ZM264.371 161.088L259.374 160.941L259.373 160.953L264.371 161.088ZM261.587 156.576L263.575 151.988L261.587 156.576ZM248.915 156L249.837 160.914L249.911 160.901L249.984 160.884L248.915 156ZM245.267 156.672L244.445 151.74L244.293 151.765L244.143 151.8L245.267 156.672ZM232.979 155.904L229.531 159.525L229.573 159.565L229.616 159.604L232.979 155.904ZM232.211 147.168L228.186 144.202L228.134 144.272L228.085 144.345L232.211 147.168ZM236.243 143.52L239.051 147.657L239.094 147.628L239.137 147.598L236.243 143.52ZM248.435 135.744L251.053 140.004L251.076 139.99L251.099 139.975L248.435 135.744ZM253.619 132.48L256.283 136.711L270.945 127.48H253.619V132.48ZM236.627 131.904L237.261 126.944L236.627 131.904ZM229.139 129.312L226.272 133.408L226.303 133.43L226.335 133.452L229.139 129.312ZM230.099 116.064L227.653 111.703L227.63 111.716L227.607 111.729L230.099 116.064ZM239.315 113.376L239.768 118.355L239.808 118.352L239.848 118.348L239.315 113.376ZM254.483 112.704V107.704H254.459L254.434 107.704L254.483 112.704ZM275.123 115.2L273.382 119.887L273.393 119.891L273.404 119.895L275.123 115.2ZM280.691 130.08L276.44 127.448L276.394 127.523L276.35 127.599L280.691 130.08ZM277.427 133.632L274.487 129.588L274.441 129.621L274.397 129.655L277.427 133.632ZM271.283 137.664L273.818 141.974L273.845 141.958L273.87 141.943L271.283 137.664ZM265.715 141.12L262.942 136.96L250.862 145.013L265.339 146.106L265.715 141.12ZM274.643 144L271.918 148.192L271.979 148.231L272.04 148.269L274.643 144ZM280.691 150.24L276.31 152.65L276.333 152.691L276.357 152.732L280.691 150.24ZM275.315 174.72L272.26 170.762L272.247 170.772L272.235 170.781L275.315 174.72ZM254.483 180.576V175.576C250.376 175.576 247.552 175.089 245.741 174.382L243.923 179.04L242.106 183.698C245.543 185.039 249.759 185.576 254.483 185.576V180.576ZM243.923 179.04L245.879 174.438C245.57 174.307 245.386 174.189 245.286 174.112C245.19 174.039 245.162 173.997 245.159 173.993C245.158 173.992 245.147 173.977 245.131 173.922C245.114 173.861 245.083 173.721 245.083 173.472H240.083H235.083C235.083 175.627 235.622 177.778 236.927 179.671C238.219 181.544 240.019 182.814 241.968 183.642L243.923 179.04ZM240.083 173.472H245.083C245.083 173.385 245.096 173.347 245.113 173.309C245.134 173.26 245.21 173.113 245.443 172.88L241.907 169.344L238.372 165.808C236.341 167.84 235.083 170.446 235.083 173.472H240.083ZM241.907 169.344L245.443 172.88C245.472 172.851 245.548 172.779 245.772 172.702C246.019 172.617 246.464 172.52 247.187 172.52V167.52V162.52C244.022 162.52 240.81 163.371 238.372 165.808L241.907 169.344ZM247.187 167.52V172.52C252.233 172.52 256.76 172.012 260.669 170.884L259.283 166.08L257.898 161.276C255.151 162.068 251.614 162.52 247.187 162.52V167.52ZM259.283 166.08L260.669 170.884C262.79 170.272 264.904 169.299 266.553 167.681C268.323 165.945 269.302 163.707 269.37 161.223L264.371 161.088L259.373 160.953C259.373 160.958 259.373 160.935 259.383 160.89C259.393 160.845 259.409 160.791 259.435 160.732C259.491 160.603 259.553 160.54 259.55 160.543C259.503 160.589 259.104 160.928 257.898 161.276L259.283 166.08ZM264.371 161.088L269.369 161.235C269.423 159.398 269.064 157.461 267.979 155.702C266.884 153.929 265.297 152.734 263.575 151.988L261.587 156.576L259.599 161.164C259.71 161.212 259.718 161.231 259.67 161.192C259.617 161.148 259.539 161.068 259.468 160.954C259.399 160.841 259.372 160.752 259.366 160.725C259.361 160.704 259.379 160.767 259.374 160.941L264.371 161.088ZM261.587 156.576L263.575 151.988C260.967 150.858 258.17 150.328 255.251 150.328V155.328V160.328C256.941 160.328 258.368 160.63 259.599 161.164L261.587 156.576ZM255.251 155.328V150.328C252.73 150.328 250.259 150.588 247.847 151.116L248.915 156L249.984 160.884C251.668 160.516 253.421 160.328 255.251 160.328V155.328ZM248.915 156L247.994 151.086C245.918 151.475 244.766 151.687 244.445 151.74L245.267 156.672L246.089 161.604C246.536 161.529 247.817 161.293 249.837 160.914L248.915 156ZM245.267 156.672L244.143 151.8C240.848 152.56 238.894 152.824 237.971 152.824V157.824V162.824C240.121 162.824 243.031 162.32 246.392 161.544L245.267 156.672ZM237.971 157.824V152.824C237.283 152.824 236.821 152.639 236.343 152.204L232.979 155.904L229.616 159.604C231.954 161.729 234.82 162.824 237.971 162.824V157.824ZM232.979 155.904L236.428 152.283C235.948 151.827 235.963 151.619 235.963 151.488H230.963H225.963C225.963 154.685 227.322 157.421 229.531 159.525L232.979 155.904ZM230.963 151.488H235.963C235.963 150.697 236.147 150.271 236.338 149.991L232.211 147.168L228.085 144.345C226.612 146.497 225.963 148.951 225.963 151.488H230.963ZM232.211 147.168L236.237 150.134C236.685 149.526 237.542 148.681 239.051 147.657L236.243 143.52L233.436 139.383C231.361 140.791 229.53 142.378 228.186 144.202L232.211 147.168ZM236.243 143.52L239.137 147.598C240.964 146.301 244.887 143.794 251.053 140.004L248.435 135.744L245.817 131.484C239.696 135.246 235.491 137.923 233.35 139.442L236.243 143.52ZM248.435 135.744L251.099 139.975L256.283 136.711L253.619 132.48L250.955 128.249L245.771 131.513L248.435 135.744ZM253.619 132.48V127.48H247.955V132.48V137.48H253.619V132.48ZM247.955 132.48V127.48C243.53 127.48 239.983 127.292 237.261 126.944L236.627 131.904L235.994 136.864C239.288 137.284 243.293 137.48 247.955 137.48V132.48ZM236.627 131.904L237.261 126.944C234.829 126.634 233.129 125.975 231.944 125.172L229.139 129.312L226.335 133.452C229.118 135.337 232.409 136.406 235.994 136.864L236.627 131.904ZM229.139 129.312L232.007 125.216C231.67 124.98 231.259 124.614 231.259 123.168H226.259H221.259C221.259 127.226 222.769 130.956 226.272 133.408L229.139 129.312ZM226.259 123.168H231.259C231.259 121.465 231.771 120.87 232.592 120.399L230.099 116.064L227.607 111.729C223.307 114.202 221.259 118.343 221.259 123.168H226.259ZM230.099 116.064L232.546 120.425C234.458 119.352 236.828 118.623 239.768 118.355L239.315 113.376L238.863 108.397C234.763 108.769 230.989 109.832 227.653 111.703L230.099 116.064ZM239.315 113.376L239.848 118.348C243.192 117.989 248.059 117.767 254.532 117.704L254.483 112.704L254.434 107.704C247.852 107.769 242.607 107.995 238.783 108.404L239.315 113.376ZM254.483 112.704V117.704H257.651V112.704V107.704H254.483V112.704ZM257.651 112.704V117.704C264.493 117.704 269.665 118.506 273.382 119.887L275.123 115.2L276.864 110.513C271.622 108.566 265.146 107.704 257.651 107.704V112.704ZM275.123 115.2L273.404 119.895C274.898 120.442 275.668 121.122 276.106 121.763C276.552 122.417 276.939 123.452 276.939 125.184H281.939H286.939C286.939 121.924 286.191 118.799 284.365 116.125C282.531 113.438 279.893 111.622 276.843 110.505L275.123 115.2ZM281.939 125.184H276.939C276.939 126.374 276.687 127.049 276.44 127.448L280.691 130.08L284.943 132.712C286.36 130.423 286.939 127.833 286.939 125.184H281.939ZM280.691 130.08L276.35 127.599C275.974 128.257 275.394 128.928 274.487 129.588L277.427 133.632L280.368 137.676C282.277 136.288 283.872 134.591 285.033 132.561L280.691 130.08ZM277.427 133.632L274.397 129.655C273.27 130.513 271.406 131.747 268.696 133.385L271.283 137.664L273.87 141.943C276.665 140.253 278.896 138.799 280.458 137.609L277.427 133.632ZM271.283 137.664L268.748 133.354C266.518 134.666 264.578 135.869 262.942 136.96L265.715 141.12L268.489 145.28C269.924 144.323 271.696 143.222 273.818 141.974L271.283 137.664ZM265.715 141.12L265.339 146.106C267.991 146.306 270.14 147.036 271.918 148.192L274.643 144L277.368 139.808C274.027 137.636 270.223 136.446 266.092 136.134L265.715 141.12ZM274.643 144L272.04 148.269C273.96 149.439 275.345 150.894 276.31 152.65L280.691 150.24L285.072 147.83C283.222 144.466 280.575 141.761 277.246 139.731L274.643 144ZM280.691 150.24L276.357 152.732C277.384 154.519 277.899 156.442 277.899 158.592H282.899H287.899C287.899 154.726 286.942 151.081 285.026 147.748L280.691 150.24ZM282.899 158.592H277.899C277.899 164.02 275.991 167.881 272.26 170.762L275.315 174.72L278.371 178.678C284.752 173.751 287.899 166.86 287.899 158.592H282.899ZM275.315 174.72L272.235 170.781C268.417 173.768 262.705 175.576 254.483 175.576V180.576V185.576C264.054 185.576 272.23 183.48 278.396 178.659L275.315 174.72ZM315.986 176.544L313.413 180.831L313.452 180.855L313.491 180.877L315.986 176.544ZM297.842 164.064L294.852 168.072L294.868 168.083L294.883 168.095L297.842 164.064ZM289.682 156.48L285.463 159.164L285.511 159.239L285.561 159.313L289.682 156.48ZM289.778 142.176L285.636 139.374L285.608 139.417L285.58 139.46L289.778 142.176ZM297.842 133.152L301.348 136.717L301.353 136.712L297.842 133.152ZM312.146 120.96L309.239 116.891L309.227 116.9L309.214 116.909L312.146 120.96ZM330.866 117.792L327.777 121.724L327.81 121.75L327.844 121.775L330.866 117.792ZM332.21 128.832L328.022 126.101L328.006 126.124L327.991 126.148L332.21 128.832ZM328.178 133.152L325.004 129.288L324.969 129.317L324.935 129.346L328.178 133.152ZM319.442 139.872L322.34 143.946L322.371 143.924L322.401 143.902L319.442 139.872ZM309.938 146.88L312.938 150.88L312.958 150.865L312.978 150.849L309.938 146.88ZM309.938 150.72L307.288 154.96L307.302 154.969L307.317 154.978L309.938 150.72ZM324.722 160.32L321.8 164.378L321.846 164.411L321.892 164.443L324.722 160.32ZM331.922 166.656L335.875 163.595L331.922 166.656ZM331.922 178.176L328.629 174.413L328.589 174.448L328.55 174.484L331.922 178.176ZM326.642 151.008L322.131 153.165L322.188 153.285L322.252 153.402L326.642 151.008ZM326.642 138.816L322.3 136.335L322.28 136.371L322.261 136.406L326.642 138.816ZM334.322 151.008L329.969 148.548L329.95 148.581L329.932 148.614L334.322 151.008ZM338.642 151.008L334.056 153.002L334.11 153.124L334.169 153.244L338.642 151.008ZM326.45 180.192V175.192C325.014 175.192 322.451 174.497 318.48 172.211L315.986 176.544L313.491 180.877C317.968 183.455 322.381 185.192 326.45 185.192V180.192ZM315.986 176.544L318.558 172.257C314.605 169.885 308.71 165.838 300.8 160.033L297.842 164.064L294.883 168.095C302.845 173.938 309.046 178.211 313.413 180.831L315.986 176.544ZM297.842 164.064L300.831 160.056C296.884 157.112 294.722 154.986 293.802 153.647L289.682 156.48L285.561 159.313C287.457 162.07 290.735 165 294.852 168.072L297.842 164.064ZM289.682 156.48L293.9 153.796C293.117 152.565 292.666 151.083 292.666 149.184H287.666H282.666C282.666 152.789 283.559 156.171 285.463 159.164L289.682 156.48ZM287.666 149.184H292.666C292.666 147.69 293.07 146.292 293.975 144.892L289.778 142.176L285.58 139.46C283.669 142.412 282.666 145.686 282.666 149.184H287.666ZM289.778 142.176L293.919 144.978C295.097 143.237 297.483 140.518 301.348 136.717L297.842 133.152L294.335 129.587C290.392 133.466 287.403 136.763 285.636 139.374L289.778 142.176ZM297.842 133.152L301.353 136.712C305.861 132.266 310.436 128.369 315.077 125.011L312.146 120.96L309.214 116.909C304.127 120.591 299.167 124.822 294.331 129.592L297.842 133.152ZM312.146 120.96L315.052 125.029C319.779 121.652 322.763 120.68 324.338 120.68V115.68V110.68C319.513 110.68 314.369 113.228 309.239 116.891L312.146 120.96ZM324.338 115.68V120.68C325.923 120.68 326.974 121.093 327.777 121.724L330.866 117.792L333.955 113.86C331.174 111.675 327.872 110.68 324.338 110.68V115.68ZM330.866 117.792L327.844 121.775C328.284 122.109 328.65 122.554 328.65 123.84H333.65H338.65C338.65 119.878 337.159 116.291 333.888 113.809L330.866 117.792ZM333.65 123.84H328.65C328.65 124.783 328.421 125.488 328.022 126.101L332.21 128.832L336.398 131.563C337.918 129.232 338.65 126.609 338.65 123.84H333.65ZM332.21 128.832L327.991 126.148C327.466 126.974 326.534 128.031 325.004 129.288L328.178 133.152L331.351 137.016C333.405 135.329 335.162 133.506 336.428 131.516L332.21 128.832ZM328.178 133.152L324.935 129.346C323.356 130.692 320.57 132.84 316.482 135.842L319.442 139.872L322.401 143.902C326.506 140.888 329.544 138.556 331.42 136.958L328.178 133.152ZM319.442 139.872L316.543 135.798C313.171 138.197 309.955 140.568 306.897 142.911L309.938 146.88L312.978 150.849C315.936 148.584 319.057 146.283 322.34 143.946L319.442 139.872ZM309.938 146.88L306.938 142.88C306.226 143.414 305.448 144.09 304.808 144.93C304.186 145.746 303.402 147.107 303.402 148.896H308.402H313.402C313.402 150.109 312.873 150.846 312.763 150.99C312.635 151.158 312.626 151.114 312.938 150.88L309.938 146.88ZM308.402 148.896H303.402C303.402 150.742 304.233 152.14 304.961 153.005C305.679 153.858 306.538 154.492 307.288 154.96L309.938 150.72L312.588 146.48C312.313 146.308 312.404 146.318 312.61 146.563C312.826 146.82 313.402 147.626 313.402 148.896H308.402ZM309.938 150.72L307.317 154.978C313.949 159.06 318.752 162.183 321.8 164.378L324.722 160.32L327.643 156.262C324.291 153.849 319.238 150.572 312.558 146.462L309.938 150.72ZM324.722 160.32L321.892 164.443C324.946 166.538 326.878 168.309 327.968 169.717L331.922 166.656L335.875 163.595C333.893 161.035 331.026 158.582 327.551 156.197L324.722 160.32ZM331.922 166.656L327.968 169.717C328.934 170.965 329.226 171.993 329.226 172.896H334.226H339.226C339.226 169.447 337.981 166.315 335.875 163.595L331.922 166.656ZM334.226 172.896H329.226C329.226 173.738 329.001 174.087 328.629 174.413L331.922 178.176L335.214 181.939C337.914 179.577 339.226 176.406 339.226 172.896H334.226ZM331.922 178.176L328.55 174.484C328.087 174.906 327.502 175.192 326.45 175.192V180.192V185.192C329.749 185.192 332.812 184.134 335.293 181.868L331.922 178.176ZM330.482 153.12V148.12C330.239 148.12 330.339 148.075 330.587 148.211C330.706 148.276 330.815 148.361 330.903 148.451C330.989 148.539 331.026 148.605 331.031 148.614L326.642 151.008L322.252 153.402C324.015 156.634 327.122 158.12 330.482 158.12V153.12ZM326.642 151.008L331.152 148.851C330.93 148.385 330.586 147.101 330.586 144.48H325.586H320.586C320.586 147.619 320.946 150.687 322.131 153.165L326.642 151.008ZM325.586 144.48H330.586C330.586 142.305 330.918 141.416 331.023 141.226L326.642 138.816L322.261 136.406C320.957 138.776 320.586 141.663 320.586 144.48H325.586ZM326.642 138.816L330.983 141.297C330.965 141.327 330.915 141.404 330.821 141.497C330.725 141.592 330.614 141.672 330.502 141.731C330.273 141.851 330.205 141.8 330.482 141.8V136.8V131.8C327.234 131.8 324.115 133.16 322.3 136.335L326.642 138.816ZM330.482 136.8V141.8C330.688 141.8 330.626 141.837 330.438 141.741C330.35 141.696 330.269 141.639 330.203 141.579C330.139 141.52 330.112 141.479 330.114 141.482C330.124 141.497 330.249 141.701 330.366 142.239C330.483 142.775 330.57 143.537 330.57 144.576H335.57H340.57C340.57 141.598 340.111 138.497 338.482 136.006C336.61 133.147 333.675 131.8 330.482 131.8V136.8ZM335.57 144.576H330.57C330.57 147.038 330.182 148.171 329.969 148.548L334.322 151.008L338.674 153.468C340.125 150.901 340.57 147.746 340.57 144.576H335.57ZM334.322 151.008L329.932 148.614C329.937 148.605 329.975 148.539 330.06 148.451C330.148 148.361 330.257 148.276 330.376 148.211C330.624 148.075 330.724 148.12 330.482 148.12V153.12V158.12C333.841 158.12 336.948 156.634 338.711 153.402L334.322 151.008ZM342.386 153.12V148.12C342.138 148.12 342.271 148.073 342.562 148.237C342.704 148.317 342.836 148.422 342.944 148.538C343.048 148.652 343.099 148.742 343.114 148.772L338.642 151.008L334.169 153.244C334.921 154.748 336.072 156.057 337.649 156.947C339.188 157.815 340.842 158.12 342.386 158.12V153.12ZM338.642 151.008L343.227 149.014C342.985 148.457 342.682 147.172 342.682 144.768H337.682H332.682C332.682 147.74 333.018 150.615 334.056 153.002L338.642 151.008ZM337.682 144.768H342.682C342.682 143.681 342.766 142.869 342.886 142.285C343.007 141.696 343.14 141.451 343.166 141.41C343.171 141.401 343.067 141.559 342.82 141.693C342.583 141.821 342.451 141.8 342.578 141.8V136.8V131.8C339.307 131.8 336.422 133.283 334.646 136.174C333.114 138.667 332.682 141.762 332.682 144.768H337.682ZM342.578 136.8V141.8C342.848 141.8 342.845 141.847 342.699 141.778C342.528 141.697 342.411 141.574 342.372 141.519C342.355 141.495 342.462 141.638 342.569 142.096C342.676 142.556 342.762 143.236 342.762 144.192H347.762H352.762C352.762 141.297 352.282 138.233 350.559 135.777C348.61 132.997 345.657 131.8 342.578 131.8V136.8ZM347.762 144.192H342.762C342.762 146.829 342.335 147.975 342.134 148.309C342.078 148.401 342.125 148.293 342.316 148.188C342.5 148.086 342.576 148.12 342.386 148.12V153.12V158.12C345.863 158.12 348.866 156.515 350.701 153.467C352.292 150.825 352.762 147.507 352.762 144.192H347.762Z" fill="#727B6B" mask="url(#path-14-outside-1_151_252)"/>
<defs>
<clipPath id="clip0_151_252">
<rect width="1200" height="190.264" fill="white" transform="translate(-412.284 -216) rotate(22.469)"/>
</clipPath>
<clipPath id="clip1_151_252">
<rect width="1200" height="190.264" fill="white" transform="translate(-335.07 -201.224) rotate(22.469)"/>
</clipPath>
<clipPath id="clip2_151_252">
<rect width="1271" height="193.573" fill="white" transform="translate(908.001 569.463) rotate(-157.61)"/>
</clipPath>
<clipPath id="clip3_151_252">
<rect width="1271" height="193.573" fill="white" transform="translate(755.227 506.525) rotate(-157.61)"/>
</clipPath>
</defs>
</svg>
