<svg width="331" height="82" viewBox="0 0 331 82" fill="none" xmlns="http://www.w3.org/2000/svg">
<mask id="path-1-outside-1_4_21" maskUnits="userSpaceOnUse" x="0" y="0" width="331" height="82" fill="black">
<rect fill="white" width="331" height="82"/>
<path d="M49.7564 30.496C55.1324 30.56 59.1964 30.784 61.9484 31.168C64.7004 31.552 66.6844 32.256 67.9004 33.28C69.1804 34.24 69.8204 35.744 69.8204 37.792C69.8204 39.776 69.2124 41.28 67.9964 42.304C66.7804 43.264 64.7964 43.936 62.0444 44.32C59.3564 44.704 55.3564 44.96 50.0444 45.088C50.1084 46.24 50.1404 47.84 50.1404 49.888C54.5564 51.616 58.1084 53.792 60.7964 56.416C63.5484 59.04 64.9244 61.888 64.9244 64.96C64.9244 66.944 64.3164 68.576 63.1004 69.856C61.8844 71.136 60.1884 71.776 58.0124 71.776C56.6044 71.776 55.1004 71.392 53.5004 70.624C51.9004 69.792 49.9484 68.576 47.6444 66.976C46.2364 69.92 44.0604 72.16 41.1164 73.696C38.2364 75.232 34.3644 76 29.5004 76C24.2524 76 19.9964 74.784 16.7324 72.352C13.5324 69.92 11.9324 66.56 11.9324 62.272C11.9324 58.752 12.8924 55.84 14.8124 53.536C16.7964 51.168 19.3244 49.44 22.3964 48.352C25.5324 47.2 28.8924 46.624 32.4764 46.624H33.0524L32.8604 45.088C25.5644 45.024 20.2204 44.864 16.8284 44.608C13.5004 44.288 11.0684 43.648 9.53238 42.688C7.99638 41.664 7.22838 40.032 7.22838 37.792C7.22838 35.616 7.96438 34.048 9.43638 33.088C10.9084 32.064 13.2444 31.392 16.4444 31.072C19.7084 30.752 24.7004 30.56 31.4204 30.496L31.1324 27.904C24.5404 27.84 19.5164 27.648 16.0604 27.328C12.6684 26.944 10.1084 26.208 8.38038 25.12C6.71638 23.968 5.88438 22.24 5.88438 19.936C5.88438 17.632 6.71638 15.904 8.38038 14.752C10.0444 13.6 12.5724 12.864 15.9644 12.544C19.3564 12.16 24.2524 11.936 30.6524 11.872C31.2284 9.632 32.2844 8 33.8204 6.976C35.3564 5.952 37.1164 5.44 39.1004 5.44C41.4044 5.44 43.3244 5.92 44.8604 6.88C46.3964 7.84 47.5164 9.504 48.2204 11.872C54.0444 11.936 58.5244 12.192 61.6604 12.64C64.8604 13.024 67.2284 13.792 68.7644 14.944C70.3644 16.032 71.1644 17.696 71.1644 19.936C71.1644 22.048 70.4284 23.68 68.9564 24.832C67.5484 25.92 65.3404 26.688 62.3324 27.136C59.3244 27.52 55.1004 27.776 49.6604 27.904C49.6604 29.056 49.6924 29.92 49.7564 30.496ZM34.2044 61.6C34.2044 60.768 34.1724 60.032 34.1084 59.392C33.2764 59.2 32.3484 59.104 31.3244 59.104C29.7244 59.104 28.4764 59.424 27.5804 60.064C26.7484 60.64 26.3324 61.408 26.3324 62.368C26.3324 63.328 26.6844 64.128 27.3884 64.768C28.0924 65.408 29.0204 65.728 30.1724 65.728C31.5804 65.728 32.6044 65.344 33.2444 64.576C33.8844 63.808 34.2044 62.816 34.2044 61.6ZM105.961 31.36L104.329 36.736C107.465 36.288 110.601 36.064 113.737 36.064C120.649 36.064 126.057 37.792 129.961 41.248C133.929 44.704 135.913 49.44 135.913 55.456C135.913 59.808 134.601 63.52 131.977 66.592C129.417 69.664 126.121 71.968 122.089 73.504C118.057 75.04 113.929 75.808 109.705 75.808C106.889 75.808 104.681 75.36 103.081 74.464C101.481 73.504 100.681 72.064 100.681 70.144C100.681 68.352 101.225 66.88 102.313 65.728C103.465 64.576 104.905 63.936 106.633 63.808C111.241 63.552 114.601 62.976 116.713 62.08C118.889 61.184 119.977 59.584 119.977 57.28C119.977 55.104 119.113 53.44 117.385 52.288C115.657 51.136 113.545 50.56 111.049 50.56C109.001 50.56 107.305 50.88 105.961 51.52C104.617 52.096 103.081 53.024 101.353 54.304C99.8174 55.456 98.4414 56.32 97.2254 56.896C96.0094 57.472 94.5054 57.76 92.7134 57.76C90.5374 57.76 88.7134 57.12 87.2414 55.84C85.8334 54.56 85.1294 52.928 85.1294 50.944C85.1294 47.872 86.2814 41.184 88.5854 30.88C84.2974 30.496 81.1294 29.696 79.0814 28.48C77.0334 27.2 76.0094 25.248 76.0094 22.624C76.0094 19.424 77.3214 17.28 79.9454 16.192C82.6334 15.04 86.9534 14.4 92.9054 14.272C93.8014 12.096 95.0494 10.496 96.6494 9.472C98.2494 8.448 99.9454 7.936 101.737 7.936C103.465 7.936 105.065 8.512 106.537 9.664C108.073 10.752 109.001 12.288 109.321 14.272H116.713C121.897 14.272 125.929 14.464 128.809 14.848C131.753 15.232 134.025 16.032 135.625 17.248C137.225 18.464 138.025 20.32 138.025 22.816C138.025 25.312 137.193 27.2 135.529 28.48C133.929 29.696 131.625 30.496 128.617 30.88C125.673 31.2 121.545 31.36 116.233 31.36H107.017H105.961ZM185.669 36.16C188.997 36.992 191.749 38.496 193.925 40.672C196.165 42.848 197.285 45.92 197.285 49.888C197.285 53.088 196.549 55.968 195.077 58.528C193.669 61.024 191.749 63.008 189.317 64.48C186.949 65.888 184.421 66.592 181.733 66.592C180.517 66.592 179.429 66.176 178.469 65.344C177.573 64.512 177.125 63.36 177.125 61.888C177.125 60.736 177.381 59.84 177.893 59.2C178.469 58.496 179.301 57.76 180.389 56.992C181.349 56.224 182.021 55.616 182.405 55.168C182.853 54.656 183.077 54.016 183.077 53.248C183.077 52.032 182.533 51.136 181.445 50.56C180.357 49.92 178.885 49.6 177.029 49.6C174.789 49.6 172.133 50.08 169.061 51.04L171.461 60.544L172.133 63.424C172.965 67.008 173.381 69.536 173.381 71.008C173.381 72.352 172.901 73.472 171.941 74.368C170.981 75.264 169.733 75.712 168.197 75.712C166.917 75.712 165.797 75.2 164.837 74.176C163.877 73.152 162.821 71.424 161.669 68.992C160.005 65.408 158.245 60.832 156.389 55.264C153.381 56.16 150.981 56.608 149.189 56.608C146.693 56.608 144.837 55.872 143.621 54.4C142.469 52.928 141.893 51.296 141.893 49.504C141.893 46.304 144.037 43.648 148.325 41.536C148.709 41.344 149.157 41.12 149.669 40.864C150.245 40.608 150.917 40.32 151.685 40C150.917 36.608 150.533 34.208 150.533 32.8C150.533 30.944 151.109 29.44 152.261 28.288C153.477 27.072 154.981 26.464 156.773 26.464C160.805 26.464 163.301 28.576 164.261 32.8L165.221 36.256C168.421 35.744 170.853 35.424 172.517 35.296C173.029 32.8 173.573 30.784 174.149 29.248C174.789 27.584 175.717 26.304 176.933 25.408C178.149 24.512 179.493 24.064 180.965 24.064C182.501 24.064 183.877 24.608 185.093 25.696C186.309 26.784 186.917 28.192 186.917 29.92C186.917 31.712 186.501 33.792 185.669 36.16ZM232.483 76.576C228.067 76.576 224.547 76.064 221.923 75.04C219.363 73.952 218.083 72.096 218.083 69.472C218.083 67.936 218.691 66.56 219.907 65.344C221.123 64.128 222.883 63.52 225.187 63.52C229.923 63.52 233.955 63.04 237.283 62.08C240.611 61.12 242.307 59.456 242.371 57.088C242.435 54.912 241.507 53.408 239.587 52.576C237.667 51.744 235.555 51.328 233.251 51.328C231.075 51.328 228.963 51.552 226.915 52C224.867 52.384 223.651 52.608 223.267 52.672C219.939 53.44 217.507 53.824 215.971 53.824C214.051 53.824 212.387 53.184 210.979 51.904C209.635 50.624 208.963 49.152 208.963 47.488C208.963 45.824 209.379 44.384 210.211 43.168C211.107 41.952 212.451 40.736 214.243 39.52C216.227 38.112 220.291 35.52 226.435 31.744L231.619 28.48H225.955C221.411 28.48 217.635 28.288 214.627 27.904C211.619 27.52 209.123 26.656 207.139 25.312C205.219 23.968 204.259 21.92 204.259 19.168C204.259 15.904 205.539 13.536 208.099 12.064C210.723 10.592 213.795 9.696 217.315 9.376C220.899 8.992 225.955 8.768 232.483 8.704H235.651C242.819 8.704 248.643 9.536 253.123 11.2C257.667 12.864 259.939 16.192 259.939 21.184C259.939 23.104 259.523 24.736 258.691 26.08C257.923 27.424 256.835 28.608 255.427 29.632C254.083 30.656 252.035 32 249.283 33.664C247.107 34.944 245.251 36.096 243.715 37.12C247.107 37.376 250.083 38.336 252.643 40C255.267 41.6 257.283 43.68 258.691 46.24C260.163 48.8 260.899 51.584 260.899 54.592C260.899 61.44 258.371 66.816 253.315 70.72C248.323 74.624 241.379 76.576 232.483 76.576ZM304.45 76.192C301.698 76.192 298.21 74.976 293.986 72.544C289.826 70.048 283.778 65.888 275.842 60.064C271.81 57.056 269.09 54.528 267.682 52.48C266.338 50.368 265.666 47.936 265.666 45.184C265.666 42.688 266.37 40.352 267.778 38.176C269.25 36 271.938 32.992 275.842 29.152C280.514 24.544 285.282 20.48 290.146 16.96C295.074 13.44 299.138 11.68 302.338 11.68C304.898 11.68 307.074 12.384 308.866 13.792C310.722 15.2 311.65 17.216 311.65 19.84C311.65 21.696 311.17 23.36 310.21 24.832C309.314 26.24 307.97 27.68 306.178 29.152C304.45 30.624 301.538 32.864 297.442 35.872C294.114 38.24 290.946 40.576 287.938 42.88C286.914 43.648 286.402 44.32 286.402 44.896C286.402 45.472 286.914 46.08 287.938 46.72C294.594 50.816 299.522 54.016 302.722 56.32C305.986 58.56 308.386 60.672 309.922 62.656C311.458 64.64 312.226 66.72 312.226 68.896C312.226 71.072 311.458 72.832 309.922 74.176C308.45 75.52 306.626 76.192 304.45 76.192ZM308.482 49.12C306.69 49.12 305.41 48.416 304.642 47.008C303.938 45.536 303.586 43.36 303.586 40.48C303.586 37.984 303.938 36.096 304.642 34.816C305.41 33.472 306.69 32.8 308.482 32.8C311.874 32.8 313.57 35.392 313.57 40.576C313.57 43.392 313.154 45.536 312.322 47.008C311.554 48.416 310.274 49.12 308.482 49.12ZM320.386 49.12C318.594 49.12 317.346 48.416 316.642 47.008C316.002 45.536 315.682 43.456 315.682 40.768C315.682 35.456 317.314 32.8 320.578 32.8C324.034 32.8 325.762 35.264 325.762 40.192C325.762 46.144 323.97 49.12 320.386 49.12Z"/>
</mask>
<path d="M49.7564 30.496C55.1324 30.56 59.1964 30.784 61.9484 31.168C64.7004 31.552 66.6844 32.256 67.9004 33.28C69.1804 34.24 69.8204 35.744 69.8204 37.792C69.8204 39.776 69.2124 41.28 67.9964 42.304C66.7804 43.264 64.7964 43.936 62.0444 44.32C59.3564 44.704 55.3564 44.96 50.0444 45.088C50.1084 46.24 50.1404 47.84 50.1404 49.888C54.5564 51.616 58.1084 53.792 60.7964 56.416C63.5484 59.04 64.9244 61.888 64.9244 64.96C64.9244 66.944 64.3164 68.576 63.1004 69.856C61.8844 71.136 60.1884 71.776 58.0124 71.776C56.6044 71.776 55.1004 71.392 53.5004 70.624C51.9004 69.792 49.9484 68.576 47.6444 66.976C46.2364 69.92 44.0604 72.16 41.1164 73.696C38.2364 75.232 34.3644 76 29.5004 76C24.2524 76 19.9964 74.784 16.7324 72.352C13.5324 69.92 11.9324 66.56 11.9324 62.272C11.9324 58.752 12.8924 55.84 14.8124 53.536C16.7964 51.168 19.3244 49.44 22.3964 48.352C25.5324 47.2 28.8924 46.624 32.4764 46.624H33.0524L32.8604 45.088C25.5644 45.024 20.2204 44.864 16.8284 44.608C13.5004 44.288 11.0684 43.648 9.53238 42.688C7.99638 41.664 7.22838 40.032 7.22838 37.792C7.22838 35.616 7.96438 34.048 9.43638 33.088C10.9084 32.064 13.2444 31.392 16.4444 31.072C19.7084 30.752 24.7004 30.56 31.4204 30.496L31.1324 27.904C24.5404 27.84 19.5164 27.648 16.0604 27.328C12.6684 26.944 10.1084 26.208 8.38038 25.12C6.71638 23.968 5.88438 22.24 5.88438 19.936C5.88438 17.632 6.71638 15.904 8.38038 14.752C10.0444 13.6 12.5724 12.864 15.9644 12.544C19.3564 12.16 24.2524 11.936 30.6524 11.872C31.2284 9.632 32.2844 8 33.8204 6.976C35.3564 5.952 37.1164 5.44 39.1004 5.44C41.4044 5.44 43.3244 5.92 44.8604 6.88C46.3964 7.84 47.5164 9.504 48.2204 11.872C54.0444 11.936 58.5244 12.192 61.6604 12.64C64.8604 13.024 67.2284 13.792 68.7644 14.944C70.3644 16.032 71.1644 17.696 71.1644 19.936C71.1644 22.048 70.4284 23.68 68.9564 24.832C67.5484 25.92 65.3404 26.688 62.3324 27.136C59.3244 27.52 55.1004 27.776 49.6604 27.904C49.6604 29.056 49.6924 29.92 49.7564 30.496ZM34.2044 61.6C34.2044 60.768 34.1724 60.032 34.1084 59.392C33.2764 59.2 32.3484 59.104 31.3244 59.104C29.7244 59.104 28.4764 59.424 27.5804 60.064C26.7484 60.64 26.3324 61.408 26.3324 62.368C26.3324 63.328 26.6844 64.128 27.3884 64.768C28.0924 65.408 29.0204 65.728 30.1724 65.728C31.5804 65.728 32.6044 65.344 33.2444 64.576C33.8844 63.808 34.2044 62.816 34.2044 61.6ZM105.961 31.36L104.329 36.736C107.465 36.288 110.601 36.064 113.737 36.064C120.649 36.064 126.057 37.792 129.961 41.248C133.929 44.704 135.913 49.44 135.913 55.456C135.913 59.808 134.601 63.52 131.977 66.592C129.417 69.664 126.121 71.968 122.089 73.504C118.057 75.04 113.929 75.808 109.705 75.808C106.889 75.808 104.681 75.36 103.081 74.464C101.481 73.504 100.681 72.064 100.681 70.144C100.681 68.352 101.225 66.88 102.313 65.728C103.465 64.576 104.905 63.936 106.633 63.808C111.241 63.552 114.601 62.976 116.713 62.08C118.889 61.184 119.977 59.584 119.977 57.28C119.977 55.104 119.113 53.44 117.385 52.288C115.657 51.136 113.545 50.56 111.049 50.56C109.001 50.56 107.305 50.88 105.961 51.52C104.617 52.096 103.081 53.024 101.353 54.304C99.8174 55.456 98.4414 56.32 97.2254 56.896C96.0094 57.472 94.5054 57.76 92.7134 57.76C90.5374 57.76 88.7134 57.12 87.2414 55.84C85.8334 54.56 85.1294 52.928 85.1294 50.944C85.1294 47.872 86.2814 41.184 88.5854 30.88C84.2974 30.496 81.1294 29.696 79.0814 28.48C77.0334 27.2 76.0094 25.248 76.0094 22.624C76.0094 19.424 77.3214 17.28 79.9454 16.192C82.6334 15.04 86.9534 14.4 92.9054 14.272C93.8014 12.096 95.0494 10.496 96.6494 9.472C98.2494 8.448 99.9454 7.936 101.737 7.936C103.465 7.936 105.065 8.512 106.537 9.664C108.073 10.752 109.001 12.288 109.321 14.272H116.713C121.897 14.272 125.929 14.464 128.809 14.848C131.753 15.232 134.025 16.032 135.625 17.248C137.225 18.464 138.025 20.32 138.025 22.816C138.025 25.312 137.193 27.2 135.529 28.48C133.929 29.696 131.625 30.496 128.617 30.88C125.673 31.2 121.545 31.36 116.233 31.36H107.017H105.961ZM185.669 36.16C188.997 36.992 191.749 38.496 193.925 40.672C196.165 42.848 197.285 45.92 197.285 49.888C197.285 53.088 196.549 55.968 195.077 58.528C193.669 61.024 191.749 63.008 189.317 64.48C186.949 65.888 184.421 66.592 181.733 66.592C180.517 66.592 179.429 66.176 178.469 65.344C177.573 64.512 177.125 63.36 177.125 61.888C177.125 60.736 177.381 59.84 177.893 59.2C178.469 58.496 179.301 57.76 180.389 56.992C181.349 56.224 182.021 55.616 182.405 55.168C182.853 54.656 183.077 54.016 183.077 53.248C183.077 52.032 182.533 51.136 181.445 50.56C180.357 49.92 178.885 49.6 177.029 49.6C174.789 49.6 172.133 50.08 169.061 51.04L171.461 60.544L172.133 63.424C172.965 67.008 173.381 69.536 173.381 71.008C173.381 72.352 172.901 73.472 171.941 74.368C170.981 75.264 169.733 75.712 168.197 75.712C166.917 75.712 165.797 75.2 164.837 74.176C163.877 73.152 162.821 71.424 161.669 68.992C160.005 65.408 158.245 60.832 156.389 55.264C153.381 56.16 150.981 56.608 149.189 56.608C146.693 56.608 144.837 55.872 143.621 54.4C142.469 52.928 141.893 51.296 141.893 49.504C141.893 46.304 144.037 43.648 148.325 41.536C148.709 41.344 149.157 41.12 149.669 40.864C150.245 40.608 150.917 40.32 151.685 40C150.917 36.608 150.533 34.208 150.533 32.8C150.533 30.944 151.109 29.44 152.261 28.288C153.477 27.072 154.981 26.464 156.773 26.464C160.805 26.464 163.301 28.576 164.261 32.8L165.221 36.256C168.421 35.744 170.853 35.424 172.517 35.296C173.029 32.8 173.573 30.784 174.149 29.248C174.789 27.584 175.717 26.304 176.933 25.408C178.149 24.512 179.493 24.064 180.965 24.064C182.501 24.064 183.877 24.608 185.093 25.696C186.309 26.784 186.917 28.192 186.917 29.92C186.917 31.712 186.501 33.792 185.669 36.16ZM232.483 76.576C228.067 76.576 224.547 76.064 221.923 75.04C219.363 73.952 218.083 72.096 218.083 69.472C218.083 67.936 218.691 66.56 219.907 65.344C221.123 64.128 222.883 63.52 225.187 63.52C229.923 63.52 233.955 63.04 237.283 62.08C240.611 61.12 242.307 59.456 242.371 57.088C242.435 54.912 241.507 53.408 239.587 52.576C237.667 51.744 235.555 51.328 233.251 51.328C231.075 51.328 228.963 51.552 226.915 52C224.867 52.384 223.651 52.608 223.267 52.672C219.939 53.44 217.507 53.824 215.971 53.824C214.051 53.824 212.387 53.184 210.979 51.904C209.635 50.624 208.963 49.152 208.963 47.488C208.963 45.824 209.379 44.384 210.211 43.168C211.107 41.952 212.451 40.736 214.243 39.52C216.227 38.112 220.291 35.52 226.435 31.744L231.619 28.48H225.955C221.411 28.48 217.635 28.288 214.627 27.904C211.619 27.52 209.123 26.656 207.139 25.312C205.219 23.968 204.259 21.92 204.259 19.168C204.259 15.904 205.539 13.536 208.099 12.064C210.723 10.592 213.795 9.696 217.315 9.376C220.899 8.992 225.955 8.768 232.483 8.704H235.651C242.819 8.704 248.643 9.536 253.123 11.2C257.667 12.864 259.939 16.192 259.939 21.184C259.939 23.104 259.523 24.736 258.691 26.08C257.923 27.424 256.835 28.608 255.427 29.632C254.083 30.656 252.035 32 249.283 33.664C247.107 34.944 245.251 36.096 243.715 37.12C247.107 37.376 250.083 38.336 252.643 40C255.267 41.6 257.283 43.68 258.691 46.24C260.163 48.8 260.899 51.584 260.899 54.592C260.899 61.44 258.371 66.816 253.315 70.72C248.323 74.624 241.379 76.576 232.483 76.576ZM304.45 76.192C301.698 76.192 298.21 74.976 293.986 72.544C289.826 70.048 283.778 65.888 275.842 60.064C271.81 57.056 269.09 54.528 267.682 52.48C266.338 50.368 265.666 47.936 265.666 45.184C265.666 42.688 266.37 40.352 267.778 38.176C269.25 36 271.938 32.992 275.842 29.152C280.514 24.544 285.282 20.48 290.146 16.96C295.074 13.44 299.138 11.68 302.338 11.68C304.898 11.68 307.074 12.384 308.866 13.792C310.722 15.2 311.65 17.216 311.65 19.84C311.65 21.696 311.17 23.36 310.21 24.832C309.314 26.24 307.97 27.68 306.178 29.152C304.45 30.624 301.538 32.864 297.442 35.872C294.114 38.24 290.946 40.576 287.938 42.88C286.914 43.648 286.402 44.32 286.402 44.896C286.402 45.472 286.914 46.08 287.938 46.72C294.594 50.816 299.522 54.016 302.722 56.32C305.986 58.56 308.386 60.672 309.922 62.656C311.458 64.64 312.226 66.72 312.226 68.896C312.226 71.072 311.458 72.832 309.922 74.176C308.45 75.52 306.626 76.192 304.45 76.192ZM308.482 49.12C306.69 49.12 305.41 48.416 304.642 47.008C303.938 45.536 303.586 43.36 303.586 40.48C303.586 37.984 303.938 36.096 304.642 34.816C305.41 33.472 306.69 32.8 308.482 32.8C311.874 32.8 313.57 35.392 313.57 40.576C313.57 43.392 313.154 45.536 312.322 47.008C311.554 48.416 310.274 49.12 308.482 49.12ZM320.386 49.12C318.594 49.12 317.346 48.416 316.642 47.008C316.002 45.536 315.682 43.456 315.682 40.768C315.682 35.456 317.314 32.8 320.578 32.8C324.034 32.8 325.762 35.264 325.762 40.192C325.762 46.144 323.97 49.12 320.386 49.12Z" fill="#DCC482"/>
<path d="M49.7564 30.496L44.787 31.0481L45.2753 35.443L49.6969 35.4956L49.7564 30.496ZM61.9484 31.168L61.2574 36.12L61.2574 36.12L61.9484 31.168ZM67.9004 33.28L64.6797 37.1046L64.7876 37.1954L64.9004 37.28L67.9004 33.28ZM67.9964 42.304L71.0946 46.2284L71.1566 46.1795L71.2171 46.1286L67.9964 42.304ZM62.0444 44.32L61.3534 39.368L61.3453 39.3691L61.3373 39.3703L62.0444 44.32ZM50.0444 45.088L49.9239 40.0894L44.7659 40.2137L45.0521 45.3654L50.0444 45.088ZM50.1404 49.888H45.1404V53.3006L48.3184 54.5442L50.1404 49.888ZM60.7964 56.416L57.3037 59.9939L57.3247 60.0144L57.346 60.0347L60.7964 56.416ZM63.1004 69.856L66.7254 73.2997L63.1004 69.856ZM53.5004 70.624L51.1936 75.0601L51.2646 75.097L51.3367 75.1316L53.5004 70.624ZM47.6444 66.976L50.4964 62.8691L45.6693 59.517L43.1337 64.8187L47.6444 66.976ZM41.1164 73.696L38.8035 69.2631L38.7834 69.2736L38.7634 69.2842L41.1164 73.696ZM16.7324 72.352L13.707 76.3328L13.7259 76.3472L13.745 76.3614L16.7324 72.352ZM14.8124 53.536L10.9798 50.3249L10.9713 50.3351L14.8124 53.536ZM22.3964 48.352L24.0656 53.0651L24.0931 53.0554L24.1205 53.0453L22.3964 48.352ZM33.0524 46.624V51.624H38.7163L38.0138 46.0038L33.0524 46.624ZM32.8604 45.088L37.8218 44.4678L37.2791 40.1266L32.9042 40.0882L32.8604 45.088ZM16.8284 44.608L16.3498 49.585L16.4009 49.59L16.4521 49.5938L16.8284 44.608ZM9.53238 42.688L6.75887 46.8483L6.82004 46.889L6.88238 46.928L9.53238 42.688ZM9.43638 33.088L12.1677 37.2761L12.2303 37.2352L12.2917 37.1925L9.43638 33.088ZM16.4444 31.072L15.9565 26.0958L15.9469 26.0968L16.4444 31.072ZM31.4204 30.496L31.468 35.4958L37.0008 35.4431L36.3898 29.9438L31.4204 30.496ZM31.1324 27.904L36.1018 27.3518L35.6124 22.9473L31.1809 22.9042L31.1324 27.904ZM16.0604 27.328L15.4979 32.2963L15.5486 32.302L15.5994 32.3067L16.0604 27.328ZM8.38038 25.12L5.53432 29.231L5.624 29.293L5.71631 29.3512L8.38038 25.12ZM8.38038 14.752L5.53432 10.641L8.38038 14.752ZM15.9644 12.544L16.434 17.5219L16.4805 17.5175L16.5268 17.5123L15.9644 12.544ZM30.6524 11.872L30.7024 16.8717L34.5393 16.8334L35.4948 13.1172L30.6524 11.872ZM33.8204 6.976L31.0469 2.81574L31.0469 2.81575L33.8204 6.976ZM44.8604 6.88L47.5104 2.64001L47.5104 2.64L44.8604 6.88ZM48.2204 11.872L43.4277 13.2968L44.4784 16.8312L48.1654 16.8717L48.2204 11.872ZM61.6604 12.64L60.9533 17.5897L61.0089 17.5977L61.0647 17.6044L61.6604 12.64ZM68.7644 14.944L65.7644 18.944L65.857 19.0135L65.9528 19.0786L68.7644 14.944ZM68.9564 24.832L72.0136 28.7884L72.0258 28.779L72.0379 28.7695L68.9564 24.832ZM62.3324 27.136L62.9655 32.0957L63.0173 32.0891L63.0689 32.0815L62.3324 27.136ZM49.6604 27.904L49.5428 22.9054L44.6604 23.0203V27.904H49.6604ZM34.1084 59.392L39.0836 58.8945L38.7267 55.3264L35.2327 54.52L34.1084 59.392ZM27.5804 60.064L30.4264 64.175L30.4567 64.154L30.4866 64.1327L27.5804 60.064ZM33.2444 64.576L29.4033 61.3751H29.4033L33.2444 64.576ZM49.7564 30.496L49.6969 35.4956C55.0181 35.559 58.8271 35.7809 61.2574 36.12L61.9484 31.168L62.6394 26.216C59.5657 25.7871 55.2467 25.561 49.8159 25.4963L49.7564 30.496ZM61.9484 31.168L61.2574 36.12C63.6872 36.4591 64.5426 36.9891 64.6797 37.1046L67.9004 33.28L71.1211 29.4554C68.8262 27.5229 65.7135 26.6449 62.6394 26.216L61.9484 31.168ZM67.9004 33.28L64.9004 37.28C64.8748 37.2608 64.8352 37.2251 64.7964 37.1753C64.7579 37.1259 64.7414 37.0899 64.7396 37.0858C64.7386 37.0834 64.8204 37.2763 64.8204 37.792H69.8204H74.8204C74.8204 34.655 73.7824 31.4415 70.9004 29.28L67.9004 33.28ZM69.8204 37.792H64.8204C64.8204 38.2809 64.745 38.4942 64.7288 38.5341C64.7213 38.5527 64.7231 38.5434 64.7396 38.5204C64.7565 38.4971 64.7721 38.4824 64.7757 38.4794L67.9964 42.304L71.2171 46.1286C73.8336 43.9251 74.8204 40.8532 74.8204 37.792H69.8204ZM67.9964 42.304L64.8982 38.3796C64.7365 38.5072 63.826 39.023 61.3534 39.368L62.0444 44.32L62.7354 49.272C65.7668 48.849 68.8243 48.0207 71.0946 46.2284L67.9964 42.304ZM62.0444 44.32L61.3373 39.3703C58.9494 39.7114 55.1876 39.9626 49.9239 40.0894L50.0444 45.088L50.1648 50.0865C55.5252 49.9574 59.7633 49.6966 62.7515 49.2697L62.0444 44.32ZM50.0444 45.088L45.0521 45.3654C45.1085 46.3806 45.1404 47.8736 45.1404 49.888H50.1404H55.1404C55.1404 47.8064 55.1083 46.0994 55.0367 44.8106L50.0444 45.088ZM50.1404 49.888L48.3184 54.5442C52.2686 56.0899 55.2026 57.9428 57.3037 59.9939L60.7964 56.416L64.2891 52.8381C61.0141 49.6411 56.8442 47.1421 51.9624 45.2318L50.1404 49.888ZM60.7964 56.416L57.346 60.0347C59.3596 61.9547 59.9244 63.5675 59.9244 64.96H64.9244H69.9244C69.9244 60.2085 67.7371 56.1253 64.2467 52.7973L60.7964 56.416ZM64.9244 64.96H59.9244C59.9244 65.8341 59.6969 66.179 59.4754 66.4123L63.1004 69.856L66.7254 73.2997C68.9358 70.973 69.9244 68.0539 69.9244 64.96H64.9244ZM63.1004 69.856L59.4754 66.4123C59.4149 66.4759 59.1587 66.776 58.0124 66.776V71.776V76.776C61.218 76.776 64.3538 75.7961 66.7254 73.2997L63.1004 69.856ZM58.0124 71.776V66.776C57.5223 66.776 56.7597 66.6423 55.664 66.1164L53.5004 70.624L51.3367 75.1316C53.4411 76.1417 55.6865 76.776 58.0124 76.776V71.776ZM53.5004 70.624L55.8071 66.1879C54.469 65.4921 52.7102 64.4065 50.4964 62.8691L47.6444 66.976L44.7924 71.0828C47.1866 72.7455 49.3318 74.0919 51.1936 75.0601L53.5004 70.624ZM47.6444 66.976L43.1337 64.8187C42.2015 66.768 40.8061 68.2183 38.8035 69.2631L41.1164 73.696L43.4292 78.1289C47.3147 76.1017 50.2713 73.072 52.155 69.1333L47.6444 66.976ZM41.1164 73.696L38.7634 69.2842C36.8763 70.2907 33.9147 71 29.5004 71V76V81C34.8141 81 39.5964 80.1733 43.4693 78.1078L41.1164 73.696ZM29.5004 76V71C25.0162 71 21.8997 69.9668 19.7198 68.3426L16.7324 72.352L13.745 76.3614C18.0931 79.6012 23.4885 81 29.5004 81V76ZM16.7324 72.352L19.7578 68.3712C17.8954 66.9557 16.9324 65.1187 16.9324 62.272H11.9324H6.93238C6.93238 68.0013 9.16937 72.8842 13.707 76.3328L16.7324 72.352ZM11.9324 62.272H16.9324C16.9324 59.7085 17.6083 57.9911 18.6535 56.7369L14.8124 53.536L10.9713 50.3351C8.17645 53.6889 6.93238 57.7955 6.93238 62.272H11.9324ZM14.8124 53.536L18.645 56.7471C20.0231 55.1022 21.7878 53.8718 24.0656 53.0651L22.3964 48.352L20.7271 43.6389C16.8609 45.0081 13.5697 47.2337 10.9798 50.3249L14.8124 53.536ZM22.3964 48.352L24.1205 53.0453C26.6653 52.1105 29.4376 51.624 32.4764 51.624V46.624V41.624C28.3471 41.624 24.3995 42.2895 20.6723 43.6586L22.3964 48.352ZM32.4764 46.624V51.624H33.0524V46.624V41.624H32.4764V46.624ZM33.0524 46.624L38.0138 46.0038L37.8218 44.4678L32.8604 45.088L27.899 45.7082L28.091 47.2442L33.0524 46.624ZM32.8604 45.088L32.9042 40.0882C25.6236 40.0243 20.4201 39.8649 17.2047 39.6222L16.8284 44.608L16.4521 49.5938C20.0206 49.8631 25.5051 50.0237 32.8165 50.0878L32.8604 45.088ZM16.8284 44.608L17.3069 39.631C14.2032 39.3325 12.716 38.7815 12.1824 38.448L9.53238 42.688L6.88238 46.928C9.42079 48.5145 12.7976 49.2435 16.3498 49.585L16.8284 44.608ZM9.53238 42.688L12.3059 38.5277C12.2758 38.5077 12.2816 38.5069 12.3013 38.5296C12.3216 38.553 12.3303 38.5709 12.3285 38.567C12.3242 38.558 12.2284 38.3496 12.2284 37.792H7.22837H2.22838C2.22838 41.2953 3.52329 44.6912 6.75887 46.8483L9.53238 42.688ZM7.22837 37.792H12.2284C12.2284 37.2556 12.3199 37.0801 12.3066 37.1085C12.299 37.1246 12.2764 37.1651 12.2362 37.2111C12.1963 37.2568 12.166 37.2772 12.1677 37.2761L9.43638 33.088L6.70503 28.8999C3.47166 31.0087 2.22838 34.3859 2.22838 37.792H7.22837ZM9.43638 33.088L12.2917 37.1925C12.7078 36.9031 14.0135 36.34 16.9419 36.0472L16.4444 31.072L15.9469 26.0968C12.4753 26.444 9.10897 27.2249 6.58105 28.9835L9.43638 33.088ZM16.4444 31.072L16.9322 36.0481C19.9664 35.7507 24.7763 35.5595 31.468 35.4958L31.4204 30.496L31.3728 25.4962C24.6245 25.5605 19.4503 25.7533 15.9565 26.0959L16.4444 31.072ZM31.4204 30.496L36.3898 29.9438L36.1018 27.3518L31.1324 27.904L26.163 28.4562L26.451 31.0482L31.4204 30.496ZM31.1324 27.904L31.1809 22.9042C24.6278 22.8406 19.7683 22.6499 16.5214 22.3493L16.0604 27.328L15.5994 32.3067C19.2645 32.6461 24.4529 32.8394 31.0838 32.9038L31.1324 27.904ZM16.0604 27.328L16.6228 22.3597C13.5393 22.0107 11.8461 21.3936 11.0444 20.8888L8.38038 25.12L5.71631 29.3512C8.37068 31.0224 11.7975 31.8773 15.4979 32.2963L16.0604 27.328ZM8.38038 25.12L11.2264 21.009C11.0654 20.8975 11.0329 20.8314 11.0134 20.7909C10.9823 20.7263 10.8844 20.4862 10.8844 19.936H5.88438H0.884375C0.884375 23.6174 2.31837 27.0045 5.53432 29.231L8.38038 25.12ZM5.88438 19.936H10.8844C10.8844 19.3858 10.9823 19.1457 11.0134 19.0811C11.0329 19.0406 11.0654 18.9745 11.2264 18.863L8.38038 14.752L5.53432 10.641C2.31837 12.8675 0.884375 16.2546 0.884375 19.936H5.88438ZM8.38038 14.752L11.2264 18.863C11.8571 18.4263 13.3815 17.8099 16.434 17.5219L15.9644 12.544L15.4948 7.5661C11.7632 7.91813 8.23163 8.77367 5.53432 10.641L8.38038 14.752ZM15.9644 12.544L16.5268 17.5123C19.6607 17.1575 24.3533 16.9352 30.7024 16.8717L30.6524 11.872L30.6024 6.87225C24.1514 6.93675 19.0521 7.16251 15.4019 7.57573L15.9644 12.544ZM30.6524 11.872L35.4948 13.1172C35.8445 11.7572 36.3238 11.3163 36.5939 11.1362L33.8204 6.976L31.0469 2.81575C28.2449 4.68371 26.6122 7.50675 25.8099 10.6268L30.6524 11.872ZM33.8204 6.976L36.5939 11.1362C37.2465 10.7012 38.0262 10.44 39.1004 10.44V5.44V0.439999C36.2066 0.439999 33.4663 1.20281 31.0469 2.81574L33.8204 6.976ZM39.1004 5.44V10.44C40.7195 10.44 41.6588 10.7752 42.2104 11.12L44.8604 6.88L47.5104 2.64C44.99 1.06476 42.0892 0.439999 39.1004 0.439999V5.44ZM44.8604 6.88L42.2104 11.12C42.3886 11.2314 42.9438 11.6693 43.4277 13.2968L48.2204 11.872L53.0131 10.4471C52.0889 7.33866 50.4041 4.4486 47.5104 2.64001L44.8604 6.88ZM48.2204 11.872L48.1654 16.8717C53.9196 16.9349 58.1425 17.1882 60.9533 17.5897L61.6604 12.64L62.3675 7.69025C58.9063 7.19579 54.1691 6.93706 48.2753 6.8723L48.2204 11.872ZM61.6604 12.64L61.0647 17.6044C63.9158 17.9465 65.2581 18.5643 65.7644 18.944L68.7644 14.944L71.7644 10.944C69.1986 9.01967 65.805 8.10147 62.2561 7.67561L61.6604 12.64ZM68.7644 14.944L65.9528 19.0786C66.02 19.1243 66.0437 19.1515 66.0461 19.1543C66.0476 19.156 66.0505 19.1586 66.0581 19.1745C66.0712 19.2017 66.1644 19.4087 66.1644 19.936H71.1644H76.1644C76.1644 16.3427 74.7772 12.9862 71.5759 10.8094L68.7644 14.944ZM71.1644 19.936H66.1644C66.1644 20.4091 66.0834 20.6242 66.0544 20.6885C66.0339 20.734 66.0027 20.7944 65.8748 20.8945L68.9564 24.832L72.0379 28.7695C74.889 26.5382 76.1644 23.3587 76.1644 19.936H71.1644ZM68.9564 24.832L65.8991 20.8756C65.4901 21.1917 64.283 21.7903 61.5958 22.1905L62.3324 27.136L63.0689 32.0815C66.3978 31.5857 69.6067 30.6483 72.0136 28.7884L68.9564 24.832ZM62.3324 27.136L61.6992 22.1763C58.9459 22.5277 54.9225 22.7788 49.5428 22.9054L49.6604 27.904L49.778 32.9026C55.2782 32.7732 59.7029 32.5123 62.9655 32.0957L62.3324 27.136ZM49.6604 27.904H44.6604C44.6604 29.098 44.6913 30.1874 44.787 31.0481L49.7564 30.496L54.7258 29.9438C54.6934 29.6526 54.6604 29.014 54.6604 27.904H49.6604ZM34.2044 61.6H39.2044C39.2044 60.6472 39.1681 59.7395 39.0836 58.8945L34.1084 59.392L29.1332 59.8895C29.1767 60.3245 29.2044 60.8888 29.2044 61.6H34.2044ZM34.1084 59.392L35.2327 54.52C33.9676 54.2281 32.6544 54.104 31.3244 54.104V59.104V64.104C32.0423 64.104 32.5852 64.1719 32.9841 64.264L34.1084 59.392ZM31.3244 59.104V54.104C29.1341 54.104 26.7237 54.5314 24.6742 55.9953L27.5804 60.064L30.4866 64.1327C30.3548 64.2268 30.3042 64.2197 30.4303 64.1873C30.5647 64.1528 30.8469 64.104 31.3244 64.104V59.104ZM27.5804 60.064L24.7343 55.953C22.6398 57.4031 21.3324 59.6648 21.3324 62.368H26.3324H31.3324C31.3324 62.6354 31.2672 63.0355 31.0408 63.4534C30.8198 63.8615 30.5534 64.0871 30.4264 64.175L27.5804 60.064ZM26.3324 62.368H21.3324C21.3324 64.7222 22.268 66.8704 24.025 68.4677L27.3884 64.768L30.7517 61.0683C30.8713 61.177 31.0428 61.3786 31.173 61.6743C31.3026 61.9689 31.3324 62.2234 31.3324 62.368H26.3324ZM27.3884 64.768L24.025 68.4677C25.8349 70.1131 28.0524 70.728 30.1724 70.728V65.728V60.728C30.057 60.728 30.0998 60.712 30.2423 60.7611C30.399 60.8152 30.5856 60.9172 30.7517 61.0683L27.3884 64.768ZM30.1724 65.728V70.728C32.4321 70.728 35.154 70.0947 37.0855 67.7769L33.2444 64.576L29.4033 61.3751C29.6895 61.0316 30.0193 60.8414 30.2408 60.7584C30.4256 60.689 30.4409 60.728 30.1724 60.728V65.728ZM33.2444 64.576L37.0855 67.7769C38.6268 65.9274 39.2044 63.723 39.2044 61.6H34.2044H29.2044C29.2044 61.7716 29.1818 61.7956 29.2058 61.721C29.2179 61.6835 29.2395 61.6287 29.2749 61.5637C29.3105 61.4984 29.3541 61.4341 29.4033 61.3751L33.2444 64.576ZM105.961 31.36V26.36H102.254L101.177 29.9076L105.961 31.36ZM104.329 36.736L99.545 35.2836L97.2644 42.796L105.036 41.6857L104.329 36.736ZM129.961 41.248L126.647 44.9918L126.662 45.0052L126.677 45.0184L129.961 41.248ZM131.977 66.592L128.176 63.3446L128.156 63.3677L128.136 63.3911L131.977 66.592ZM122.089 73.504L120.309 68.8316L122.089 73.504ZM103.081 74.464L100.509 78.7515L100.573 78.79L100.638 78.8265L103.081 74.464ZM102.313 65.728L98.7778 62.1925L98.7273 62.243L98.6783 62.2949L102.313 65.728ZM106.633 63.808L106.356 58.8157L106.31 58.8183L106.264 58.8217L106.633 63.808ZM116.713 62.08L114.81 57.4566L114.785 57.4667L114.761 57.4771L116.713 62.08ZM117.385 52.288L120.159 48.1277L117.385 52.288ZM105.961 51.52L107.931 56.1157L108.022 56.0768L108.111 56.0343L105.961 51.52ZM101.353 54.304L98.3772 50.2862L98.3653 50.2951L98.3534 50.304L101.353 54.304ZM97.2254 56.896L95.0849 52.3773V52.3773L97.2254 56.896ZM87.2414 55.84L83.878 59.5397L83.9188 59.5768L83.9605 59.613L87.2414 55.84ZM88.5854 30.88L93.4649 31.9711L94.7087 26.4083L89.0313 25.8999L88.5854 30.88ZM79.0814 28.48L76.4314 32.72L76.4797 32.7502L76.5287 32.7793L79.0814 28.48ZM79.9454 16.192L81.8605 20.8107L81.8878 20.7994L81.915 20.7877L79.9454 16.192ZM92.9054 14.272L93.0129 19.2708L96.2833 19.2005L97.5288 16.1757L92.9054 14.272ZM96.6494 9.472L99.3446 13.6834L99.3447 13.6834L96.6494 9.472ZM106.537 9.664L103.456 13.6015L103.55 13.6751L103.647 13.7441L106.537 9.664ZM109.321 14.272L104.385 15.0682L105.063 19.272H109.321V14.272ZM128.809 14.848L128.149 19.8041L128.156 19.8051L128.163 19.806L128.809 14.848ZM135.529 28.48L138.555 32.4608L138.566 32.452L138.578 32.4431L135.529 28.48ZM128.617 30.88L129.158 35.8507L129.204 35.8457L129.251 35.8397L128.617 30.88ZM105.961 31.36L101.177 29.9076L99.545 35.2836L104.329 36.736L109.114 38.1884L110.746 32.8124L105.961 31.36ZM104.329 36.736L105.036 41.6857C107.941 41.2709 110.84 41.064 113.737 41.064V36.064V31.064C110.362 31.064 106.99 31.3051 103.622 31.7863L104.329 36.736ZM113.737 36.064V41.064C119.833 41.064 123.921 42.5781 126.647 44.9918L129.961 41.248L133.276 37.5042C128.194 33.0059 121.466 31.064 113.737 31.064V36.064ZM129.961 41.248L126.677 45.0184C129.393 47.3834 130.913 50.6556 130.913 55.456H135.913H140.913C140.913 48.2244 138.466 42.0246 133.245 37.4776L129.961 41.248ZM135.913 55.456H130.913C130.913 58.7166 129.964 61.2506 128.176 63.3446L131.977 66.592L135.779 69.8394C139.239 65.7894 140.913 60.8994 140.913 55.456H135.913ZM131.977 66.592L128.136 63.3911C126.169 65.7522 123.605 67.5762 120.309 68.8316L122.089 73.504L123.869 78.1764C128.638 76.3598 132.666 73.5758 135.818 69.7929L131.977 66.592ZM122.089 73.504L120.309 68.8316C116.833 70.1557 113.308 70.808 109.705 70.808V75.808V80.808C114.551 80.808 119.281 79.9243 123.869 78.1764L122.089 73.504ZM109.705 75.808V70.808C107.326 70.808 106.082 70.4138 105.524 70.1015L103.081 74.464L100.638 78.8265C103.281 80.3062 106.453 80.808 109.705 80.808V75.808ZM103.081 74.464L105.654 70.1765C105.612 70.1511 105.586 70.1325 105.573 70.1226C105.56 70.1128 105.559 70.111 105.567 70.1185C105.575 70.1261 105.588 70.1406 105.604 70.1622C105.621 70.1839 105.637 70.2088 105.652 70.2358C105.667 70.2627 105.678 70.287 105.686 70.3066C105.693 70.326 105.696 70.3366 105.695 70.3359C105.695 70.3348 105.681 70.2768 105.681 70.144H100.681H95.6814C95.6814 73.7579 97.3501 76.8562 100.509 78.7515L103.081 74.464ZM100.681 70.144H105.681C105.681 69.4481 105.854 69.2615 105.948 69.1611L102.313 65.728L98.6783 62.2949C96.5971 64.4985 95.6814 67.2559 95.6814 70.144H100.681ZM102.313 65.728L105.849 69.2635C106.097 69.0156 106.387 68.8399 107.003 68.7943L106.633 63.808L106.264 58.8217C103.423 59.0321 100.834 60.1364 98.7778 62.1925L102.313 65.728ZM106.633 63.808L106.911 68.8003C111.633 68.5379 115.719 67.9333 118.666 66.6829L116.713 62.08L114.761 57.4771C113.484 58.0187 110.849 58.5661 106.356 58.8157L106.633 63.808ZM116.713 62.08L118.617 66.7034C120.413 65.9641 122.093 64.789 123.296 63.0195C124.504 61.2425 124.977 59.2397 124.977 57.28H119.977H114.977C114.977 57.4632 114.956 57.5377 114.957 57.5337C114.957 57.5318 114.962 57.5149 114.975 57.4875C114.988 57.4598 115.005 57.4284 115.027 57.3965C115.074 57.3267 115.113 57.2975 115.104 57.3042C115.09 57.3151 115.006 57.3756 114.81 57.4566L116.713 62.08ZM119.977 57.28H124.977C124.977 53.5277 123.355 50.2588 120.159 48.1277L117.385 52.288L114.612 56.4482C114.851 56.6074 114.89 56.6996 114.892 56.7041C114.899 56.7179 114.977 56.8649 114.977 57.28H119.977ZM117.385 52.288L120.159 48.1277C117.456 46.3259 114.33 45.56 111.049 45.56V50.56V55.56C112.76 55.56 113.859 55.9461 114.612 56.4482L117.385 52.288ZM111.049 50.56V45.56C108.521 45.56 106.03 45.9493 103.812 47.0057L105.961 51.52L108.111 56.0343C108.581 55.8107 109.482 55.56 111.049 55.56V50.56ZM105.961 51.52L103.992 46.9243C102.167 47.7064 100.286 48.8725 98.3772 50.2862L101.353 54.304L104.33 58.3218C105.877 57.1755 107.068 56.4856 107.931 56.1157L105.961 51.52ZM101.353 54.304L98.3534 50.304C96.9823 51.3323 95.8997 51.9914 95.0849 52.3773L97.2254 56.896L99.3658 61.4147C100.983 60.6486 102.652 59.5797 104.353 58.304L101.353 54.304ZM97.2254 56.896L95.0849 52.3773C94.7214 52.5495 93.9992 52.76 92.7134 52.76V57.76V62.76C95.0116 62.76 97.2973 62.3945 99.3658 61.4147L97.2254 56.896ZM92.7134 57.76V52.76C91.5939 52.76 90.9777 52.463 90.5223 52.067L87.2414 55.84L83.9605 59.613C86.449 61.777 89.4808 62.76 92.7134 62.76V57.76ZM87.2414 55.84L90.6047 52.1403C90.2884 51.8527 90.1294 51.5873 90.1294 50.944H85.1294H80.1294C80.1294 54.2687 81.3783 57.2673 83.878 59.5397L87.2414 55.84ZM85.1294 50.944H90.1294C90.1294 48.5337 91.128 42.4219 93.4649 31.9711L88.5854 30.88L83.7059 29.7889C81.4347 39.9461 80.1294 47.2103 80.1294 50.944H85.1294ZM88.5854 30.88L89.0313 25.8999C84.9802 25.5371 82.7115 24.8205 81.6341 24.1807L79.0814 28.48L76.5287 32.7793C79.5472 34.5715 83.6145 35.4549 88.1394 35.8601L88.5854 30.88ZM79.0814 28.48L81.7314 24.24C81.2907 23.9646 81.0094 23.7028 81.0094 22.624H76.0094H71.0094C71.0094 26.7932 72.7761 30.4354 76.4314 32.72L79.0814 28.48ZM76.0094 22.624H81.0094C81.0094 21.6967 81.1979 21.3244 81.2582 21.2258C81.2924 21.1699 81.3918 21.005 81.8605 20.8107L79.9454 16.192L78.0303 11.5733C75.875 12.467 74.0063 13.9181 72.7285 16.0062C71.4769 18.0516 71.0094 20.3513 71.0094 22.624H76.0094ZM79.9454 16.192L81.915 20.7877C83.6717 20.0348 87.1767 19.3964 93.0129 19.2708L92.9054 14.272L92.7979 9.27316C86.7301 9.40364 81.595 10.0452 77.9758 11.5963L79.9454 16.192ZM92.9054 14.272L97.5288 16.1757C98.1283 14.7197 98.7963 14.0343 99.3446 13.6834L96.6494 9.472L93.9541 5.26064C91.3025 6.95767 89.4744 9.47227 88.282 12.3683L92.9054 14.272ZM96.6494 9.472L99.3447 13.6834C100.191 13.1419 100.959 12.936 101.737 12.936V7.936V2.936C98.9317 2.936 96.3081 3.75408 93.9541 5.26064L96.6494 9.472ZM101.737 7.936V12.936C102.255 12.936 102.787 13.078 103.456 13.6015L106.537 9.664L109.619 5.72647C107.344 3.946 104.676 2.936 101.737 2.936V7.936ZM106.537 9.664L103.647 13.7441C104.009 14 104.263 14.3095 104.385 15.0682L109.321 14.272L114.258 13.4758C113.74 10.2665 112.138 7.50401 109.427 5.58388L106.537 9.664ZM109.321 14.272V19.272H116.713V14.272V9.272H109.321V14.272ZM116.713 14.272V19.272C121.819 19.272 125.594 19.4635 128.149 19.8041L128.809 14.848L129.47 9.89186C126.265 9.46447 121.976 9.272 116.713 9.272V14.272ZM128.809 14.848L128.163 19.806C130.626 20.1273 131.948 20.7335 132.6 21.2288L135.625 17.248L138.651 13.2672C136.102 11.3305 132.881 10.3367 129.456 9.89L128.809 14.848ZM135.625 17.248L132.6 21.2288C132.71 21.3125 132.773 21.3894 132.834 21.5311C132.909 21.7056 133.025 22.0932 133.025 22.816H138.025H143.025C143.025 19.1768 141.795 15.6564 138.651 13.2672L135.625 17.248ZM138.025 22.816H133.025C133.025 24.0888 132.675 24.3675 132.481 24.5169L135.529 28.48L138.578 32.4431C141.712 30.0325 143.025 26.5352 143.025 22.816H138.025ZM135.529 28.48L132.504 24.4992C131.869 24.9815 130.531 25.5951 127.984 25.9202L128.617 30.88L129.251 35.8397C132.719 35.3969 135.989 34.4105 138.555 32.4608L135.529 28.48ZM128.617 30.88L128.077 25.9093C125.4 26.2002 121.482 26.36 116.233 26.36V31.36V36.36C121.608 36.36 125.947 36.1998 129.158 35.8507L128.617 30.88ZM116.233 31.36V26.36H107.017V31.36V36.36H116.233V31.36ZM107.017 31.36V26.36H105.961V31.36V36.36H107.017V31.36ZM185.669 36.16L180.952 34.5026L179.133 39.6798L184.456 41.0107L185.669 36.16ZM193.925 40.672L190.39 44.2075L190.415 44.2332L190.441 44.2584L193.925 40.672ZM195.077 58.528L190.743 56.0356L190.732 56.0535L190.722 56.0714L195.077 58.528ZM189.317 64.48L191.872 68.7777L191.889 68.7677L191.906 68.7575L189.317 64.48ZM178.469 65.344L175.067 69.008L175.13 69.0663L175.194 69.1224L178.469 65.344ZM177.893 59.2L174.023 56.0338L174.006 56.0551L173.989 56.0765L177.893 59.2ZM180.389 56.992L183.273 61.0768L183.395 60.9902L183.513 60.8963L180.389 56.992ZM182.405 55.168L178.642 51.8755L178.625 51.8947L178.609 51.914L182.405 55.168ZM181.445 50.56L178.91 54.8697L179.007 54.9265L179.106 54.9789L181.445 50.56ZM169.061 51.04L167.57 46.2676L163.055 47.6784L164.213 52.2642L169.061 51.04ZM171.461 60.544L176.33 59.4079L176.32 59.3637L176.309 59.3198L171.461 60.544ZM172.133 63.424L177.004 62.2934L177.002 62.2878L172.133 63.424ZM171.941 74.368L168.53 70.7127H168.53L171.941 74.368ZM164.837 74.176L161.189 77.5957V77.5957L164.837 74.176ZM161.669 68.992L157.134 71.0976L157.142 71.115L157.15 71.1324L161.669 68.992ZM156.389 55.264L161.133 53.6829L159.602 49.09L154.962 50.4721L156.389 55.264ZM143.621 54.4L139.684 57.4815L139.724 57.5335L139.766 57.5844L143.621 54.4ZM148.325 41.536L150.534 46.0214L150.548 46.0148L150.561 46.0081L148.325 41.536ZM149.669 40.864L147.638 36.2949L147.535 36.3411L147.433 36.3919L149.669 40.864ZM151.685 40L153.608 44.6154L157.49 42.9978L156.562 38.8959L151.685 40ZM152.261 28.288L155.797 31.8235V31.8235L152.261 28.288ZM164.261 32.8L159.385 33.9081L159.412 34.0238L159.444 34.1382L164.261 32.8ZM165.221 36.256L160.404 37.5942L161.599 41.8991L166.011 41.1932L165.221 36.256ZM172.517 35.296L172.901 40.2813L176.658 39.9922L177.415 36.3007L172.517 35.296ZM174.149 29.248L169.482 27.4531L169.475 27.4727L169.467 27.4924L174.149 29.248ZM185.093 25.696L188.427 21.9698L188.427 21.9698L185.093 25.696ZM185.669 36.16L184.456 41.0107C187.009 41.6488 188.926 42.7438 190.39 44.2075L193.925 40.672L197.461 37.1365C194.572 34.2482 190.985 32.3352 186.882 31.3093L185.669 36.16ZM193.925 40.672L190.441 44.2584C191.466 45.2542 192.285 46.8853 192.285 49.888H197.285H202.285C202.285 44.9547 200.864 40.4418 197.409 37.0856L193.925 40.672ZM197.285 49.888H192.285C192.285 52.2887 191.742 54.2967 190.743 56.0356L195.077 58.528L199.412 61.0204C201.356 57.6393 202.285 53.8873 202.285 49.888H197.285ZM195.077 58.528L190.722 56.0714C189.733 57.8251 188.419 59.1793 186.728 60.2025L189.317 64.48L191.906 68.7575C195.08 66.8367 197.605 64.2229 199.432 60.9846L195.077 58.528ZM189.317 64.48L186.762 60.1823C185.147 61.1427 183.498 61.592 181.733 61.592V66.592V71.592C185.344 71.592 188.752 70.6333 191.872 68.7777L189.317 64.48ZM181.733 66.592V61.592C181.724 61.592 181.72 61.5916 181.721 61.5917C181.721 61.5918 181.726 61.5922 181.734 61.5936C181.741 61.5949 181.75 61.597 181.761 61.5999C181.771 61.6028 181.781 61.6062 181.791 61.6097C181.8 61.6133 181.807 61.6165 181.812 61.6189C181.817 61.6211 181.818 61.6219 181.815 61.6203C181.81 61.6173 181.786 61.6021 181.744 61.5656L178.469 65.344L175.194 69.1224C177.019 70.7039 179.257 71.592 181.733 71.592V66.592ZM178.469 65.344L181.871 61.68C181.919 61.7245 181.972 61.7838 182.021 61.8558C182.069 61.9276 182.102 61.9937 182.121 62.0438C182.16 62.1444 182.125 62.1198 182.125 61.888H177.125H172.125C172.125 64.4436 172.947 67.0397 175.067 69.008L178.469 65.344ZM177.125 61.888H182.125C182.125 61.6717 182.15 61.6362 182.125 61.7256C182.095 61.8281 182.009 62.0597 181.797 62.3235L177.893 59.2L173.989 56.0765C172.529 57.9014 172.125 60.0529 172.125 61.888H177.125ZM177.893 59.2L181.763 62.3662C181.954 62.1323 182.399 61.6933 183.273 61.0768L180.389 56.992L177.506 52.9072C176.203 53.8267 174.984 54.8597 174.023 56.0338L177.893 59.2ZM180.389 56.992L183.513 60.8963C184.514 60.0954 185.495 59.2457 186.201 58.422L182.405 55.168L178.609 51.914C178.615 51.9074 178.592 51.9345 178.528 51.9985C178.465 52.0608 178.377 52.1449 178.259 52.2523C178.019 52.4694 177.692 52.7463 177.266 53.0877L180.389 56.992ZM182.405 55.168L186.168 58.4605C187.517 56.9189 188.077 55.0603 188.077 53.248H183.077H178.077C178.077 53.1432 178.093 52.9285 178.19 52.6522C178.29 52.3672 178.447 52.0986 178.642 51.8755L182.405 55.168ZM183.077 53.248H188.077C188.077 51.8737 187.762 50.4175 186.943 49.0691C186.126 47.7241 184.986 46.7769 183.785 46.1411L181.445 50.56L179.106 54.9789C178.993 54.9191 178.668 54.7079 178.395 54.2589C178.121 53.8065 178.077 53.4063 178.077 53.248H183.077ZM181.445 50.56L183.98 46.2503C181.845 44.9942 179.385 44.6 177.029 44.6V49.6V54.6C178.385 54.6 178.869 54.8458 178.91 54.8697L181.445 50.56ZM177.029 49.6V44.6C174.115 44.6 170.933 45.2167 167.57 46.2676L169.061 51.04L170.553 55.8124C173.334 54.9433 175.463 54.6 177.029 54.6V49.6ZM169.061 51.04L164.213 52.2642L166.613 61.7682L171.461 60.544L176.309 59.3198L173.909 49.8158L169.061 51.04ZM171.461 60.544L166.592 61.6801L167.264 64.5602L172.133 63.424L177.002 62.2878L176.33 59.4079L171.461 60.544ZM172.133 63.424L167.263 64.5546C168.099 68.157 168.381 70.1751 168.381 71.008H173.381H178.381C178.381 68.8969 177.831 65.859 177.004 62.2934L172.133 63.424ZM173.381 71.008H168.381C168.381 71.0456 168.378 71.0462 168.383 71.0179C168.389 70.9885 168.402 70.9419 168.425 70.8864C168.449 70.8307 168.477 70.7833 168.502 70.7478C168.527 70.7132 168.541 70.7024 168.53 70.7127L171.941 74.368L175.353 78.0233C177.353 76.1568 178.381 73.701 178.381 71.008H173.381ZM171.941 74.368L168.53 70.7127C168.534 70.7081 168.548 70.6969 168.567 70.685C168.587 70.6732 168.599 70.669 168.596 70.67C168.592 70.6713 168.479 70.712 168.197 70.712V75.712V80.712C170.77 80.712 173.312 79.9282 175.353 78.0233L171.941 74.368ZM168.197 75.712V70.712C168.213 70.712 168.253 70.7138 168.31 70.726C168.368 70.7384 168.425 70.7576 168.476 70.7806C168.584 70.8301 168.582 70.8598 168.485 70.7563L164.837 74.176L161.189 77.5957C162.993 79.5198 165.393 80.712 168.197 80.712V75.712ZM164.837 74.176L168.485 70.7563C168.071 70.3151 167.282 69.1617 166.188 66.8516L161.669 68.992L157.15 71.1324C158.36 73.6863 159.683 75.9889 161.189 77.5957L164.837 74.176ZM161.669 68.992L166.204 66.8864C164.647 63.5335 162.955 59.149 161.133 53.6829L156.389 55.264L151.646 56.8451C153.536 62.515 155.363 67.2825 157.134 71.0976L161.669 68.992ZM156.389 55.264L154.962 50.4721C152.125 51.317 150.266 51.608 149.189 51.608V56.608V61.608C151.696 61.608 154.637 61.003 157.817 60.0559L156.389 55.264ZM149.189 56.608V51.608C148.42 51.608 147.983 51.4933 147.768 51.4081C147.586 51.3359 147.522 51.272 147.476 51.2156L143.621 54.4L139.766 57.5844C142.206 60.5382 145.694 61.608 149.189 61.608V56.608ZM143.621 54.4L147.559 51.3185C147.063 50.6853 146.893 50.1283 146.893 49.504H141.893H136.893C136.893 52.4637 137.875 55.1707 139.684 57.4815L143.621 54.4ZM141.893 49.504H146.893C146.893 49.0739 147.009 47.7579 150.534 46.0214L148.325 41.536L146.116 37.0506C141.065 39.5381 136.893 43.5341 136.893 49.504H141.893ZM148.325 41.536L150.561 46.0081C150.945 45.8161 151.393 45.5921 151.905 45.3361L149.669 40.864L147.433 36.3919C146.921 36.6479 146.473 36.8719 146.089 37.0639L148.325 41.536ZM149.669 40.864L151.7 45.4331C152.231 45.197 152.866 44.9248 153.608 44.6154L151.685 40L149.762 35.3846C148.969 35.7152 148.259 36.019 147.638 36.2949L149.669 40.864ZM151.685 40L156.562 38.8959C155.791 35.4911 155.533 33.5863 155.533 32.8H150.533H145.533C145.533 34.8296 146.043 37.7248 146.809 41.1041L151.685 40ZM150.533 32.8H155.533C155.533 32.0693 155.715 31.9048 155.797 31.8235L152.261 28.288L148.726 24.7525C146.503 26.9752 145.533 29.8187 145.533 32.8H150.533ZM152.261 28.288L155.797 31.8235C156.032 31.5883 156.245 31.464 156.773 31.464V26.464V21.464C153.717 21.464 150.922 22.5557 148.726 24.7525L152.261 28.288ZM156.773 26.464V31.464C157.892 31.464 158.291 31.7389 158.439 31.8649C158.627 32.0234 159.068 32.5116 159.385 33.9081L164.261 32.8L169.137 31.6919C168.494 28.8644 167.208 26.1846 164.899 24.2311C162.552 22.245 159.686 21.464 156.773 21.464V26.464ZM164.261 32.8L159.444 34.1382L160.404 37.5942L165.221 36.256L170.039 34.9178L169.079 31.4618L164.261 32.8ZM165.221 36.256L166.011 41.1932C169.177 40.6867 171.446 40.3932 172.901 40.2813L172.517 35.296L172.134 30.3107C170.26 30.4548 167.666 30.8013 164.431 31.3188L165.221 36.256ZM172.517 35.296L177.415 36.3007C177.9 33.937 178.382 32.2005 178.831 31.0036L174.149 29.248L169.467 27.4924C168.764 29.3675 168.158 31.663 167.619 34.2913L172.517 35.296ZM174.149 29.248L178.816 31.0429C179.176 30.1063 179.581 29.6679 179.899 29.4333L176.933 25.408L173.967 21.3827C171.854 22.9401 170.402 25.0617 169.482 27.4531L174.149 29.248ZM176.933 25.408L179.899 29.4333C180.28 29.1527 180.59 29.064 180.965 29.064V24.064V19.064C178.396 19.064 176.018 19.8713 173.967 21.3827L176.933 25.408ZM180.965 24.064V29.064C181.19 29.064 181.398 29.0987 181.759 29.4222L185.093 25.696L188.427 21.9698C186.357 20.1173 183.812 19.064 180.965 19.064V24.064ZM185.093 25.696L181.759 29.4222C181.817 29.4737 181.844 29.5079 181.854 29.5221C181.864 29.5355 181.868 29.5431 181.871 29.5502C181.872 29.5536 181.917 29.6514 181.917 29.92H186.917H191.917C191.917 26.8644 190.772 24.0678 188.427 21.9698L185.093 25.696ZM186.917 29.92H181.917C181.917 30.9712 181.666 32.4704 180.952 34.5026L185.669 36.16L190.386 37.8174C191.336 35.1136 191.917 32.4528 191.917 29.92H186.917ZM221.923 75.04L219.968 79.6417L220.036 79.6708L220.106 79.6979L221.923 75.04ZM219.907 65.344L216.372 61.8085L219.907 65.344ZM242.371 57.088L237.374 56.941L237.373 56.9529L242.371 57.088ZM239.587 52.576L241.575 47.9882L239.587 52.576ZM226.915 52L227.837 56.9144L227.911 56.9005L227.984 56.8845L226.915 52ZM223.267 52.672L222.445 47.74L222.293 47.7654L222.143 47.8L223.267 52.672ZM210.979 51.904L207.531 55.5247L207.573 55.5647L207.616 55.6037L210.979 51.904ZM210.211 43.168L206.186 40.202L206.134 40.2724L206.085 40.3446L210.211 43.168ZM214.243 39.52L217.051 43.6574L217.094 43.6279L217.137 43.5975L214.243 39.52ZM226.435 31.744L229.053 36.0038L229.076 35.9896L229.099 35.9752L226.435 31.744ZM231.619 28.48L234.283 32.7112L248.945 23.48H231.619V28.48ZM214.627 27.904L215.261 22.9442L214.627 27.904ZM207.139 25.312L204.272 29.4082L204.303 29.4301L204.335 29.4516L207.139 25.312ZM208.099 12.064L205.653 7.70328L205.63 7.71625L205.607 7.72947L208.099 12.064ZM217.315 9.376L217.768 14.3555L217.808 14.3518L217.848 14.3475L217.315 9.376ZM232.483 8.704V3.704H232.459L232.434 3.70424L232.483 8.704ZM253.123 11.2L251.382 15.8871L251.393 15.8911L251.404 15.8951L253.123 11.2ZM258.691 26.08L254.44 23.4482L254.394 23.523L254.35 23.5993L258.691 26.08ZM255.427 29.632L252.487 25.5883L252.441 25.6211L252.397 25.6548L255.427 29.632ZM249.283 33.664L251.818 37.9737L251.845 37.9583L251.87 37.9427L249.283 33.664ZM243.715 37.12L240.942 32.9597L228.862 41.0132L243.339 42.1058L243.715 37.12ZM252.643 40L249.918 44.1922L249.979 44.2315L250.04 44.269L252.643 40ZM258.691 46.24L254.31 48.6496L254.333 48.6912L254.357 48.7324L258.691 46.24ZM253.315 70.72L250.26 66.7625L250.247 66.7719L250.235 66.7814L253.315 70.72ZM232.483 76.576V71.576C228.376 71.576 225.552 71.0888 223.741 70.3821L221.923 75.04L220.106 79.6979C223.543 81.0392 227.759 81.576 232.483 81.576V76.576ZM221.923 75.04L223.879 70.4383C223.57 70.307 223.386 70.189 223.286 70.112C223.19 70.0387 223.162 69.9967 223.159 69.9933C223.158 69.9917 223.147 69.9773 223.131 69.9224C223.114 69.8614 223.083 69.7211 223.083 69.472H218.083H213.083C213.083 71.6271 213.622 73.7776 214.927 75.6707C216.219 77.5438 218.019 78.8135 219.968 79.6417L221.923 75.04ZM218.083 69.472H223.083C223.083 69.3849 223.096 69.3466 223.113 69.3088C223.134 69.2603 223.21 69.1129 223.443 68.8795L219.907 65.344L216.372 61.8085C214.341 63.8396 213.083 66.4461 213.083 69.472H218.083ZM219.907 65.344L223.443 68.8795C223.472 68.8508 223.548 68.7794 223.772 68.702C224.019 68.6166 224.464 68.52 225.187 68.52V63.52V58.52C222.022 58.52 218.81 59.3706 216.372 61.8085L219.907 65.344ZM225.187 63.52V68.52C230.233 68.52 234.76 68.0118 238.669 66.8841L237.283 62.08L235.898 57.2759C233.151 58.0682 229.614 58.52 225.187 58.52V63.52ZM237.283 62.08L238.669 66.8841C240.79 66.2722 242.904 65.2992 244.553 63.681C246.323 61.9446 247.302 59.7068 247.37 57.2231L242.371 57.088L237.373 56.9529C237.373 56.9576 237.373 56.9347 237.383 56.8905C237.393 56.8455 237.409 56.7906 237.435 56.7317C237.491 56.6027 237.553 56.5395 237.55 56.543C237.503 56.5888 237.104 56.9278 235.898 57.2759L237.283 62.08ZM242.371 57.088L247.369 57.235C247.423 55.3977 247.064 53.4609 245.979 51.7025C244.884 49.929 243.297 48.7343 241.575 47.9882L239.587 52.576L237.599 57.1638C237.71 57.2119 237.718 57.2311 237.67 57.1919C237.617 57.1482 237.539 57.0677 237.468 56.9535C237.399 56.8407 237.372 56.7523 237.366 56.7248C237.361 56.7041 237.379 56.7666 237.374 56.941L242.371 57.088ZM239.587 52.576L241.575 47.9882C238.967 46.8579 236.17 46.328 233.251 46.328V51.328V56.328C234.941 56.328 236.368 56.6301 237.599 57.1638L239.587 52.576ZM233.251 51.328V46.328C230.73 46.328 228.259 46.5879 225.847 47.1155L226.915 52L227.984 56.8845C229.668 56.5161 231.421 56.328 233.251 56.328V51.328ZM226.915 52L225.994 47.0856C223.918 47.4748 222.766 47.6866 222.445 47.74L223.267 52.672L224.089 57.604C224.536 57.5294 225.817 57.2932 227.837 56.9144L226.915 52ZM223.267 52.672L222.143 47.8C218.848 48.5605 216.894 48.824 215.971 48.824V53.824V58.824C218.121 58.824 221.031 58.3195 224.392 57.544L223.267 52.672ZM215.971 53.824V48.824C215.283 48.824 214.821 48.6393 214.343 48.2043L210.979 51.904L207.616 55.6037C209.954 57.7287 212.82 58.824 215.971 58.824V53.824ZM210.979 51.904L214.428 48.2833C213.948 47.8269 213.963 47.6187 213.963 47.488H208.963H203.963C203.963 50.6853 205.322 53.4211 207.531 55.5247L210.979 51.904ZM208.963 47.488H213.963C213.963 46.6965 214.147 46.2709 214.338 45.9914L210.211 43.168L206.085 40.3446C204.612 42.4971 203.963 44.9515 203.963 47.488H208.963ZM210.211 43.168L214.237 46.134C214.685 45.5262 215.542 44.6812 217.051 43.6574L214.243 39.52L211.436 35.3826C209.361 36.7908 207.53 38.3778 206.186 40.202L210.211 43.168ZM214.243 39.52L217.137 43.5975C218.964 42.3009 222.887 39.7935 229.053 36.0038L226.435 31.744L223.817 27.4842C217.696 31.2465 213.491 33.9231 211.35 35.4425L214.243 39.52ZM226.435 31.744L229.099 35.9752L234.283 32.7112L231.619 28.48L228.955 24.2488L223.771 27.5128L226.435 31.744ZM231.619 28.48V23.48H225.955V28.48V33.48H231.619V28.48ZM225.955 28.48V23.48C221.53 23.48 217.983 23.2918 215.261 22.9442L214.627 27.904L213.994 32.8637C217.288 33.2842 221.293 33.48 225.955 33.48V28.48ZM214.627 27.904L215.261 22.9442C212.829 22.6339 211.129 21.9754 209.944 21.1724L207.139 25.312L204.335 29.4516C207.118 31.3366 210.409 32.4061 213.994 32.8637L214.627 27.904ZM207.139 25.312L210.007 21.2158C209.67 20.98 209.259 20.6143 209.259 19.168H204.259H199.259C199.259 23.2257 200.769 26.956 204.272 29.4082L207.139 25.312ZM204.259 19.168H209.259C209.259 17.4651 209.771 16.8703 210.592 16.3985L208.099 12.064L205.607 7.72947C201.307 10.2017 199.259 14.3429 199.259 19.168H204.259ZM208.099 12.064L210.546 16.4247C212.458 15.3518 214.828 14.6228 217.768 14.3555L217.315 9.376L216.863 4.39653C212.763 4.76922 208.989 5.83217 205.653 7.70328L208.099 12.064ZM217.315 9.376L217.848 14.3475C221.192 13.9893 226.059 13.7672 232.532 13.7038L232.483 8.704L232.434 3.70424C225.852 3.76877 220.607 3.99472 216.783 4.40445L217.315 9.376ZM232.483 8.704V13.704H235.651V8.704V3.704H232.483V8.704ZM235.651 8.704V13.704C242.493 13.704 247.665 14.5063 251.382 15.8871L253.123 11.2L254.864 6.51287C249.622 4.56571 243.146 3.704 235.651 3.704V8.704ZM253.123 11.2L251.404 15.8951C252.898 16.4421 253.668 17.122 254.106 17.7631C254.552 18.4168 254.939 19.4519 254.939 21.184H259.939H264.939C264.939 17.9241 264.191 14.7992 262.365 12.1248C260.531 9.43798 257.893 7.62188 254.843 6.5049L253.123 11.2ZM259.939 21.184H254.939C254.939 22.3745 254.687 23.0494 254.44 23.4482L258.691 26.08L262.943 28.7118C264.36 26.4226 264.939 23.8335 264.939 21.184H259.939ZM258.691 26.08L254.35 23.5993C253.974 24.2567 253.394 24.9284 252.487 25.5883L255.427 29.632L258.368 33.6757C260.277 32.2876 261.872 30.5913 263.033 28.5607L258.691 26.08ZM255.427 29.632L252.397 25.6548C251.27 26.5134 249.406 27.7472 246.696 29.3853L249.283 33.664L251.87 37.9427C254.665 36.2528 256.896 34.7986 258.458 33.6092L255.427 29.632ZM249.283 33.664L246.748 29.3543C244.518 30.666 242.578 31.8688 240.942 32.9597L243.715 37.12L246.489 41.2802C247.924 40.3232 249.696 39.222 251.818 37.9737L249.283 33.664ZM243.715 37.12L243.339 42.1058C245.991 42.306 248.14 43.0361 249.918 44.1922L252.643 40L255.368 35.8078C252.027 33.6359 248.223 32.446 244.092 32.1342L243.715 37.12ZM252.643 40L250.04 44.269C251.96 45.4394 253.345 46.8941 254.31 48.6496L258.691 46.24L263.072 43.8304C261.222 40.4659 258.575 37.7606 255.246 35.731L252.643 40ZM258.691 46.24L254.357 48.7324C255.384 50.5194 255.899 52.4416 255.899 54.592H260.899H265.899C265.899 50.7264 264.942 47.0806 263.026 43.7476L258.691 46.24ZM260.899 54.592H255.899C255.899 60.0199 253.991 63.8814 250.26 66.7625L253.315 70.72L256.371 74.6775C262.752 69.7506 265.899 62.8601 265.899 54.592H260.899ZM253.315 70.72L250.235 66.7814C246.417 69.7677 240.705 71.576 232.483 71.576V76.576V81.576C242.054 81.576 250.23 79.4803 256.396 74.6586L253.315 70.72ZM293.986 72.544L291.413 76.8315L291.452 76.8546L291.491 76.8771L293.986 72.544ZM275.842 60.064L272.852 64.0716L272.868 64.0834L272.883 64.095L275.842 60.064ZM267.682 52.48L263.463 55.1644L263.511 55.2394L263.561 55.3126L267.682 52.48ZM267.778 38.176L263.636 35.3745L263.608 35.4168L263.58 35.4597L267.778 38.176ZM275.842 29.152L279.348 32.7166L279.353 32.7118L275.842 29.152ZM290.146 16.96L287.239 12.8913L287.227 12.9003L287.214 12.9094L290.146 16.96ZM308.866 13.792L305.777 17.7236L305.81 17.7498L305.844 17.7755L308.866 13.792ZM310.21 24.832L306.022 22.1007L306.006 22.1241L305.991 22.1476L310.21 24.832ZM306.178 29.152L303.004 25.2884L302.969 25.3168L302.935 25.3458L306.178 29.152ZM297.442 35.872L300.34 39.946L300.371 39.9242L300.401 39.902L297.442 35.872ZM287.938 42.88L290.938 46.88L290.958 46.8648L290.978 46.8494L287.938 42.88ZM287.938 46.72L285.288 50.96L285.302 50.9692L285.317 50.9783L287.938 46.72ZM302.722 56.32L299.8 60.3777L299.846 60.4106L299.892 60.4426L302.722 56.32ZM309.922 62.656L313.875 59.5951L309.922 62.656ZM309.922 74.176L306.629 70.4131L306.589 70.4479L306.55 70.4836L309.922 74.176ZM304.642 47.008L300.131 49.1653L300.188 49.2854L300.252 49.4023L304.642 47.008ZM304.642 34.816L300.3 32.3353L300.28 32.3707L300.261 32.4064L304.642 34.816ZM312.322 47.008L307.969 44.5477L307.95 44.5806L307.932 44.6137L312.322 47.008ZM316.642 47.008L312.056 49.0016L312.11 49.1244L312.169 49.2441L316.642 47.008ZM304.45 76.192V71.192C303.014 71.192 300.451 70.4969 296.48 68.2109L293.986 72.544L291.491 76.8771C295.968 79.4551 300.381 81.192 304.45 81.192V76.192ZM293.986 72.544L296.558 68.2565C292.605 65.8849 286.71 61.8384 278.8 56.033L275.842 60.064L272.883 64.095C280.845 69.9376 287.046 74.2111 291.413 76.8315L293.986 72.544ZM275.842 60.064L278.831 56.0564C274.884 53.1116 272.722 50.986 271.802 49.6474L267.682 52.48L263.561 55.3126C265.457 58.07 268.735 61.0004 272.852 64.0716L275.842 60.064ZM267.682 52.48L271.9 49.7956C271.117 48.5647 270.666 47.083 270.666 45.184H265.666H260.666C260.666 48.789 261.559 52.1713 263.463 55.1644L267.682 52.48ZM265.666 45.184H270.666C270.666 43.6901 271.07 42.2918 271.975 40.8923L267.778 38.176L263.58 35.4597C261.669 38.4122 260.666 41.6859 260.666 45.184H265.666ZM267.778 38.176L271.919 40.9775C273.097 39.2367 275.483 36.5176 279.348 32.7166L275.842 29.152L272.335 25.5874C268.392 29.4664 265.403 32.7633 263.636 35.3745L267.778 38.176ZM275.842 29.152L279.353 32.7118C283.861 28.2656 288.436 24.369 293.077 21.0106L290.146 16.96L287.214 12.9094C282.127 16.591 277.167 20.8224 272.331 25.5922L275.842 29.152ZM290.146 16.96L293.052 21.0287C297.779 17.6524 300.763 16.68 302.338 16.68V11.68V6.68C297.513 6.68 292.369 9.22764 287.239 12.8913L290.146 16.96ZM302.338 11.68V16.68C303.923 16.68 304.974 17.0927 305.777 17.7236L308.866 13.792L311.955 9.86041C309.174 7.67527 305.872 6.68 302.338 6.68V11.68ZM308.866 13.792L305.844 17.7755C306.284 18.1094 306.65 18.5541 306.65 19.84H311.65H316.65C316.65 15.8779 315.159 12.2906 311.888 9.80854L308.866 13.792ZM311.65 19.84H306.65C306.65 20.7833 306.421 21.4877 306.022 22.1007L310.21 24.832L314.398 27.5633C315.918 25.2323 316.65 22.6087 316.65 19.84H311.65ZM310.21 24.832L305.991 22.1476C305.466 22.9738 304.534 24.0313 303.004 25.2884L306.178 29.152L309.351 33.0156C311.405 31.3287 313.162 29.5062 314.428 27.5164L310.21 24.832ZM306.178 29.152L302.935 25.3458C301.356 26.6915 298.57 28.8402 294.482 31.842L297.442 35.872L300.401 39.902C304.506 36.8878 307.544 34.5565 309.42 32.9582L306.178 29.152ZM297.442 35.872L294.543 31.798C291.171 34.1975 287.955 36.5683 284.897 38.9106L287.938 42.88L290.978 46.8494C293.936 44.5837 297.057 42.2825 300.34 39.946L297.442 35.872ZM287.938 42.88L284.938 38.88C284.226 39.414 283.448 40.0903 282.808 40.9298C282.186 41.7462 281.402 43.1071 281.402 44.896H286.402H291.402C291.402 46.1089 290.873 46.8458 290.763 46.9902C290.635 47.1577 290.626 47.114 290.938 46.88L287.938 42.88ZM286.402 44.896H281.402C281.402 46.7424 282.233 48.1402 282.961 49.0047C283.679 49.8578 284.538 50.4915 285.288 50.96L287.938 46.72L290.588 42.48C290.313 42.3085 290.404 42.3182 290.61 42.5633C290.826 42.8198 291.402 43.6256 291.402 44.896H286.402ZM287.938 46.72L285.317 50.9783C291.949 55.0596 296.752 58.183 299.8 60.3777L302.722 56.32L305.643 52.2623C302.291 49.849 297.238 46.5724 290.558 42.4617L287.938 46.72ZM302.722 56.32L299.892 60.4426C302.946 62.538 304.878 64.3091 305.968 65.7169L309.922 62.656L313.875 59.5951C311.893 57.035 309.026 54.582 305.551 52.1974L302.722 56.32ZM309.922 62.656L305.968 65.7169C306.934 66.9649 307.226 67.9931 307.226 68.896H312.226H317.226C317.226 65.4468 315.981 62.3151 313.875 59.5951L309.922 62.656ZM312.226 68.896H307.226C307.226 69.7382 307.001 70.0875 306.629 70.4131L309.922 74.176L313.214 77.9389C315.914 75.5765 317.226 72.4058 317.226 68.896H312.226ZM309.922 74.176L306.55 70.4836C306.087 70.9062 305.502 71.192 304.45 71.192V76.192V81.192C307.749 81.192 310.812 80.1338 313.293 77.8684L309.922 74.176ZM308.482 49.12V44.12C308.239 44.12 308.339 44.0746 308.587 44.2109C308.706 44.2763 308.815 44.3606 308.903 44.4513C308.989 44.5394 309.026 44.6046 309.031 44.6137L304.642 47.008L300.252 49.4023C302.015 52.6341 305.122 54.12 308.482 54.12V49.12ZM304.642 47.008L309.152 44.8507C308.93 44.3852 308.586 43.1007 308.586 40.48H303.586H298.586C298.586 43.6192 298.946 46.6868 300.131 49.1653L304.642 47.008ZM303.586 40.48H308.586C308.586 38.3047 308.918 37.4158 309.023 37.2256L304.642 34.816L300.261 32.4064C298.957 34.7762 298.586 37.6633 298.586 40.48H303.586ZM304.642 34.816L308.983 37.2967C308.965 37.3274 308.915 37.4045 308.821 37.4973C308.725 37.5918 308.614 37.6722 308.502 37.731C308.273 37.851 308.205 37.8 308.482 37.8V32.8V27.8C305.234 27.8 302.115 29.1603 300.3 32.3353L304.642 34.816ZM308.482 32.8V37.8C308.688 37.8 308.626 37.8367 308.438 37.7412C308.35 37.6964 308.269 37.6391 308.203 37.5787C308.139 37.5199 308.112 37.4792 308.114 37.4816C308.124 37.4975 308.249 37.7013 308.366 38.2395C308.483 38.7747 308.57 39.537 308.57 40.576H313.57H318.57C318.57 37.598 318.111 34.4972 316.482 32.0064C314.61 29.1467 311.675 27.8 308.482 27.8V32.8ZM313.57 40.576H308.57C308.57 43.0379 308.182 44.1705 307.969 44.5477L312.322 47.008L316.674 49.4683C318.125 46.9015 318.57 43.7461 318.57 40.576H313.57ZM312.322 47.008L307.932 44.6137C307.937 44.6046 307.975 44.5394 308.06 44.4513C308.148 44.3606 308.257 44.2763 308.376 44.2109C308.624 44.0746 308.724 44.12 308.482 44.12V49.12V54.12C311.841 54.12 314.948 52.6341 316.711 49.4023L312.322 47.008ZM320.386 49.12V44.12C320.138 44.12 320.271 44.0727 320.562 44.2371C320.704 44.3173 320.836 44.4221 320.944 44.5383C321.048 44.6516 321.099 44.7419 321.114 44.7719L316.642 47.008L312.169 49.2441C312.921 50.7477 314.072 52.0572 315.649 52.9469C317.188 53.8153 318.842 54.12 320.386 54.12V49.12ZM316.642 47.008L321.227 45.0144C320.985 44.4574 320.682 43.1717 320.682 40.768H315.682H310.682C310.682 43.7402 311.018 46.6146 312.056 49.0016L316.642 47.008ZM315.682 40.768H320.682C320.682 39.6808 320.766 38.8687 320.886 38.2853C321.007 37.6958 321.14 37.4514 321.166 37.4096C321.171 37.4012 321.067 37.559 320.82 37.693C320.583 37.8213 320.451 37.8 320.578 37.8V32.8V27.8C317.307 27.8 314.422 29.2833 312.646 32.1744C311.114 34.6667 310.682 37.7625 310.682 40.768H315.682ZM320.578 32.8V37.8C320.848 37.8 320.845 37.8471 320.699 37.7778C320.528 37.6967 320.411 37.5745 320.372 37.5189C320.355 37.4951 320.462 37.6378 320.569 38.0961C320.676 38.5556 320.762 39.2362 320.762 40.192H325.762H330.762C330.762 37.2967 330.282 34.2332 328.559 31.7771C326.61 28.9974 323.657 27.8 320.578 27.8V32.8ZM325.762 40.192H320.762C320.762 42.8293 320.335 43.9745 320.134 44.3088C320.078 44.4015 320.125 44.2935 320.316 44.1875C320.5 44.0856 320.576 44.12 320.386 44.12V49.12V54.12C323.863 54.12 326.866 52.5148 328.701 49.4672C330.292 46.8255 330.762 43.5067 330.762 40.192H325.762Z" fill="#727B6B" mask="url(#path-1-outside-1_4_21)"/>
</svg>
